<?xml version="1.0" encoding="iso-8859-1"?>
<!-- Generator: Adobe Illustrator 15.1.0, SVG Export Plug-In . SVG Version: 6.00 Build 0)  -->
<!DOCTYPE svg PUBLIC "-//W3C//DTD SVG 1.1//EN" "http://www.w3.org/Graphics/SVG/1.1/DTD/svg11.dtd">
<svg version="1.1" xmlns="http://www.w3.org/2000/svg" xmlns:xlink="http://www.w3.org/1999/xlink" x="0px" y="0px"
	 width="18.663px" height="32px" viewBox="0 0 18.663 32" style="enable-background:new 0 0 18.663 32;" xml:space="preserve">
<g id="Layer_1">
</g>
<g id="ampersand">
	<path style="fill:#010101;" d="M9.212,32c-2.359,0-4.719-0.898-6.52-2.691c-3.59-3.598-3.59-9.449,0-13.039l8.113-7.938
		c0.461-0.465,0.727-1.102,0.727-1.785c0-0.68-0.266-1.32-0.742-1.805C9.798,3.75,8.181,3.754,7.181,4.746
		C6.196,5.738,6.196,7.355,7.188,8.348L4.356,11.18C1.806,8.625,1.806,4.473,4.353,1.918c2.562-2.559,6.711-2.555,9.264-0.004
		c1.242,1.238,1.922,2.887,1.922,4.637c0,1.75-0.68,3.395-1.922,4.629l-8.111,7.934c-2.02,2.016-2.02,5.328,0.02,7.363
		c2.031,2.035,5.344,2.031,7.383,0c2.029-2.035,2.029-5.348,0-7.379l-1.422-1.414l4.35-4.348l2.828,2.828l-1.672,1.672
		c2.266,3.562,1.852,8.359-1.258,11.469C13.937,31.102,11.571,32,9.212,32L9.212,32z"/>
</g>
</svg>
