<?xml version="1.0" encoding="iso-8859-1"?>
<!-- Generator: Adobe Illustrator 15.1.0, SVG Export Plug-In . SVG Version: 6.00 Build 0)  -->
<!DOCTYPE svg PUBLIC "-//W3C//DTD SVG 1.1//EN" "http://www.w3.org/Graphics/SVG/1.1/DTD/svg11.dtd">
<svg version="1.1" xmlns="http://www.w3.org/2000/svg" xmlns:xlink="http://www.w3.org/1999/xlink" x="0px" y="0px" width="32px"
	 height="32px" viewBox="0 0 32 32" style="enable-background:new 0 0 32 32;" xml:space="preserve">
<g id="Layer_1">
</g>
<g id="chat_x5F_alt_x5F_stroke">
	<g>
		<g>
			<path style="fill:#010101;" d="M25.977,12.213c-0.027,1.387-0.336,2.695-0.883,3.889C27.977,16.582,28,18.93,28,20
				c0,0.992,0,4-3.996,4H20c-2.605,0-4.938,1.258-6.398,3.203C12.633,26.469,12,25.305,12,24v-4c0-0.789,0.141-1.414,0.359-1.928
				C12.242,18.051,12.125,18,12,18H8.203c-0.129,0.619-0.199,1.281-0.199,2v4c0,4.418,3.578,8,7.996,8c0-2.211,1.789-4,4-4h4.004
				C28,28,32,25.75,32,20C32,15.107,29.219,12.84,25.977,12.213z"/>
		</g>
		<path style="fill:#010101;" d="M16,4c1.492,0,4,0.52,4,4v4c0,1.309-0.633,2.471-1.602,3.201C16.938,13.26,14.609,12,12,12H8.004
			C4,12,4,8.99,4,8c0-1.195,0-4,4.004-4H16 M16,0H8.004C4,0,0,2.125,0,8c0,5.75,4,8,8.004,8H12c2.211,0,4,1.793,4,4
			c4.418,0,8.004-3.582,8.004-8V8C24.004,2.479,20,0,16,0L16,0z"/>
	</g>
</g>
</svg>
