<?xml version="1.0" encoding="iso-8859-1"?>
<!-- Generator: Adobe Illustrator 15.1.0, SVG Export Plug-In . SVG Version: 6.00 Build 0)  -->
<!DOCTYPE svg PUBLIC "-//W3C//DTD SVG 1.1//EN" "http://www.w3.org/Graphics/SVG/1.1/DTD/svg11.dtd">
<svg version="1.1" xmlns="http://www.w3.org/2000/svg" xmlns:xlink="http://www.w3.org/1999/xlink" x="0px" y="0px" width="32px"
	 height="20px" viewBox="0 0 32 20" style="enable-background:new 0 0 32 20;" xml:space="preserve">
<g id="Layer_1">
</g>
<g id="cloud">
	<path style="fill:#010101;" d="M24,4c-0.379,0-0.738,0.061-1.102,0.111C21.504,1.646,18.926,0,16,0c-2.988,0-5.566,1.666-6.941,4.1
		C8.707,4.053,8.355,4,8,4c-4.41,0-8,3.588-8,8c0,4.414,3.59,8,8,8h16c4.41,0,8-3.586,8-8C32,7.588,28.41,4,24,4z M24,16H8
		c-2.207,0-4-1.797-4-4c0-2.193,1.941-3.885,4.004-3.945c0.008,0.943,0.172,1.869,0.5,2.744l3.746-1.402C12.082,8.953,12,8.482,12,8
		c0-2.205,1.793-4,4-4c1.293,0,2.465,0.641,3.199,1.639C17.27,7.1,16,9.395,16,12h4c0-2.205,1.793-4,4-4s4,1.795,4,4
		C28,14.203,26.207,16,24,16z"/>
</g>
</svg>
