<?xml version="1.0" encoding="iso-8859-1"?>
<!-- Generator: Adobe Illustrator 15.1.0, SVG Export Plug-In . SVG Version: 6.00 Build 0)  -->
<!DOCTYPE svg PUBLIC "-//W3C//DTD SVG 1.1//EN" "http://www.w3.org/Graphics/SVG/1.1/DTD/svg11.dtd">
<svg version="1.1" xmlns="http://www.w3.org/2000/svg" xmlns:xlink="http://www.w3.org/1999/xlink" x="0px" y="0px" width="32px"
	 height="32px" viewBox="0 0 32 32" style="enable-background:new 0 0 32 32;" xml:space="preserve">
<g id="Layer_1">
</g>
<g id="cloud_x5F_upload">
	<g>
		<path style="fill:#010101;" d="M24,4c-0.375,0-0.738,0.062-1.102,0.109C21.504,1.648,18.926,0,16,0
			c-2.988,0-5.568,1.664-6.941,4.102C8.707,4.055,8.357,4,8,4c-4.412,0-8,3.586-8,8s3.588,8,8,8h16c4.414,0,8-3.586,8-8
			S28.414,4,24,4z M24,16H8c-2.205,0-4-1.797-4-4c0-2.195,1.943-3.883,4.004-3.945C8.012,9,8.176,9.922,8.504,10.797l3.746-1.398
			C12.084,8.953,12,8.484,12,8c0-2.203,1.795-4,4-4c1.295,0,2.463,0.641,3.203,1.641C17.27,7.102,16,9.395,16,12h4
			c0-2.203,1.797-4,4-4s4,1.797,4,4S26.203,16,24,16z"/>
		<g>
			<polygon style="fill:#010101;" points="18.002,26 22,26 16.004,20 10.002,26 14.002,26 14.002,32 18.002,32 			"/>
		</g>
	</g>
</g>
</svg>
