<?xml version="1.0" encoding="iso-8859-1"?>
<!-- Generator: Adobe Illustrator 15.1.0, SVG Export Plug-In . SVG Version: 6.00 Build 0)  -->
<!DOCTYPE svg PUBLIC "-//W3C//DTD SVG 1.1//EN" "http://www.w3.org/Graphics/SVG/1.1/DTD/svg11.dtd">
<svg version="1.1" xmlns="http://www.w3.org/2000/svg" xmlns:xlink="http://www.w3.org/1999/xlink" x="0px" y="0px" width="32px"
	 height="31.828px" viewBox="0 0 32 31.828" style="enable-background:new 0 0 32 31.828;" xml:space="preserve">
<g id="Layer_1">
</g>
<g id="dial">
	<g>
		<circle style="fill:#010101;" cx="16" cy="15.828" r="4"/>
		<path style="fill:#010101;" d="M28.555,6.047c-0.344,0.281-0.762,0.469-1.242,0.469c-1.102,0-2-0.891-2-2
			c0-0.484,0.195-0.914,0.484-1.266c-2.219-1.711-4.906-2.863-7.836-3.227C17.859,1.031,17.039,1.828,16,1.828
			S14.129,1.023,14.039,0c-2.969,0.383-5.672,1.555-7.91,3.328c0.254,0.336,0.434,0.734,0.434,1.188c0,1.109-0.891,2-2,2
			c-0.445,0-0.844-0.172-1.176-0.422C1.297,8.797,0,12.148,0,15.828c0,8.836,7.164,16,16,16s16-7.164,16-16
			C32,12.113,30.688,8.746,28.555,6.047z M16,23.828c-4.418,0-8-3.582-8-8c0-2.211,0.895-4.207,2.344-5.656L16,4.516l5.648,5.648
			C23.102,11.613,24,13.617,24,15.828C24,20.25,20.418,23.828,16,23.828z"/>
	</g>
</g>
</svg>
