<?xml version="1.0" encoding="iso-8859-1"?>
<!-- Generator: Adobe Illustrator 15.1.0, SVG Export Plug-In . SVG Version: 6.00 Build 0)  -->
<!DOCTYPE svg PUBLIC "-//W3C//DTD SVG 1.1//EN" "http://www.w3.org/Graphics/SVG/1.1/DTD/svg11.dtd">
<svg version="1.1" xmlns="http://www.w3.org/2000/svg" xmlns:xlink="http://www.w3.org/1999/xlink" x="0px" y="0px" width="32px"
	 height="32px" viewBox="0 0 32 32" style="enable-background:new 0 0 32 32;" xml:space="preserve">
<g id="Layer_1">
</g>
<g id="document_x5F_stroke">
	<path style="fill:#010101;" d="M22.016,0H0v31.938l8.051-6.578L16.07,32l8.012-6.633L32,31.984V10L22.016,0z M28.02,23.938
		l-3.953-3.227l-7.996,6.617l-7.98-6.609l-4.086,3.219c0,0,0-17.359,0-20c2.102,0,7.809,0,12.008,0v12H28.02
		C28.02,18.668,28.02,23.938,28.02,23.938z M20.016,11.938c0-1.543,0-5.914,0-8c1.617,1.617,6.402,6.398,8.004,8
		C25.973,11.938,21.57,11.938,20.016,11.938z"/>
</g>
</svg>
