<?xml version="1.0" encoding="iso-8859-1"?>
<!-- Generator: Adobe Illustrator 15.1.0, SVG Export Plug-In . SVG Version: 6.00 Build 0)  -->
<!DOCTYPE svg PUBLIC "-//W3C//DTD SVG 1.1//EN" "http://www.w3.org/Graphics/SVG/1.1/DTD/svg11.dtd">
<svg version="1.1" xmlns="http://www.w3.org/2000/svg" xmlns:xlink="http://www.w3.org/1999/xlink" x="0px" y="0px" width="32px"
	 height="28px" viewBox="0 0 32 28" style="enable-background:new 0 0 32 28;" xml:space="preserve">
<g id="Layer_1">
</g>
<g id="heaphones">
	<path style="fill:#010101;" d="M30,16h-2v-4c0-6.625-5.375-12-12-12S4,5.375,4,12v4H2c-1.105,0-2,0.895-2,2v8c0,1.105,0.895,2,2,2
		h6V16v-4c0-4.414,3.586-8,8-8s8,3.586,8,8v4v12h6c1.105,0,2-0.895,2-2v-8C32,16.895,31.105,16,30,16z"/>
</g>
</svg>
