<?xml version="1.0" encoding="iso-8859-1"?>
<!-- Generator: Adobe Illustrator 15.1.0, SVG Export Plug-In . SVG Version: 6.00 Build 0)  -->
<!DOCTYPE svg PUBLIC "-//W3C//DTD SVG 1.1//EN" "http://www.w3.org/Graphics/SVG/1.1/DTD/svg11.dtd">
<svg version="1.1" xmlns="http://www.w3.org/2000/svg" xmlns:xlink="http://www.w3.org/1999/xlink" x="0px" y="0px" width="32px"
	 height="28px" viewBox="0 0 32 28" style="enable-background:new 0 0 32 28;" xml:space="preserve">
<g id="Layer_1">
</g>
<g id="heart_x5F_stroke">
	<g>
		<path style="fill:#010101;" d="M23.113,4c2.457,0,4.492,1.82,4.836,4.188L16.004,21.906L4.051,8.188C4.395,5.82,6.43,4,8.887,4
			c2.016,0,3.855,2.164,3.855,2.164L16,9.625l3.258-3.461C19.258,6.164,21.098,4,23.113,4 M23.113,0c-2.984,0-5.5,1.578-7.113,3.844
			C14.387,1.578,11.871,0,8.887,0C3.984,0,0,3.992,0,8.891v0.734L16.008,28L32,9.625V8.891C32,3.992,28.016,0,23.113,0L23.113,0z"/>
	</g>
</g>
</svg>
