<?xml version="1.0" encoding="iso-8859-1"?>
<!-- Generator: Adobe Illustrator 15.1.0, SVG Export Plug-In . SVG Version: 6.00 Build 0)  -->
<!DOCTYPE svg PUBLIC "-//W3C//DTD SVG 1.1//EN" "http://www.w3.org/Graphics/SVG/1.1/DTD/svg11.dtd">
<svg version="1.1" xmlns="http://www.w3.org/2000/svg" xmlns:xlink="http://www.w3.org/1999/xlink" x="0px" y="0px" width="24px"
	 height="32px" viewBox="0 0 24 32" style="enable-background:new 0 0 24 32;" xml:space="preserve">
<g id="Layer_1">
</g>
<g id="iphone">
	<path style="fill:#010101;" d="M16,0H8C3.582,0,0,3.582,0,8v16c0,4.418,3.582,8,8,8h8c4.418,0,8-3.582,8-8V8
		C24,3.582,20.418,0,16,0z M12,30.062c-1.139,0-2.062-0.922-2.062-2.062s0.924-2.062,2.062-2.062s2.062,0.922,2.062,2.062
		S13.139,30.062,12,30.062z M20,24H4V8c0-2.203,1.795-4,4-4h8c2.203,0,4,1.797,4,4V24z"/>
</g>
</svg>
