<?xml version="1.0" encoding="iso-8859-1"?>
<!-- Generator: Adobe Illustrator 15.1.0, SVG Export Plug-In . SVG Version: 6.00 Build 0)  -->
<!DOCTYPE svg PUBLIC "-//W3C//DTD SVG 1.1//EN" "http://www.w3.org/Graphics/SVG/1.1/DTD/svg11.dtd">
<svg version="1.1" xmlns="http://www.w3.org/2000/svg" xmlns:xlink="http://www.w3.org/1999/xlink" x="0px" y="0px" width="24px"
	 height="32px" viewBox="0 0 24 32" style="enable-background:new 0 0 24 32;" xml:space="preserve">
<g id="Layer_1">
</g>
<g id="lock_x5F_stroke">
	<g>
		<path style="fill:#010101;" d="M14.004,0c-5.51,0-9.998,4.484-9.998,10v2H0v14c0,3.305,2.695,6,5.998,6H18c3.312,0,6-2.695,6-6V10
			C24,4.484,19.516,0,14.004,0z M8.006,10c0-3.312,2.693-6,5.998-6C17.312,4,20,6.688,20,10v2H8.006V10z M18,28H5.998
			c-1.102,0-2-0.898-2-2V16H20v10C20,27.102,19.109,28,18,28z"/>
		<path style="fill:#010101;" d="M14.004,22c0,1.102-0.898,2-2,2c-1.109,0-2-0.898-2-2c0-1.109,0.891-2,2-2
			C13.105,20,14.004,20.891,14.004,22z"/>
	</g>
</g>
</svg>
