<?xml version="1.0" encoding="iso-8859-1"?>
<!-- Generator: Adobe Illustrator 15.1.0, SVG Export Plug-In . SVG Version: 6.00 Build 0)  -->
<!DOCTYPE svg PUBLIC "-//W3C//DTD SVG 1.1//EN" "http://www.w3.org/Graphics/SVG/1.1/DTD/svg11.dtd">
<svg version="1.1" xmlns="http://www.w3.org/2000/svg" xmlns:xlink="http://www.w3.org/1999/xlink" x="0px" y="0px" width="32px"
	 height="24px" viewBox="0 0 32 24" style="enable-background:new 0 0 32 24;" xml:space="preserve">
<g id="Layer_1">
</g>
<g id="loop_x5F_alt1">
	<g>
		<path style="fill:#010101;" d="M26,12l-6,6h4c0,1.102-0.898,2-2,2H10c-1.102,0-2-0.898-2-2v-2H4v2c0,3.309,2.691,6,6,6h12
			c3.309,0,6-2.691,6-6h4L26,12z"/>
		<path style="fill:#010101;" d="M22,0H10C6.691,0,4,2.691,4,6v0.062H0L6,12l6-5.938H8V6c0-1.102,0.898-2,2-2h12
			c1.102,0,2,0.898,2,2v2h4V6C28,2.691,25.309,0,22,0z"/>
	</g>
</g>
</svg>
