<?xml version="1.0" encoding="iso-8859-1"?>
<!-- Generator: Adobe Illustrator 15.1.0, SVG Export Plug-In . SVG Version: 6.00 Build 0)  -->
<!DOCTYPE svg PUBLIC "-//W3C//DTD SVG 1.1//EN" "http://www.w3.org/Graphics/SVG/1.1/DTD/svg11.dtd">
<svg version="1.1" xmlns="http://www.w3.org/2000/svg" xmlns:xlink="http://www.w3.org/1999/xlink" x="0px" y="0px" width="32px"
	 height="28px" viewBox="0 0 32 28" style="enable-background:new 0 0 32 28;" xml:space="preserve">
<g id="Layer_1">
</g>
<g id="loop_x5F_alt2">
	<g>
		<path style="fill:#010101;" d="M19.945,20l6.008-8L32,20h-4v2c0,3.309-2.691,6-6,6H10c-3.309,0-6-2.691-6-6v-2h4v2
			c0,1.102,0.898,2,2,2h12c1.102,0,2-0.898,2-2v-2H19.945z"/>
		<path style="fill:#010101;" d="M12.055,8l-6.008,8L0,8h4V6c0-3.309,2.691-6,6-6h12c3.309,0,6,2.691,6,6v2h-4V6
			c0-1.102-0.898-2-2-2H10C8.898,4,8,4.898,8,6v2H12.055z"/>
	</g>
</g>
</svg>
