<?xml version="1.0" encoding="iso-8859-1"?>
<!-- Generator: Adobe Illustrator 15.1.0, SVG Export Plug-In . SVG Version: 6.00 Build 0)  -->
<!DOCTYPE svg PUBLIC "-//W3C//DTD SVG 1.1//EN" "http://www.w3.org/Graphics/SVG/1.1/DTD/svg11.dtd">
<svg version="1.1" xmlns="http://www.w3.org/2000/svg" xmlns:xlink="http://www.w3.org/1999/xlink" x="0px" y="0px" width="32px"
	 height="32px" viewBox="0 0 32 32" style="enable-background:new 0 0 32 32;" xml:space="preserve">
<g id="Layer_1">
</g>
<g id="move">
	<g>
		<polygon style="fill:#010101;" points="18,20 18,26 22,26 16,32 10,26 14,26 14,20 		"/>
		<polygon style="fill:#010101;" points="14,12 14,6 10,6 16,0 22,6 18,6 18,12 		"/>
		<polygon style="fill:#010101;" points="12,18 6,18 6,22 0,16 6,10 6,14 12,14 		"/>
		<polygon style="fill:#010101;" points="20,14 26,14 26,10 32,16 26,22 26,18 20,18 		"/>
	</g>
</g>
</svg>
