<?xml version="1.0" encoding="iso-8859-1"?>
<!-- Generator: Adobe Illustrator 15.1.0, SVG Export Plug-In . SVG Version: 6.00 Build 0)  -->
<!DOCTYPE svg PUBLIC "-//W3C//DTD SVG 1.1//EN" "http://www.w3.org/Graphics/SVG/1.1/DTD/svg11.dtd">
<svg version="1.1" xmlns="http://www.w3.org/2000/svg" xmlns:xlink="http://www.w3.org/1999/xlink" x="0px" y="0px"
	 width="27.994px" height="31.922px" viewBox="0 0 27.994 31.922" style="enable-background:new 0 0 27.994 31.922;"
	 xml:space="preserve">
<g id="Layer_1">
</g>
<g id="paperclip">
	<path style="fill:#4E4E50;" d="M11,31.922c-2.939,0-5.701-1.148-7.777-3.227C1.145,26.617,0,23.859,0,20.918
		c0.002-2.938,1.145-5.699,3.223-7.775L14.359,2.248c2.992-2.994,8.277-3.006,11.297,0.016c3.117,3.121,3.117,8.195,0,11.312
		l-10.02,9.775c-1.93,1.93-5.102,1.934-7.051-0.016c-1.949-1.953-1.949-5.123,0-7.072l3.879-3.879l2.828,2.828l-3.879,3.879
		c-0.256,0.256-0.293,0.553-0.293,0.707s0.037,0.451,0.293,0.709c0.512,0.508,0.902,0.508,1.414,0l10.016-9.777
		c1.543-1.541,1.543-4.078-0.016-5.639c-1.512-1.512-4.145-1.512-5.656,0L6.035,15.986C4.729,17.293,4,19.049,4,20.918
		c0,1.871,0.729,3.629,2.051,4.949c2.645,2.648,7.254,2.648,9.898,0l5-5l2.828,2.828l-5,5C16.699,30.773,13.938,31.922,11,31.922z"
		/>
</g>
</svg>
