<?xml version="1.0" encoding="iso-8859-1"?>
<!-- Generator: Adobe Illustrator 15.1.0, SVG Export Plug-In . SVG Version: 6.00 Build 0)  -->
<!DOCTYPE svg PUBLIC "-//W3C//DTD SVG 1.1//EN" "http://www.w3.org/Graphics/SVG/1.1/DTD/svg11.dtd">
<svg version="1.1" xmlns="http://www.w3.org/2000/svg" xmlns:xlink="http://www.w3.org/1999/xlink" x="0px" y="0px"
	 width="31.998px" height="28px" viewBox="0 0 31.998 28" style="enable-background:new 0 0 31.998 28;" xml:space="preserve">
<g id="Layer_1">
</g>
<g id="rain">
	<g>
		<path style="fill:#010101;" d="M23.998,4c-0.375,0-0.734,0.061-1.102,0.111C21.506,1.646,18.926,0,16,0
			c-2.988,0-5.566,1.666-6.941,4.1C8.707,4.053,8.355,4,8,4c-4.41,0-8,3.588-8,8s3.59,8,8,8h15.998c4.414,0,8-3.588,8-8
			S28.412,4,23.998,4z M23.998,16H8c-2.207,0-4-1.795-4-4c0-2.193,1.941-3.885,4.004-3.945c0.008,0.943,0.172,1.869,0.5,2.744
			l3.746-1.402C12.082,8.953,12,8.482,12,8c0-2.205,1.793-4,4-4c1.293,0,2.465,0.641,3.199,1.639C17.27,7.1,16,9.395,16,12h4
			c0-2.205,1.795-4,3.998-4c2.211,0,4,1.795,4,4S26.209,16,23.998,16z"/>
		<path style="fill:#010101;" d="M3.281,27.438c-0.75,0.75-1.969,0.75-2.719,0s-0.75-1.969,0-2.719S6,22,6,22
			S4.031,26.688,3.281,27.438z"/>
		<path style="fill:#010101;" d="M11.285,27.438c-0.75,0.75-1.965,0.75-2.719,0c-0.75-0.75-0.75-1.969,0-2.719
			C9.32,23.969,14.004,22,14.004,22S12.039,26.688,11.285,27.438z"/>
		<path style="fill:#010101;" d="M19.281,27.438c-0.75,0.75-1.969,0.75-2.719,0s-0.75-1.969,0-2.719S21.998,22,21.998,22
			S20.031,26.688,19.281,27.438z"/>
	</g>
</g>
</svg>
