<?xml version="1.0" encoding="iso-8859-1"?>
<!-- Generator: Adobe Illustrator 15.1.0, SVG Export Plug-In . SVG Version: 6.00 Build 0)  -->
<!DOCTYPE svg PUBLIC "-//W3C//DTD SVG 1.1//EN" "http://www.w3.org/Graphics/SVG/1.1/DTD/svg11.dtd">
<svg version="1.1" xmlns="http://www.w3.org/2000/svg" xmlns:xlink="http://www.w3.org/1999/xlink" x="0px" y="0px"
	 width="31.998px" height="32px" viewBox="0 0 31.998 32" style="enable-background:new 0 0 31.998 32;" xml:space="preserve">
<g id="Layer_1">
</g>
<g id="share">
	<path style="fill:#010101;" d="M27.998,24c-0.969,0-1.828,0.391-2.523,0.965l-6.096-4.352C19.766,19.816,20,18.941,20,18
		c0-1.293-0.422-2.488-1.117-3.465l7.131-7.137C26.607,7.746,27.264,8,27.998,8c2.211,0,4-1.789,4-4s-1.789-4-4-4s-4,1.789-4,4
		c0,0.738,0.258,1.391,0.602,1.984l-7.131,7.137C16.484,12.418,15.297,12,14,12c-2.289,0-4.258,1.301-5.27,3.191l-4.816-1.609
		C3.719,12.684,2.957,12,2,12c-1.105,0-2,0.895-2,2s0.895,2,2,2c0.504,0,0.953-0.203,1.305-0.512l4.789,1.598
		C8.047,17.387,8,17.688,8,18c0,3.312,2.688,6,6,6c1.648,0,3.145-0.668,4.23-1.746l6.057,4.324
		c-0.172,0.445-0.289,0.918-0.289,1.422c0,2.207,1.789,4,4,4s4-1.793,4-4S30.209,24,27.998,24z"/>
</g>
</svg>
