<?xml version="1.0" encoding="iso-8859-1"?>
<!-- Generator: Adobe Illustrator 15.1.0, SVG Export Plug-In . SVG Version: 6.00 Build 0)  -->
<!DOCTYPE svg PUBLIC "-//W3C//DTD SVG 1.1//EN" "http://www.w3.org/Graphics/SVG/1.1/DTD/svg11.dtd">
<svg version="1.1" xmlns="http://www.w3.org/2000/svg" xmlns:xlink="http://www.w3.org/1999/xlink" x="0px" y="0px" width="32px"
	 height="32px" viewBox="0 0 32 32" style="enable-background:new 0 0 32 32;" xml:space="preserve">
<g id="Layer_1">
</g>
<g id="spin_x5F_alt">
	<g>
		<path style="fill:#010101;" d="M4.691,27.32C1.664,24.297,0,20.281,0,16C0,7.18,7.176,0,16,0l2,2l-2,2C9.383,4,4,9.383,4,16
			c0,3.211,1.25,6.227,3.52,8.492l-2.457,0.32L4.691,27.32L4.691,27.32z"/>
		<path style="fill:#010101;" d="M16,32l-2-1.992L16,28c6.617,0,12-5.383,12-12c0-3.203-1.25-6.219-3.523-8.488l2.461-0.324
			l0.367-2.504C30.332,7.707,32,11.727,32,16C32,24.82,24.82,32,16,32L16,32z"/>
	</g>
</g>
</svg>
