<?xml version="1.0" encoding="iso-8859-1"?>
<!-- Generator: Adobe Illustrator 15.1.0, SVG Export Plug-In . SVG Version: 6.00 Build 0)  -->
<!DOCTYPE svg PUBLIC "-//W3C//DTD SVG 1.1//EN" "http://www.w3.org/Graphics/SVG/1.1/DTD/svg11.dtd">
<svg version="1.1" xmlns="http://www.w3.org/2000/svg" xmlns:xlink="http://www.w3.org/1999/xlink" x="0px" y="0px"
	 width="31.998px" height="32px" viewBox="0 0 31.998 32" style="enable-background:new 0 0 31.998 32;" xml:space="preserve">
<g id="Layer_1">
</g>
<g id="sun_x5F_stroke">
	<g>
		<path style="fill:#010101;" d="M16,12c2.203,0,4,1.795,4,4s-1.797,4-4,4s-4-1.795-4-4S13.797,12,16,12 M16,8c-4.418,0-8,3.582-8,8
			s3.582,8,8,8s7.998-3.582,7.998-8S20.418,8,16,8L16,8z"/>
		<circle style="fill:#010101;" cx="16" cy="2" r="2"/>
		<circle style="fill:#010101;" cx="6" cy="6" r="2"/>
		<path style="fill:#010101;" d="M2,13.998c1.105,0,2,0.895,2,2c0,1.107-0.895,2-2,2s-2-0.893-2-2C0,14.893,0.895,13.998,2,13.998z"
			/>
		<circle style="fill:#010101;" cx="6" cy="26" r="2"/>
		<path style="fill:#010101;" d="M14,30c0-1.109,0.895-2,2-2c1.109,0,2,0.891,2,2c0,1.102-0.891,2-2,2C14.895,32,14,31.102,14,30z"
			/>
		<path style="fill:#010101;" d="M24.592,27.414c-0.781-0.781-0.781-2.047,0-2.828c0.789-0.781,2.047-0.781,2.828,0
			s0.789,2.047,0,2.828C26.639,28.195,25.373,28.195,24.592,27.414z"/>
		<path style="fill:#010101;" d="M29.998,17.998c-1.102,0-2-0.895-2-1.998c0-1.109,0.891-2,2-2c1.102,0,2,0.893,2,1.998
			C31.998,17.105,31.1,18,29.998,17.998z"/>
		<path style="fill:#010101;" d="M27.42,7.416c-0.781,0.779-2.047,0.779-2.828,0c-0.781-0.785-0.781-2.047,0-2.83
			c0.781-0.779,2.047-0.781,2.828,0.002C28.201,5.369,28.201,6.637,27.42,7.416z"/>
	</g>
</g>
</svg>
