<?xml version="1.0" encoding="iso-8859-1"?>
<!-- Generator: Adobe Illustrator 15.1.0, SVG Export Plug-In . SVG Version: 6.00 Build 0)  -->
<!DOCTYPE svg PUBLIC "-//W3C//DTD SVG 1.1//EN" "http://www.w3.org/Graphics/SVG/1.1/DTD/svg11.dtd">
<svg version="1.1" xmlns="http://www.w3.org/2000/svg" xmlns:xlink="http://www.w3.org/1999/xlink" x="0px" y="0px" width="32px"
	 height="32px" viewBox="0 0 32 32" style="enable-background:new 0 0 32 32;" xml:space="preserve">
<g id="Layer_1">
</g>
<g id="target">
	<g>
		<g>
			<g>
				<path style="fill:#010101;" d="M18.023,13.975h5.789c-0.734-2.836-2.953-5.057-5.789-5.789V13.975z"/>
			</g>
			<g>
				<path style="fill:#010101;" d="M18.023,18.025v5.787c2.836-0.73,5.055-2.953,5.789-5.787H18.023z"/>
			</g>
			<g>
				<path style="fill:#010101;" d="M13.973,13.975V8.186c-2.836,0.732-5.059,2.953-5.789,5.789H13.973z"/>
			</g>
			<g>
				<path style="fill:#010101;" d="M13.973,18.025H8.184c0.73,2.834,2.953,5.057,5.789,5.787V18.025z"/>
			</g>
		</g>
		<g>
			<path style="fill:#010101;" d="M18.023,4.053c5.074,0.859,9.062,4.848,9.922,9.922H32C31.074,6.664,25.336,0.924,18.023,0V4.053z
				"/>
			<path style="fill:#010101;" d="M4.051,13.975C4.91,8.9,8.898,4.912,13.973,4.053V0C6.664,0.924,0.922,6.664,0,13.975H4.051z"/>
			<path style="fill:#010101;" d="M13.973,27.945c-5.074-0.859-9.062-4.844-9.922-9.92H0C0.922,25.336,6.664,31.078,13.973,32
				V27.945z"/>
			<path style="fill:#010101;" d="M27.945,18.025c-0.859,5.076-4.848,9.061-9.922,9.92V32C25.336,31.078,31.074,25.336,32,18.025
				H27.945z"/>
		</g>
	</g>
</g>
</svg>
