<?xml version="1.0" encoding="iso-8859-1"?>
<!-- Generator: Adobe Illustrator 15.1.0, SVG Export Plug-In . SVG Version: 6.00 Build 0)  -->
<!DOCTYPE svg PUBLIC "-//W3C//DTD SVG 1.1//EN" "http://www.w3.org/Graphics/SVG/1.1/DTD/svg11.dtd">
<svg version="1.1" xmlns="http://www.w3.org/2000/svg" xmlns:xlink="http://www.w3.org/1999/xlink" x="0px" y="0px" width="24px"
	 height="32px" viewBox="0 0 24 32" style="enable-background:new 0 0 24 32;" xml:space="preserve">
<g id="Layer_1">
</g>
<g id="unlock_x5F_stroke">
	<g>
		<path style="fill:#010101;" d="M14.004,0C8.49,0,4.006,4.488,4.006,10h4c0-3.305,2.689-6,5.998-6S20,6.695,20,10v2H0v14
			c0,3.312,2.691,6,5.998,6H18c3.309,0,6-2.688,6-6V10C24,4.488,19.516,0,14.004,0z M18,28H5.998c-1.102,0-2-0.895-2-2V16H20v10
			C20,27.105,19.102,28,18,28z"/>
		<path style="fill:#010101;" d="M14,22c0,1.109-0.895,2-2,2s-2-0.891-2-2c0-1.102,0.895-2,2-2S14,20.898,14,22z"/>
	</g>
</g>
</svg>
