<?xml version="1.0" encoding="iso-8859-1"?>
<!-- Generator: Adobe Illustrator 15.1.0, SVG Export Plug-In . SVG Version: 6.00 Build 0)  -->
<!DOCTYPE svg PUBLIC "-//W3C//DTD SVG 1.1//EN" "http://www.w3.org/Graphics/SVG/1.1/DTD/svg11.dtd">
<svg version="1.1" xmlns="http://www.w3.org/2000/svg" xmlns:xlink="http://www.w3.org/1999/xlink" x="0px" y="0px" width="24px"
	 height="32px" viewBox="0 0 24 32" style="enable-background:new 0 0 24 32;" xml:space="preserve">
<g id="Layer_1">
</g>
<g id="unlock_x5F_fill">
	<path style="fill:#010101;" d="M14.004,0C8.488,0,4.008,4.484,4.008,10h3.996c0-3.309,2.688-6,6-6C17.309,4,20,6.691,20,10v2H0v14
		c0,3.309,2.695,6,6,6h12c3.305,0,6-2.691,6-6V10C24,4.484,19.512,0,14.004,0z M11.996,24c-1.102,0-2-0.895-2-2s0.898-2,2-2
		c1.109,0,2,0.895,2,2S13.105,24,11.996,24z"/>
</g>
</svg>
