<?xml version="1.0" encoding="iso-8859-1"?>
<!-- Generator: Adobe Illustrator 15.1.0, SVG Export Plug-In . SVG Version: 6.00 Build 0)  -->
<!DOCTYPE svg PUBLIC "-//W3C//DTD SVG 1.1//EN" "http://www.w3.org/Graphics/SVG/1.1/DTD/svg11.dtd">
<svg version="1.1" xmlns="http://www.w3.org/2000/svg" xmlns:xlink="http://www.w3.org/1999/xlink" x="0px" y="0px" width="32px"
	 height="24px" viewBox="0 0 32 24" style="enable-background:new 0 0 32 24;" xml:space="preserve">
<g id="Layer_1">
</g>
<g id="volume">
	<g>
		<g>
			<path style="fill:#010101;" d="M8,20c-4.418,0-8-3.582-8-8s3.582-8,8-8V20z"/>
		</g>
		<g>
			<polygon style="fill:#010101;" points="12,4 20,0 20,24 12,20 			"/>
		</g>
		<path style="fill:#010101;" d="M24.004,19.996v-4c0.332,0,0.668-0.043,1.004-0.125C26.762,15.426,28,13.832,28,12
			s-1.238-3.422-3.012-3.871c-0.316-0.078-0.652-0.121-0.984-0.121v-4c0.656,0,1.312,0.082,1.957,0.238C29.52,5.152,32,8.336,32,12
			c0,3.668-2.48,6.855-6.027,7.754C25.309,19.914,24.652,19.996,24.004,19.996L24.004,19.996z"/>
	</g>
</g>
</svg>
