<?xml version="1.0" encoding="iso-8859-1"?>
<!-- Generator: Adobe Illustrator 15.1.0, SVG Export Plug-In . SVG Version: 6.00 Build 0)  -->
<!DOCTYPE svg PUBLIC "-//W3C//DTD SVG 1.1//EN" "http://www.w3.org/Graphics/SVG/1.1/DTD/svg11.dtd">
<svg version="1.1" xmlns="http://www.w3.org/2000/svg" xmlns:xlink="http://www.w3.org/1999/xlink" x="0px" y="0px"
	 width="31.998px" height="32px" viewBox="0 0 31.998 32" style="enable-background:new 0 0 31.998 32;" xml:space="preserve">
<g id="Layer_1">
</g>
<g id="wrench">
	<path style="fill:#010101;" d="M31.607,5.643l-5.023,5.023h-5.25V5.334l4.961-4.959C25.561,0.154,24.803,0,23.998,0
		C19.582,0,16,3.584,16,8c0,1.232,0.301,2.385,0.801,3.43L0.781,27.445C0.301,27.93,0,28.594,0,29.336C0,30.805,1.191,32,2.668,32
		c0.738,0,1.406-0.297,1.883-0.781l16.023-16.018C21.615,15.697,22.771,16,23.998,16c4.422,0,8-3.584,8-8
		C31.998,7.174,31.842,6.393,31.607,5.643z"/>
</g>
</svg>
