<?xml version="1.0" standalone="no"?>
<!DOCTYPE svg PUBLIC "-//W3C//DTD SVG 1.1//EN" "http://www.w3.org/Graphics/SVG/1.1/DTD/svg11.dtd" >
<!--
2013-3-11: Created.
-->
<svg xmlns="http://www.w3.org/2000/svg">
<metadata>
Created by FontForge 20120731 at Mon Mar 11 22:44:15 2013
 By PJ Onori
2013 P.J. Onori
</metadata>
<defs>
<font id="iconic_stroke" horiz-adv-x="790" >
  <font-face 
    font-family="Iconic"
    font-weight="400"
    font-stretch="normal"
    units-per-em="1000"
    panose-1="2 0 5 3 0 0 0 0 0 0"
    ascent="800"
    descent="-200"
    bbox="14.75 18 965 782"
    underline-thickness="50"
    underline-position="-100"
    unicode-range="U+0023-E08A"
  />
    <missing-glyph />
    <glyph glyph-name="aperture" unicode="&#xe026;" 
d="M518 448l-192 325c22 4 45 7 69 7c100 0 190 -40 258 -103zM489 305l198 336c54 -66 88 -149 88 -241c0 -33 -5 -64 -13 -95h-273zM407 542h-364c42 103 128 183 235 218zM386 258h361c-42 -103 -127 -182 -233 -217zM302 495l-198 -337c-55 66 -89 150 -89 242
c0 33 5 64 13 95h274zM274 353l193 -326c-23 -4 -47 -7 -72 -7c-100 0 -189 39 -257 102z" />
    <glyph glyph-name="aperture_alt" unicode="&#xe00c;" 
d="M735 567c25 -51 40 -107 40 -167c0 -24 -3 -47 -7 -70h-270zM515 418v341c80 -27 149 -78 195 -146zM413 280h341c-27 -80 -78 -149 -146 -195zM465 501l-238 238c51 25 107 41 168 41c24 0 47 -3 70 -7v-272zM325 297l237 -237c-51 -25 -107 -40 -167 -40
c-24 0 -47 3 -70 7v270zM275 382v-341c-80 27 -149 78 -195 146zM22 470h270l-237 -237c-25 51 -40 107 -40 167c0 24 3 47 7 70zM181 714l194 -194h-339c27 79 77 148 145 194z" />
    <glyph glyph-name="arrow_down" unicode="&#x2193;" 
d="M775 400l-380 -380l-380 380l135 134l150 -150v396h190v-396l150 150z" />
    <glyph glyph-name="arrow_down_alt1" unicode="&#xe016;" 
d="M775 400c0 -210 -170 -380 -380 -380s-380 170 -380 380s170 380 380 380s380 -170 380 -380zM205 399l190 -189l189 189h-142v191h-94v-191h-143z" />
    <glyph glyph-name="arrow_down_alt2" unicode="&#xe01a;" 
d="M775 400c0 -210 -170 -380 -380 -380s-380 170 -380 380s170 380 380 380s380 -170 380 -380zM300 258l95 -96l95 96h-48v380h-94v-380h-48z" />
    <glyph glyph-name="arrow_left" unicode="&#x2190;" 
d="M395 20l-380 380l380 380l134 -135l-150 -150h396v-190h-396l150 -150z" />
    <glyph glyph-name="arrow_left_alt1" unicode="&#xe013;" 
d="M395 20c-210 0 -380 170 -380 380s170 380 380 380s380 -170 380 -380s-170 -380 -380 -380zM394 590l-189 -190l189 -189v141h191v95h-191v143z" />
    <glyph glyph-name="arrow_left_alt2" unicode="&#xe017;" 
d="M395 20c-210 0 -380 170 -380 380s170 380 380 380s380 -170 380 -380s-170 -380 -380 -380zM252 495l-94 -95l94 -95v47h380v96h-380v47z" />
    <glyph glyph-name="arrow_right" unicode="&#x2192;" 
d="M395 780l380 -380l-380 -380l-134 135l150 150h-396v190h396l-150 150z" />
    <glyph glyph-name="arrow_right_alt1" unicode="&#xe015;" 
d="M395 780c210 0 380 -170 380 -380s-170 -380 -380 -380s-380 170 -380 380s170 380 380 380zM396 210l189 190l-189 189v-141h-191v-96h191v-142z" />
    <glyph glyph-name="arrow_right_alt2" unicode="&#xe019;" 
d="M395 780c210 0 380 -170 380 -380s-170 -380 -380 -380s-380 170 -380 380s170 380 380 380zM538 305l94 95l-94 95v-47h-380v-96h380v-47z" />
    <glyph glyph-name="arrow_up" unicode="&#x2191;" 
d="M15 400l380 380l380 -380l-135 -134l-150 150v-396h-190v396l-150 -150z" />
    <glyph glyph-name="arrow_up_alt1" unicode="&#xe014;" 
d="M15 400c0 210 170 380 380 380s380 -170 380 -380s-170 -380 -380 -380s-380 170 -380 380zM585 401l-190 189l-189 -189h142v-191h94v191h143z" />
    <glyph glyph-name="arrow_up_alt2" unicode="&#xe018;" 
d="M15 400c0 210 170 380 380 380s380 -170 380 -380s-170 -380 -380 -380s-380 170 -380 380zM490 542l-95 96l-95 -96h48v-380h94v380h48z" />
    <glyph glyph-name="article" unicode="&#xe053;" 
d="M775 685h-760v95h760v-95zM490 495h-475v95h475v-95zM775 210h-760v95h760v-95zM585 20h-570v95h570v-95zM775 68c0 -26 -21 -48 -47 -48s-48 22 -48 48s22 47 48 47s47 -21 47 -47z" />
    <glyph glyph-name="at" unicode="@" 
d="M724 210h-139c-31 0 -58 16 -75 39c-32 -25 -71 -40 -115 -40c-105 0 -190 85 -190 190s85 190 190 190h190v-284h77l1 -1c11 30 17 62 17 96c0 157 -128 285 -285 285s-285 -128 -285 -285s128 -285 285 -285c79 0 149 32 201 84l68 -68c-69 -69 -164 -111 -269 -111
c-210 0 -380 170 -380 380s170 380 380 380s380 -170 380 -380c0 -69 -18 -134 -51 -190zM490 399v95h-95c-52 0 -95 -43 -95 -95s43 -95 95 -95s95 43 95 95z" />
    <glyph glyph-name="award_stroke" unicode="&#xe022;" horiz-adv-x="410" 
d="M205 305c33 0 65 6 95 17v-302l-95 95l-95 -95v302c30 -11 62 -17 95 -17zM205 780c105 0 190 -85 190 -190s-85 -190 -190 -190s-190 85 -190 190s85 190 190 190zM205 495c53 0 95 43 95 95s-42 95 -95 95s-95 -43 -95 -95s42 -95 95 -95z" />
    <glyph glyph-name="bars" unicode="&#xe06f;" 
d="M585 20v760h190v-760h-190zM300 20v570h190v-570h-190zM15 20v380h190v-380h-190z" />
    <glyph glyph-name="bars_alt" unicode="&#xe00a;" horiz-adv-x="695" 
d="M585 20v760h95v-760h-95zM395 20v570h95v-570h-95zM205 20v380h95v-380h-95zM15 20v190h95v-190h-95z" />
    <glyph glyph-name="battery_charging" unicode="&#xe05d;" horiz-adv-x="980" 
d="M846 519h119v-238h-119v-59c0 -33 -26 -60 -59 -60h-713c-33 0 -59 27 -59 60v117h190c24 -69 90 -118 167 -118v60h121v60h-121v118h118v60h-118v58c-77 0 -143 -50 -167 -119h-190v120c0 33 26 60 59 60h713c33 0 59 -27 59 -60v-59z" />
    <glyph glyph-name="battery_empty" unicode="&#xe05c;" horiz-adv-x="980" 
d="M965 519v-238h-119v-59c0 -33 -26 -60 -59 -60h-713c-33 0 -59 27 -59 60v356c0 33 26 60 59 60h713c33 0 59 -27 59 -60v-59h119zM728 281v238h-594v-238h594z" />
    <glyph glyph-name="battery_full" unicode="&#xe073;" horiz-adv-x="980" 
d="M965 519v-238h-119v-59c0 -33 -26 -60 -59 -60h-713c-33 0 -59 27 -59 60v356c0 33 26 60 59 60h713c33 0 59 -27 59 -60v-59h119z" />
    <glyph glyph-name="battery_half" unicode="&#xe05b;" horiz-adv-x="980" 
d="M965 519v-238h-119v-59c0 -33 -26 -60 -59 -60h-713c-33 0 -59 27 -59 60v356c0 33 26 60 59 60h713c33 0 59 -27 59 -60v-59h119zM728 281v238h-238v-238h238z" />
    <glyph glyph-name="beaker" unicode="&#xe023;" horiz-adv-x="410" 
d="M348 780c26 0 47 -22 47 -48v-522c0 -105 -85 -190 -190 -190s-190 85 -190 190v522c0 26 21 48 47 48h286zM252 210c26 0 48 22 48 48s-22 47 -48 47s-47 -21 -47 -47s21 -48 47 -48zM300 400v285h-190v-285h48c0 26 22 48 48 48s48 -22 48 -48h46z" />
    <glyph glyph-name="beaker_alt" unicode="&#xe010;" horiz-adv-x="410" 
d="M206 566c0 15 8 23 23 23s23 -8 23 -23s-8 -23 -23 -23s-23 8 -23 23zM15 732c0 26 21 48 47 48h286c26 0 47 -22 47 -48v-522c0 -105 -85 -190 -190 -190s-190 85 -190 190v522zM111 328c0 -13 10 -23 23 -23s24 10 24 23s-11 23 -24 23s-23 -10 -23 -23zM205 258
c0 -26 21 -48 47 -48s48 22 48 48s-22 47 -48 47s-47 -21 -47 -47zM206 448c26 0 48 -22 48 -48h46v285h-190v-285h48c0 26 22 48 48 48z" />
    <glyph glyph-name="bolt" unicode="&#x26a1;" 
d="M775 780l-333 -380l143 -95l-570 -285l333 285l-143 95z" />
    <glyph glyph-name="book" unicode="&#xe069;" horiz-adv-x="695" 
d="M110 780h570v-760h-570c-52 0 -95 42 -95 95v570c0 53 43 95 95 95zM585 115v570h-95v-192l-95 96l-95 -95v191h-95v-570h380z" />
    <glyph glyph-name="book_alt" unicode="&#xe00b;" 
d="M300 494v96h190v-96h-190zM679 589l95 -95h-95v-474h-569c-52 0 -95 42 -95 95v570c0 53 43 95 95 95h569v-95h96zM584 115v570h-379v-570h379z" />
    <glyph glyph-name="book_alt2" unicode="&#xe06a;" horiz-adv-x="899" 
d="M449 671c0 0 109 109 435 109v-651c-329 0 -435 -109 -435 -109s-105 109 -434 109v651c326 0 434 -109 434 -109zM124 671v-437c138 -12 222 -43 271 -69v437c-49 26 -133 57 -271 69zM775 234v437c-138 -12 -222 -43 -271 -69v-437c49 26 133 57 271 69z" />
    <glyph glyph-name="box" unicode="&#xe06b;" 
d="M15 20v475h760v-475h-760zM442 590v190h238l95 -190h-333zM348 780v-190h-333l95 190h238z" />
    <glyph glyph-name="brush" unicode="&#xe01b;" 
d="M395 273c0 -140 -113 -253 -253 -253c-46 0 -90 13 -127 34c76 44 127 125 127 219c0 70 56 127 126 127s127 -57 127 -127zM747 752c37 -37 37 -97 0 -134l-271 -271c-22 63 -71 112 -134 134l271 271c37 37 97 37 134 0z" />
    <glyph glyph-name="brush_alt" unicode="&#xe01c;" 
d="M300 210c0 -105 -85 -190 -190 -190c-35 0 -67 9 -95 25v1c57 33 95 94 95 164c0 53 42 95 95 95c52 0 95 -42 95 -95zM747 752c37 -37 37 -97 0 -134l-359 -359c-17 66 -68 116 -134 134l359 359c37 37 97 37 134 0z" />
    <glyph glyph-name="calendar" unicode="&#xe001;" 
d="M583 685h192v-95h-760v95h188v95h95v-95h190v95h95v-95zM110 210v95h570v-95h-570zM110 400v95h570v-95h-570zM585 20h-475v95h570z" />
    <glyph glyph-name="calendar_alt_stroke" unicode="&#xe06c;" 
d="M775 20h-760v665h95v-570h570v570h95v-665zM158 400v95h94v-95h-94zM348 400v95h94v-95h-94zM538 400v95h94v-95h-94zM158 210v95h94v-95h-94zM348 210v95h94v-95h-94zM538 210v95h94zM205 638v94c0 26 21 48 47 48s48 -22 48 -48v-94c0 -26 -22 -48 -48 -48
s-47 22 -47 48zM490 638v94c0 26 22 48 48 48s47 -22 47 -48v-94c0 -26 -21 -48 -47 -48s-48 22 -48 48z" />
    <glyph glyph-name="camera" unicode="&#xe070;" 
d="M395 305c0 63 32 95 95 95s95 -32 95 -95s-32 -95 -95 -95s-95 32 -95 95zM15 495c0 52 43 95 95 95h190l81 157c6 18 22 33 45 33h131c22 0 39 -15 45 -32l78 -158c52 0 95 -43 95 -95v-475h-760v475zM110 448c0 -26 22 -48 48 -48s47 22 47 48s-21 47 -47 47
s-48 -21 -48 -47zM300 305c0 -105 85 -190 190 -190s190 85 190 190s-85 190 -190 190s-190 -85 -190 -190z" />
    <glyph glyph-name="cd" unicode="&#xe064;" 
d="M395 780c210 0 380 -170 380 -380s-170 -380 -380 -380s-380 170 -380 380s170 380 380 380zM396 307c52 0 94 42 94 94s-42 94 -94 94s-94 -42 -94 -94s42 -94 94 -94z" />
    <glyph glyph-name="chart" unicode="&#xe028;" 
d="M341 319l-237 -237c-118 137 -118 338 0 475zM490 681c161 -24 285 -159 285 -327c0 -185 -149 -334 -334 -334c-74 0 -142 26 -197 67l246 246v348zM395 400l-273 272c76 62 169 102 273 108v-380z" />
    <glyph glyph-name="chart_alt" unicode="&#xe029;" horiz-adv-x="742" 
d="M360 319l-251 -251c-125 145 -125 357 0 502zM396 352l-307 307c85 69 190 114 307 121v-428zM443 685c161 -25 284 -161 284 -329c0 -185 -149 -336 -335 -336c-74 0 -141 25 -196 66l247 247v352z" />
    <glyph glyph-name="chat" unicode="&#xe05e;" 
d="M585 495c95 0 190 -50 190 -190c0 -137 -95 -190 -190 -190h-95c-52 0 -95 -42 -95 -95c-105 0 -190 85 -190 190v95c0 38 9 69 22 95h-22c-95 0 -190 53 -190 190c0 140 95 190 190 190h190c95 0 190 -59 190 -190v-95zM205 495h95c62 0 117 -30 152 -76
c23 17 38 45 38 76v95c0 83 -59 95 -95 95h-190c-95 0 -95 -67 -95 -95c0 -23 0 -95 95 -95zM585 210c95 0 95 71 95 95c0 28 0 95 -95 95h-26c-33 -57 -94 -95 -164 -95c0 37 -22 67 -52 83c-22 -14 -43 -40 -43 -83v-95c0 -31 15 -59 38 -76c35 46 90 76 152 76h95z
M578 448l-2 -7z" />
    <glyph glyph-name="chat_alt_stroke" unicode="&#xe007;" 
d="M632 490c77 -15 143 -69 143 -185c0 -137 -95 -190 -190 -190h-95c-53 0 -95 -42 -95 -95c-105 0 -190 85 -190 190v95c0 17 2 32 5 47h90c3 0 6 -1 9 -1c-5 -12 -9 -27 -9 -46v-95c0 -31 15 -59 38 -76c35 46 90 76 152 76h95c95 0 95 71 95 95c0 25 -1 82 -69 93
c13 28 20 59 21 92zM395 685h-190c-95 0 -95 -67 -95 -95c0 -24 0 -95 95 -95h95c62 0 117 -30 152 -76c23 17 38 45 38 76v95c0 83 -60 95 -95 95zM395 780c95 0 190 -59 190 -190v-95c0 -105 -85 -190 -190 -190c0 52 -42 95 -95 95h-95c-95 0 -190 53 -190 190
c0 140 95 190 190 190h190z" />
    <glyph glyph-name="check" unicode="&#x2717;" horiz-adv-x="980" 
d="M369 18l-354 354l169 169l185 -185l427 426l169 -169z" />
    <glyph glyph-name="check_alt" unicode="&#x2718;" 
d="M395 780c210 0 380 -170 380 -380s-170 -380 -380 -380s-380 170 -380 380s170 380 380 380zM336 225l296 295l-68 67l-228 -228l-108 108l-67 -67z" />
    <glyph glyph-name="clock" unicode="&#xe079;" 
d="M395 685c-157 0 -285 -128 -285 -285s128 -285 285 -285s285 128 285 285s-128 285 -285 285zM395 780c210 0 380 -170 380 -380s-170 -380 -380 -380s-380 170 -380 380s170 380 380 380zM524 339l-67 -67l-94 93c-10 9 -16 21 -16 35v190h95v-170z" />
    <glyph glyph-name="cloud" unicode="&#x2601;" horiz-adv-x="980" 
d="M728 578c131 0 237 -106 237 -237s-106 -238 -237 -238h-476c-131 0 -237 107 -237 238s106 237 237 237c11 0 22 -2 32 -3c41 72 117 122 206 122c87 0 164 -49 205 -122c11 1 22 3 33 3zM728 222c66 0 118 54 118 119s-52 118 -118 118s-119 -53 -119 -118h-119
c0 77 38 145 95 188c-22 30 -57 49 -95 49c-66 0 -119 -54 -119 -119c0 -14 3 -28 8 -41l-112 -42c-10 26 -14 54 -14 82c-61 -2 -119 -52 -119 -117s52 -119 118 -119h476z" />
    <glyph glyph-name="cloud_download" unicode="&#xe044;" 
d="M585 685c105 0 190 -85 190 -190s-85 -190 -190 -190h-143v-143h96l-143 -142l-143 142h96v143h-143c-105 0 -190 85 -190 190s85 190 190 190c8 0 17 -1 25 -2c33 58 94 97 165 97c69 0 131 -39 164 -98c9 1 17 3 26 3zM585 400c52 0 95 43 95 95s-43 95 -95 95
s-95 -43 -95 -95h-95c0 62 30 116 76 151c-18 24 -45 39 -76 39c-52 0 -95 -43 -95 -95c0 -11 2 -23 6 -33l-89 -34c-8 21 -12 44 -12 66c-49 -1 -95 -42 -95 -94s43 -95 95 -95h380z" />
    <glyph glyph-name="cloud_upload" unicode="&#xe045;" 
d="M585 685c105 0 190 -85 190 -190s-85 -190 -190 -190h-380c-105 0 -190 85 -190 190s85 190 190 190c8 0 17 -1 25 -2c33 58 94 97 165 97c69 0 131 -40 164 -98c9 1 17 3 26 3zM585 400c52 0 95 43 95 95s-43 95 -95 95s-95 -43 -95 -95h-95c0 62 30 116 76 151
c-18 24 -45 39 -76 39c-52 0 -95 -43 -95 -95c0 -11 2 -22 6 -33l-89 -33c-8 21 -12 43 -12 65c-49 -1 -95 -42 -95 -94s43 -95 95 -95h380zM443 162v-142h-95v142h-95l142 143l143 -143h-95z" />
    <glyph glyph-name="cog" unicode="&#x2699;" 
d="M775 353l-114 -48c-3 -9 -6 -17 -10 -26l47 -114l-67 -67l-114 46c-9 -4 -18 -8 -27 -11l-47 -113h-95l-48 112c-9 3 -18 7 -27 11l-113 -46l-67 67l45 113c-4 9 -8 18 -11 28l-112 47v95l112 48c3 10 7 19 11 28l-46 112l67 67l113 -46c9 4 19 9 28 12l47 112h95
l48 -113c9 -3 17 -7 26 -11l114 47l67 -67l-46 -114c4 -8 7 -17 10 -26l114 -48v-95zM394 258c79 0 143 63 143 142s-64 142 -143 142s-142 -63 -142 -142s63 -142 142 -142z" />
    <glyph glyph-name="comment_alt1_stroke" unicode="&#xe003;" horiz-adv-x="980" 
d="M490 638c-184 0 -298 -50 -338 -147c-34 -83 -16 -186 12 -262c67 46 127 52 267 52h393c12 35 22 79 22 119c0 115 -27 238 -356 238zM490 756c238 0 475 -59 475 -356c0 -119 -61 -238 -61 -238h-473c-178 0 -178 1 -297 -118c-119 119 -308 712 356 712z" />
    <glyph glyph-name="comment_alt2_stroke" unicode="&#xe004;" horiz-adv-x="695" 
d="M348 685c-131 0 -238 -106 -238 -237c0 -63 25 -122 69 -167l27 -28v-39v-17c15 10 30 21 45 31l41 -10c21 -5 39 -8 56 -8c131 0 237 107 237 238s-106 237 -237 237zM348 780c184 0 332 -148 332 -332s-148 -333 -332 -333c-27 0 -54 4 -79 10l-159 -105l1 194
c-59 60 -96 143 -96 234c0 184 149 332 333 332z" />
    <glyph glyph-name="comment_stroke" unicode="&#xe06d;" horiz-adv-x="899" 
d="M558 671h-272c-90 0 -162 -72 -162 -162v-272c0 -35 17 -67 43 -87c40 53 103 87 174 87h217c120 0 217 97 217 217s-97 217 -217 217zM558 780c180 0 326 -146 326 -326s-146 -325 -326 -325h-217c-60 0 -109 -49 -109 -109c-120 0 -217 97 -217 217v272
c0 150 121 271 271 271h272z" />
    <glyph glyph-name="compass" unicode="&#xe021;" 
d="M395 685c-157 0 -285 -128 -285 -285s128 -285 285 -285s285 128 285 285s-128 285 -285 285zM395 780c210 0 380 -170 380 -380s-170 -380 -380 -380s-380 170 -380 380s170 380 380 380zM445 450c-18 18 -44 24 -67 18l207 122l-122 -210c7 24 1 51 -18 70zM345 350
c19 -19 46 -24 70 -17l-210 -123l122 207c-6 -23 0 -49 18 -67z" />
    <glyph glyph-name="cursor" unicode="&#xe057;" 
d="M775 115l-95 -95l-332 333l-143 -143l-190 570l570 -190l-143 -142z" />
    <glyph glyph-name="curved_arrow" unicode="&#x2935;" horiz-adv-x="980" 
d="M846 341v-60h119l-237 -237l-238 237h119v60c0 164 -133 297 -297 297s-297 -133 -297 -297c0 229 187 415 416 415s415 -186 415 -415z" />
    <glyph glyph-name="denied" unicode="&#x26d4;" 
d="M395 780c210 0 380 -170 380 -380s-170 -380 -380 -380s-380 170 -380 380s170 380 380 380zM395 685c-157 0 -285 -128 -285 -285c0 -61 20 -118 53 -165l397 397c-47 33 -103 53 -165 53zM395 115c157 0 285 128 285 285c0 61 -20 118 -53 165l-397 -397
c47 -33 103 -53 165 -53z" />
    <glyph glyph-name="dial" unicode="&#xe058;" horiz-adv-x="794" 
d="M302 402c0 64 31 96 95 96s96 -32 96 -96s-32 -95 -96 -95s-95 31 -95 95zM619 672c0 -26 22 -48 48 -48c11 0 21 5 30 12c55 -69 82 -148 82 -234c0 -114 -52 -210 -112 -270c-61 -61 -156 -112 -270 -112c-145 0 -244 72 -308 156c-42 56 -74 134 -74 226
c0 85 27 162 81 232c9 -7 18 -10 28 -10c26 0 48 22 48 48c0 10 -4 20 -11 29c55 44 118 70 189 79c2 -24 22 -44 47 -44s45 20 47 43c69 -9 132 -34 187 -77c-8 -9 -12 -19 -12 -30zM206 402c0 -105 86 -191 191 -191s191 86 191 191c0 53 -19 98 -56 135l-135 135
l-135 -135c-37 -37 -56 -82 -56 -135z" />
    <glyph glyph-name="document_alt_stroke" unicode="&#xe000;" horiz-adv-x="600" 
d="M348 780l237 -237v-523h-570v760h333zM110 115h380v380h-190v190h-190v-570z" />
    <glyph glyph-name="document_stroke" unicode="&#xe066;" 
d="M538 780l237 -238v-522l-188 158l-190 -158l-191 158l-191 -157v759h523zM680 211v190h-285v285h-285v-475l97 77l190 -157l190 157zM490 496h190l-190 190v-190z" />
    <glyph glyph-name="download" unicode="&#xe042;" horiz-adv-x="600" 
d="M15 20v109h570v-109h-570zM395 346h95l-190 -217l-190 217h95v434h190v-434z" />
    <glyph glyph-name="eject" unicode="&#xe04b;" 
d="M15 305l380 475l380 -475h-760zM15 20v190h759v-190h-759z" />
    <glyph glyph-name="equalizer" unicode="&#xe052;" 
d="M490 305v-95h-48v-142c0 -26 -21 -48 -47 -48s-47 22 -47 48v142h-48v95h48v427c0 26 21 48 47 48s47 -22 47 -48v-427h48zM775 590v-95h-47v-427c0 -26 -22 -48 -48 -48s-48 22 -48 48v427h-47v95h47v142c0 26 22 48 48 48s48 -22 48 -48v-142h47zM205 495v-95h-47v-332
c0 -26 -22 -48 -48 -48s-48 22 -48 48v332h-47v95h47v237c0 26 22 48 48 48s48 -22 48 -48v-237h47z" />
    <glyph glyph-name="eye" unicode="&#xe025;" horiz-adv-x="980" 
d="M490 756c262 0 475 -351 475 -351l-475 -361c-262 0 -475 361 -475 361s213 351 475 351zM490 162c131 0 238 107 238 238s-107 238 -238 238s-238 -107 -238 -238s107 -238 238 -238zM371 400c0 79 40 118 119 118s119 -39 119 -118s-40 -119 -119 -119
s-119 40 -119 119z" />
    <glyph glyph-name="eyedropper" unicode="&#xe01e;" 
d="M719 455l-14 -14l69 -68l-67 -67l-69 68l-354 -354h-176l-93 95v172l355 355l-71 71l67 67l71 -71l14 14c37 37 86 56 134 56c49 0 97 -19 134 -56c74 -74 74 -194 0 -268zM260 130l311 311l-134 134l-307 -307c33 -1 66 -14 91 -39c27 -27 40 -63 39 -99z" />
    <glyph glyph-name="first" unicode="&#xe04c;" 
d="M775 20l-570 380l570 380v-760zM15 115v570h190v-570h-190z" />
    <glyph glyph-name="folder_stroke" unicode="&#xe065;" 
d="M395 685h380v-570c0 -53 -43 -95 -95 -95h-570c-53 0 -95 42 -95 95v665h380v-95zM300 685h-190v-190h570v95h-380v95zM680 115v285h-570v-285h570z" />
    <glyph glyph-name="fork" unicode="&#xe046;" horiz-adv-x="695" 
d="M490 780h95v-92c0 -63 -25 -123 -70 -168l-268 -267c-24 -25 -39 -57 -41 -91h94l-142 -142l-143 142h96c3 59 27 116 69 158l268 267c27 27 42 63 42 101v92zM584 162h96l-142 -142l-143 142h94c-3 34 -17 67 -41 91l-53 53l67 67l53 -53c42 -43 66 -99 69 -158z" />
    <glyph glyph-name="fullscreen" unicode="&#xe04e;" 
d="M666 196l109 109v-285h-285l109 109l-109 109l67 67zM300 780l-109 -109l108 -108l-67 -67l-108 108l-109 -109v285h285zM300 238l-109 -109l109 -109h-285v285l109 -109l109 109zM775 780v-285l-109 109l-108 -108l-67 67l108 108l-109 109h285z" />
    <glyph glyph-name="fullscreen_alt" unicode="&#xe04f;" 
d="M714 149l61 61v-190h-190l61 61l-156 157l67 67zM76 651l-61 -61v190h190l-61 -61l156 -157l-67 -67zM646 719l-61 61h190v-190l-61 61l-157 -156l-67 67zM300 238l-156 -157l61 -61h-190v190l61 -61l157 156z" />
    <glyph glyph-name="fullscreen_exit" unicode="&#xe050;" 
d="M599 129l-109 -109v285h285l-109 -109l109 -109l-67 -67zM15 495l109 109l-108 108l67 67l108 -108l109 109v-285h-285zM15 87l109 109l-109 109h285v-285l-109 109l-109 -109zM490 495v285l109 -109l108 108l67 -67l-108 -108l109 -109h-285z" />
    <glyph glyph-name="fullscreen_exit_alt" unicode="&#xe051;" 
d="M551 176l-61 -61v190h190l-61 -61l156 -157l-67 -67zM170 557l-155 156l67 67l156 -155l62 60l-1 -189l-189 -1zM15 87l156 157l-61 61h190v-190l-61 61l-157 -156zM681 495h-191v191l62 -62l156 156l67 -67l-156 -156z" />
    <glyph glyph-name="hash" unicode="#" horiz-adv-x="695" 
d="M680 495h-131l-23 -190h154v-95h-166l-24 -190h-95l24 190h-190l-24 -190h-95l24 190h-119v95h131l23 190h-154v95h166l24 190h95l-24 -190h190l24 190h95l-24 -190h119v-95zM431 305l23 190h-190l-23 -190h190z" />
    <glyph glyph-name="headphones" unicode="&#xe061;" horiz-adv-x="899" 
d="M829 346c30 0 55 -25 55 -55v-217c0 -30 -25 -54 -55 -54h-163v434c0 120 -97 217 -217 217s-217 -97 -217 -217v-434h-163c-30 0 -54 24 -54 54v217c0 30 24 55 54 55h55v108c0 180 145 326 325 326s326 -146 326 -326v-108h54z" />
    <glyph glyph-name="heart_stroke" unicode="&#x2764;" horiz-adv-x="899" 
d="M642 671c-55 0 -104 -58 -104 -58l-89 -94l-88 94s-50 58 -105 58c-67 0 -122 -49 -131 -113l324 -373l325 373c-9 64 -65 113 -132 113zM642 780c133 0 242 -108 242 -241v-20l-434 -499l-435 499v20c0 133 108 241 241 241c81 0 149 -42 193 -104
c44 62 112 104 193 104z" />
    <glyph glyph-name="home" unicode="&#x2302;" 
d="M395 780l380 -380h-95v-380h-570v380h-95zM585 115v341l-190 134l-190 -134v-341h143v143h94v-143h143z" />
    <glyph glyph-name="image" unicode="&#xe027;" 
d="M205 210v190l95 95l95 -95l190 190l190 -190v-190h-570zM110 115h665l-95 -95h-665v665l95 95v-665z" />
    <glyph glyph-name="info" unicode="&#x2139;" horiz-adv-x="410" 
d="M62 400h-47v95h285v-333c0 -26 22 -47 48 -47h47v-95h-380v95h47c26 0 48 21 48 47v190c0 26 -22 48 -48 48zM110 685c0 63 32 95 95 95s95 -32 95 -95s-32 -95 -95 -95s-95 32 -95 95z" />
    <glyph glyph-name="iphone" unicode="&#xe06e;" horiz-adv-x="600" 
d="M395 780c105 0 190 -85 190 -190v-380c0 -105 -85 -190 -190 -190h-190c-105 0 -190 85 -190 190v380c0 105 85 190 190 190h190zM300 66c27 0 49 22 49 49s-22 49 -49 49s-49 -22 -49 -49s22 -49 49 -49zM490 210v380c0 52 -43 95 -95 95h-190c-52 0 -95 -43 -95 -95
v-380h380z" />
    <glyph glyph-name="key_stroke" unicode="&#x26bf;" 
d="M538 685c-79 0 -143 -64 -143 -143c0 -7 1 -15 3 -25l9 -49l-297 -297v-56h95v95h95v95h95v39l68 68l49 -9c10 -2 19 -3 26 -3c79 0 142 63 142 142s-63 143 -142 143zM538 780c131 0 237 -107 237 -238s-106 -237 -237 -237c-15 0 -30 1 -44 4l-4 -4v-95h-95v-95h-95
v-95h-285v190l289 289c-3 14 -4 28 -4 43c0 131 107 238 238 238zM490 542c0 32 16 48 48 48s47 -16 47 -48s-15 -47 -47 -47s-48 15 -48 47z" />
    <glyph glyph-name="last" unicode="&#xe04d;" 
d="M15 780l570 -380l-570 -380v760zM585 115v570h190v-570h-190z" />
    <glyph glyph-name="layers" unicode="&#xe01f;" horiz-adv-x="899" 
d="M15 237l434 -108l435 108v-108l-435 -109l-434 109v108zM15 454l434 -108l435 108v-108l-435 -109l-434 109v108zM15 671l434 109l435 -109v-108l-435 -109l-434 109v108z" />
    <glyph glyph-name="layers_alt" unicode="&#xe020;" 
d="M15 210l380 -95l380 95v-95l-380 -95l-380 95v95zM15 400l380 -95l380 95v-95l-380 -95l-380 95v95zM15 590l380 -95l380 95v-95l-380 -95l-380 95v95zM15 780l380 -95l380 95v-95l-380 -95l-380 95v95z" />
    <glyph glyph-name="left_quote" unicode="&#x275d;" horiz-adv-x="980" 
d="M965 44h-356v356c0 196 160 356 356 356v-118c-131 0 -237 -107 -237 -238h237v-356zM371 44h-356v356c0 196 160 356 356 356v-118c-131 0 -237 -107 -237 -238h237v-356z" />
    <glyph glyph-name="left_quote_alt" unicode="&#xe011;" horiz-adv-x="980" 
d="M965 44h-356v356l356 356v-712zM371 44h-356v356l356 356v-712z" />
    <glyph glyph-name="lightbulb" unicode="&#xe063;" horiz-adv-x="505" 
d="M252 685c-79 0 -142 -64 -142 -143c0 -45 20 -86 56 -113c54 -41 76 -85 83 -123h7c7 38 29 82 83 123c36 27 56 68 56 113c0 79 -64 143 -143 143zM252 780c131 0 238 -107 238 -238c0 -78 -36 -147 -94 -190c-26 -20 -49 -45 -49 -81v-61h-189v61c0 36 -23 61 -49 81
c-58 43 -94 112 -94 190c0 131 106 238 237 238zM158 20v95h189v-95h-189z" />
    <glyph glyph-name="link" unicode="&#xe077;" 
d="M761 766c19 -19 19 -48 0 -67l-97 -97c61 -92 51 -218 -30 -299l-142 -142c-46 -46 -107 -70 -168 -70c-46 0 -91 14 -131 40l-97 -97c-9 -9 -22 -14 -34 -14s-24 5 -33 14c-19 19 -19 48 0 67l97 97c-61 92 -51 218 30 299l142 142c46 46 107 70 168 70
c46 0 91 -14 131 -40l97 97c19 19 48 19 67 0zM608 471c0 22 -5 42 -14 61l-72 -72c-9 -9 -22 -14 -34 -14s-24 5 -33 14c-19 19 -19 48 0 67l72 72c-19 9 -39 15 -61 15c-38 0 -74 -15 -101 -42l-142 -142c-27 -27 -42 -63 -42 -101c0 -22 6 -42 15 -61l70 71
c19 19 49 19 68 0s19 -49 0 -68l-71 -70c19 -9 39 -15 61 -15c38 0 73 15 100 42l143 143c27 27 41 62 41 100z" />
    <glyph glyph-name="list" unicode="&#xe055;" horiz-adv-x="899" 
d="M15 726c0 36 18 54 54 54s55 -18 55 -54s-19 -55 -55 -55s-54 19 -54 55zM15 509c0 36 18 54 54 54s55 -18 55 -54s-19 -55 -55 -55s-54 19 -54 55zM15 291c0 36 18 55 54 55s55 -19 55 -55s-19 -54 -55 -54s-54 18 -54 54zM15 74c0 36 18 55 54 55s55 -19 55 -55
s-19 -54 -55 -54s-54 18 -54 54zM232 671v109h652v-109h-652zM232 454v109h652v-109h-652zM232 237v109h652v-109h-652zM232 20v109h652v-109h-652z" />
    <glyph glyph-name="list_nested" unicode="&#xe056;" horiz-adv-x="899" 
d="M15 726c0 36 18 54 54 54s55 -18 55 -54s-19 -55 -55 -55s-54 19 -54 55zM232 671v109h652v-109h-652zM232 509c0 36 18 54 54 54s55 -18 55 -54s-19 -55 -55 -55s-54 19 -54 55zM449 454v109h435v-109h-435zM232 74c0 36 18 55 54 55s55 -19 55 -55s-19 -54 -55 -54
s-54 18 -54 54zM449 20v109h435v-109h-435zM449 291c0 36 19 55 55 55s54 -19 54 -55s-18 -54 -54 -54s-55 18 -55 54zM666 237v109h218v-109h-218z" />
    <glyph glyph-name="lock_stroke" unicode="&#xe075;" horiz-adv-x="600" 
d="M348 780c131 0 237 -107 237 -238v-380c0 -78 -64 -142 -143 -142h-285c-78 0 -142 64 -142 142v333h95v47c0 131 107 238 238 238zM205 542v-47h285v47c0 79 -63 143 -142 143c-78 0 -143 -64 -143 -143zM442 115c26 0 48 21 48 47v238h-380v-238c0 -26 21 -47 47 -47
h285zM348 258c0 -26 -22 -48 -48 -48s-47 22 -47 48s21 47 47 47s48 -21 48 -47z" />
    <glyph glyph-name="loop_alt1" unicode="&#xe032;" horiz-adv-x="980" 
d="M787 400l178 -178h-119c0 -98 -80 -178 -178 -178h-356c-98 0 -178 80 -178 178v59h118v-59c0 -33 27 -60 60 -60h356c33 0 60 27 60 60h-119zM668 756c98 0 178 -80 178 -178v-59h-118v59c0 33 -27 60 -60 60h-356c-33 0 -60 -27 -60 -60v-2h119l-178 -176l-178 176h119
v2c0 98 80 178 178 178h356z" />
    <glyph glyph-name="loop_alt2" unicode="&#xe033;" horiz-adv-x="899" 
d="M556 237l163 217l165 -217h-109v-54c0 -90 -73 -163 -163 -163h-326c-90 0 -162 73 -162 163v54h108v-54c0 -30 24 -54 54 -54h326c30 0 54 24 54 54v54h-110zM342 563l-163 -217l-164 217h109v54c0 90 72 163 162 163h326c90 0 163 -73 163 -163v-54h-109v54
c0 30 -24 54 -54 54h-326c-30 0 -54 -24 -54 -54v-54h110z" />
    <glyph glyph-name="loop_alt3" unicode="&#xe034;" horiz-adv-x="980" 
d="M846 400h119v-59c0 -98 -80 -179 -178 -179h-416v-118l-237 178l237 178v-119h416c33 0 59 27 59 60v59zM134 459v-59h-119v59c0 98 80 179 178 179h416v118l237 -178l-237 -178v119h-416c-33 0 -59 -27 -59 -60z" />
    <glyph glyph-name="loop_alt4" unicode="&#xe035;" horiz-adv-x="980" 
d="M846 341h119c0 -98 -80 -179 -178 -179h-535v-118l-237 178l237 178v-119h535c33 0 59 27 59 60zM193 519c-33 0 -59 -27 -59 -60h-119c0 98 80 179 178 179h535v118l237 -178l-237 -178v119h-535z" />
    <glyph glyph-name="magnifying_glass" unicode="&#xe074;" 
d="M284 311c7 -8 14 -15 22 -22l-135 -135l-22 22zM493 780c155 0 282 -127 282 -282s-127 -281 -282 -281c-37 0 -73 7 -105 20l-217 -217l-156 156l217 217c-13 32 -21 68 -21 105c0 155 127 282 282 282zM493 311c103 0 187 84 187 187s-84 187 -187 187
s-187 -84 -187 -187s84 -187 187 -187z" />
    <glyph glyph-name="mail" unicode="&#x2709;" horiz-adv-x="980" 
d="M492 416l-477 224v116h950v-116zM493 285l472 224v-465h-950v465z" />
    <glyph glyph-name="map_pin_alt" unicode="&#xe002;" horiz-adv-x="410" 
d="M205 780c105 0 190 -85 190 -190s-190 -570 -190 -570l-190 570c0 105 85 190 190 190zM205 495c52 0 95 43 95 95s-43 95 -95 95s-95 -43 -95 -95s43 -95 95 -95z" />
    <glyph glyph-name="map_pin_stroke" unicode="&#xe068;" horiz-adv-x="505" 
d="M395 542c0 78 -65 143 -143 143s-142 -65 -142 -143c0 -38 15 -73 42 -100c4 -4 52 -53 100 -129c48 76 98 125 102 129c26 26 41 62 41 100zM252 780c61 0 122 -24 168 -70c93 -93 93 -242 0 -335c0 0 -168 -165 -168 -355c0 190 -167 355 -167 355
c-93 93 -93 242 0 335c46 46 106 70 167 70zM205 542c0 32 15 48 47 48s48 -16 48 -48s-16 -47 -48 -47s-47 15 -47 47z" />
    <glyph glyph-name="mic" unicode="&#xe05f;" horiz-adv-x="600" 
d="M300 400c-53 0 -95 43 -95 95v190c0 52 42 95 95 95s95 -43 95 -95v-190c0 -52 -42 -95 -95 -95zM395 115c53 0 95 -42 95 -95h-380c0 53 42 95 95 95h47v100c-135 23 -237 139 -237 280v46c0 26 21 48 47 48s48 -22 48 -48v-46c0 -105 85 -190 190 -190s190 85 190 190
v46c0 26 22 48 48 48s47 -22 47 -48v-46c0 -141 -102 -257 -237 -280v-100h47z" />
    <glyph glyph-name="minus" unicode="&#x2796;" horiz-adv-x="980" 
d="M15 281v238h950v-238h-950z" />
    <glyph glyph-name="minus_alt" unicode="&#xe009;" 
d="M395 780c210 0 380 -170 380 -380s-170 -380 -380 -380s-380 170 -380 380s170 380 380 380zM585 352v96h-380v-96h380z" />
    <glyph glyph-name="moon_stroke" unicode="&#x263e;" 
d="M155 563c-29 -45 -45 -99 -45 -155c0 -162 131 -293 293 -293c56 0 110 16 155 45c-213 20 -383 190 -403 403zM296 780c-30 -52 -48 -111 -48 -175c0 -194 158 -352 352 -352c64 0 123 18 175 48c-47 -162 -195 -281 -372 -281c-215 0 -388 173 -388 388
c0 177 119 325 281 372z" />
    <glyph glyph-name="move" unicode="&#xe03e;" 
d="M442 305v-143h96l-143 -142l-143 142h96v143h94zM348 495v143h-96l143 142l143 -142h-96v-143h-94zM300 352h-142v-94l-143 142l143 142v-94h142v-96zM490 448h142v94l143 -142l-143 -142v94h-142v96z" />
    <glyph glyph-name="move_alt1" unicode="&#xe03f;" 
d="M395 258l47 47v-143h96l-143 -142l-143 142h96v143zM395 541l-47 -46v143h-96l143 142l143 -142h-96v-143zM252 400l48 -48h-142v-94l-143 142l143 142v-94h142zM536 400l-46 48h142v94l143 -142l-143 -142v94h-142z" />
    <glyph glyph-name="move_alt2" unicode="&#xe040;" 
d="M395 780c210 0 380 -170 380 -380s-170 -380 -380 -380s-380 170 -380 380s170 380 380 380zM538 305l94 95l-94 95v-47h-96v94h48l-95 96l-95 -96h48v-94h-96v47l-94 -95l94 -95v47h96v-94h-48l95 -96l95 96h-48v94h96v-47z" />
    <glyph glyph-name="move_horizontal" unicode="&#xe038;" horiz-adv-x="980" 
d="M371 341h-178v-119l-178 178l178 178v-119h178v-118zM609 459h178v119l178 -178l-178 -178v119h-178v118z" />
    <glyph glyph-name="move_horizontal_alt1" unicode="&#xe039;" horiz-adv-x="980" 
d="M312 400l59 -59h-178v-119l-178 178l178 178v-119h178zM666 400l-57 59h178v119l178 -178l-178 -178v119h-178z" />
    <glyph glyph-name="move_horizontal_alt2" unicode="&#xe03a;" 
d="M775 400c0 -210 -170 -380 -380 -380s-380 170 -380 380s170 380 380 380s380 -170 380 -380zM252 352h286v-47l94 95l-94 95v-47h-286v47l-94 -95l94 -95v47z" />
    <glyph glyph-name="move_vertical" unicode="&#xe03b;" horiz-adv-x="315" 
d="M205 305v-143h95l-142 -142l-143 142h95v143h95zM110 495v143h-95l143 142l142 -142h-95v-143h-95z" />
    <glyph glyph-name="move_vertical_alt1" unicode="&#xe03c;" horiz-adv-x="315" 
d="M158 258l47 47v-143h95l-142 -142l-143 142h95v143zM158 541l-48 -46v143h-95l143 142l142 -142h-95v-143z" />
    <glyph glyph-name="move_vertical_alt2" unicode="&#xe03d;" 
d="M395 780c210 0 380 -170 380 -380s-170 -380 -380 -380s-380 170 -380 380s170 380 380 380zM442 258v284h48l-95 96l-95 -96h48v-284h-48l95 -96l95 96h-48z" />
    <glyph glyph-name="movie" unicode="&#xe060;" 
d="M679 590l96 95l-93 95h93v-760h-760v760h95l96 -95l-97 -95h95l97 95l-94 95h134l95 -95l-96 -95h112l97 95l-94 95h132l93 -95l-94 -95h93zM680 116v95h-570v-95h570zM680 305v95h-570v-95h570z" />
    <glyph glyph-name="new_window" unicode="&#xe059;" 
d="M775 780v-570h-190v-190h-570v570h190v190h570zM490 115v95h-285v190h-95v-285h380zM680 305v285h-380v-285h380z" />
    <glyph glyph-name="paperclip" unicode="&#xe08a;" horiz-adv-x="696" 
d="M277 20c-70 0 -136 28 -185 77s-77 115 -77 185s28 136 77 185l265 259c71 71 197 72 269 0c74 -74 74 -195 0 -269l-239 -233c-46 -46 -122 -46 -168 0s-46 123 0 169l93 92l67 -67l-92 -93c-6 -6 -7 -12 -7 -16s1 -11 7 -17c12 -12 21 -12 33 0l239 233
c37 37 36 97 -1 134c-36 36 -98 36 -134 0l-265 -260c-31 -31 -49 -73 -49 -117c0 -45 18 -87 49 -118c63 -63 173 -63 236 0l119 119l67 -67l-119 -119c-49 -49 -115 -77 -185 -77z" />
    <glyph glyph-name="pause" unicode="&#xe049;" horiz-adv-x="600" 
d="M15 20v760h190v-760h-190zM395 20v760h190v-760h-190z" />
    <glyph glyph-name="pen" unicode="&#x270e;" 
d="M719 724c74 -74 74 -194 0 -268l-435 -436h-269l1 269l435 435c37 37 85 56 134 56s97 -19 134 -56zM244 115l408 408l-134 134l-407 -407v-40h94v-95h39z" />
    <glyph glyph-name="pen_alt2" unicode="&#xe006;" 
d="M747 752c37 -37 37 -97 0 -134l-359 -359c-8 31 -24 61 -48 85s-54 41 -86 49l359 359c37 37 97 37 134 0zM272 143l-257 -123l123 257c37 37 97 37 134 0s37 -97 0 -134z" />
    <glyph glyph-name="pen_alt_stroke" unicode="&#xe005;" 
d="M719 724c74 -74 74 -194 0 -268l-435 -436h-269l1 269l435 435c37 37 85 56 134 56s97 -19 134 -56zM244 115l407 407l-134 134l-403 -402c37 32 93 32 129 -4c37 -37 37 -98 0 -135h1z" />
    <glyph glyph-name="pilcrow" unicode="&#xb6;" horiz-adv-x="600" 
d="M585 780v-95h-95v-665h-95v665h-95v-665h-95v380c-105 0 -190 85 -190 190s85 190 190 190h380z" />
    <glyph glyph-name="pin" unicode="&#xe067;" 
d="M775 590c0 -71 -40 -133 -98 -165c1 -8 2 -16 2 -24c0 -157 -128 -285 -285 -285c-59 0 -113 18 -158 48l-221 -144l145 219c-32 46 -51 102 -51 162c0 157 128 285 285 285c9 0 17 -2 26 -3c33 58 94 97 165 97c105 0 190 -85 190 -190zM394 211c105 0 190 84 190 189
c-17 0 -33 3 -49 7l-74 -74c-37 -37 -98 -37 -135 0s-37 97 0 134l76 76c-4 15 -7 30 -7 47v1h-1c-105 0 -190 -85 -190 -190s85 -190 190 -190zM585 495c52 0 95 43 95 95s-43 95 -95 95s-95 -43 -95 -95s43 -95 95 -95z" />
    <glyph glyph-name="play" unicode="&#xe047;" horiz-adv-x="600" 
d="M15 780l570 -380l-570 -380v760z" />
    <glyph glyph-name="play_alt" unicode="&#xe048;" 
d="M395 780c210 0 380 -170 380 -380s-170 -380 -380 -380s-380 170 -380 380s170 380 380 380zM252 210l381 190l-381 190v-380z" />
    <glyph glyph-name="plus" unicode="&#x2795;" 
d="M775 495v-190h-285v-285h-190v285h-285v190h285v285h190v-285h285z" />
    <glyph glyph-name="plus_alt" unicode="&#xe008;" 
d="M395 780c210 0 380 -170 380 -380s-170 -380 -380 -380s-380 170 -380 380s170 380 380 380zM585 352v96h-143v142h-94v-142h-143v-96h143v-142h94v142h143z" />
    <glyph glyph-name="question_mark" unicode="?" horiz-adv-x="410" 
d="M148 68c0 32 16 47 48 47s47 -15 47 -47s-15 -48 -47 -48s-48 16 -48 48zM316 282c0 -65 -54 -119 -119 -119s-118 54 -118 119c0 33 11 61 34 84l159 159c19 19 28 41 28 67c0 52 -43 95 -95 95s-95 -43 -95 -95h-95c0 52 19 97 56 134c71 71 197 71 268 0
c37 -37 56 -81 56 -134c0 -52 -19 -98 -56 -135l-158 -158c-5 -5 -7 -10 -7 -17c0 -13 10 -24 23 -24s24 11 24 24h95z" />
    <glyph glyph-name="rain" unicode="&#x26c6;" horiz-adv-x="899" 
d="M666 671c120 0 218 -97 218 -217s-98 -217 -218 -217h-434c-120 0 -217 97 -217 217s97 217 217 217c10 0 19 -1 29 -2c37 66 107 111 188 111c79 0 149 -45 187 -112c10 1 20 3 30 3zM666 346c60 0 109 48 109 108s-49 109 -109 109s-108 -49 -108 -109h-109
c0 71 35 133 87 173c-20 27 -52 44 -87 44c-60 0 -108 -48 -108 -108c0 -13 2 -26 7 -38l-102 -38c-9 24 -14 48 -14 74c-56 -2 -108 -47 -108 -107s48 -108 108 -108h434zM104 35c-20 -20 -54 -20 -74 0s-20 54 0 74l148 74s-54 -128 -74 -148zM321 35
c-20 -20 -53 -20 -73 0s-20 54 0 74s147 74 147 74s-54 -128 -74 -148zM538 35c-20 -20 -53 -20 -73 0s-20 54 0 74l147 74s-54 -128 -74 -148z" />
    <glyph glyph-name="read_more" unicode="&#xe054;" 
d="M775 685h-760v95h760v-95zM490 495h-475v95h475v-95zM775 303h-760v95h760v-95zM15 68c0 32 15 47 47 47s48 -15 48 -47s-16 -48 -48 -48s-47 16 -47 48zM252 115c26 0 48 -21 48 -47s-22 -48 -48 -48c-27 0 -47 21 -47 48c0 26 21 47 47 47zM395 68c0 32 15 47 47 47
s48 -15 48 -47s-16 -48 -48 -48s-47 16 -47 48z" />
    <glyph glyph-name="reload" unicode="&#xe030;" horiz-adv-x="681" 
d="M558 346h108c0 -180 -145 -326 -325 -326s-326 146 -326 326s146 325 326 325h64l-32 32l77 77l163 -163l-163 -163l-77 77l32 31l-64 1c-120 0 -217 -97 -217 -217s97 -217 217 -217s217 97 217 217z" />
    <glyph glyph-name="reload_alt" unicode="&#xe031;" horiz-adv-x="681" 
d="M558 346h108c0 -180 -145 -326 -325 -326s-326 146 -326 326s146 325 326 325h109v109l163 -163l-163 -163v108l-109 1c-120 0 -217 -97 -217 -217s97 -217 217 -217s217 97 217 217z" />
    <glyph glyph-name="right_quote" unicode="&#x275e;" horiz-adv-x="980" 
d="M15 756h356v-356c0 -196 -160 -356 -356 -356v118c131 0 237 107 237 238h-237v356zM609 756h356v-356c0 -196 -160 -356 -356 -356v118c131 0 237 107 237 238h-237v356z" />
    <glyph glyph-name="right_quote_alt" unicode="&#xe012;" horiz-adv-x="980" 
d="M15 756h356v-356l-356 -356v712zM609 756h356v-356l-356 -356v712z" />
    <glyph glyph-name="rss" unicode="&#xe02c;" 
d="M15 115c0 63 32 95 95 95s95 -32 95 -95s-32 -95 -95 -95s-95 32 -95 95zM301 162c0 78 -65 143 -143 143v95c65 0 122 -24 168 -70s70 -102 70 -168h-95zM157 495v95c128 0 235 -57 303 -125s125 -175 125 -303h-95c0 100 -44 183 -97 236s-136 97 -236 97zM157 685v95
c185 0 339 -83 437 -181s181 -252 181 -437h-95c0 156 -70 287 -153 370s-214 153 -370 153z" />
    <glyph glyph-name="rss_alt" unicode="&#xe02d;" 
d="M775 20h-109c0 359 -292 651 -651 651v109c419 0 760 -341 760 -760zM558 20h-109c0 239 -195 434 -434 434v109c299 0 543 -244 543 -543zM341 20h-109c0 120 -97 217 -217 217v109c180 0 326 -146 326 -326zM124 20h-109v109c60 0 109 -49 109 -109z" />
    <glyph glyph-name="share" unicode="&#xe02e;" 
d="M680 210c53 0 95 -43 95 -95s-42 -95 -95 -95s-95 43 -95 95c0 12 3 23 7 34l-144 102c-26 -26 -61 -41 -100 -41c-79 0 -143 63 -143 142c0 7 1 15 2 22l-114 38c-8 -7 -19 -12 -31 -12c-26 0 -47 22 -47 48s21 47 47 47c23 0 41 -17 46 -38l114 -38c24 45 72 76 126 76
c31 0 59 -10 82 -27l169 170c-8 14 -14 29 -14 47c0 53 42 95 95 95s95 -42 95 -95s-42 -95 -95 -95c-17 0 -33 6 -47 14l-170 -169c17 -23 27 -52 27 -83c0 -22 -6 -43 -15 -62l145 -103c17 14 37 23 60 23z" />
    <glyph glyph-name="spin" unicode="&#xe036;" horiz-adv-x="695" 
d="M582 635c63 -63 98 -146 98 -235c0 -183 -149 -332 -332 -332v-48l-96 95l96 95v-48c131 0 237 107 237 238c0 64 -25 123 -70 168zM442 685l-94 -95v48c-131 0 -238 -107 -238 -238c0 -64 25 -123 70 -168l-67 -67c-63 63 -98 146 -98 235c0 183 150 332 333 332v48z
" />
    <glyph glyph-name="spin_alt" unicode="&#xe037;" 
d="M126 131c-72 72 -111 167 -111 269c0 209 170 380 380 380l47 -48l-47 -47c-157 0 -285 -128 -285 -285c0 -76 30 -148 84 -202l-59 -7zM395 20l-47 47l47 48c157 0 285 128 285 285c0 76 -30 148 -84 202l59 7l8 60c72 -72 112 -168 112 -269
c0 -209 -171 -380 -380 -380z" />
    <glyph glyph-name="star" unicode="&#x2605;" 
d="M541 314l92 -294l-238 182l-237 -182l92 295l-235 180h285l95 285l95 -285h285z" />
    <glyph glyph-name="steering_wheel" unicode="&#xe024;" 
d="M395 780c210 0 380 -170 380 -380s-170 -380 -380 -380s-380 170 -380 380s170 380 380 380zM395 685c-124 0 -229 -80 -268 -190h536c-39 110 -144 190 -268 190zM395 352c26 0 47 22 47 48s-21 48 -47 48s-47 -22 -47 -48s21 -48 47 -48zM110 400
c0 -141 103 -257 237 -280c-2 155 -107 280 -237 280zM443 120c134 23 237 139 237 280c-130 0 -235 -125 -237 -280z" />
    <glyph glyph-name="stop" unicode="&#xe04a;" 
d="M15 20v760h760v-760h-760z" />
    <glyph glyph-name="sun_stroke" unicode="&#x2600;" 
d="M395 495c-52 0 -95 -43 -95 -95s43 -95 95 -95s95 43 95 95s-43 95 -95 95zM395 590c105 0 190 -85 190 -190s-85 -190 -190 -190s-190 85 -190 190s85 190 190 190zM348 732c0 32 15 48 47 48s47 -16 47 -48s-15 -47 -47 -47s-47 15 -47 47zM110 638c0 32 16 47 48 47
s47 -15 47 -47s-15 -48 -47 -48s-48 16 -48 48zM62 448c26 0 48 -22 48 -48s-22 -47 -48 -47s-47 21 -47 47s21 48 47 48zM110 162c0 32 16 48 48 48s47 -16 47 -48s-15 -47 -47 -47s-48 15 -48 47zM348 68c0 26 21 47 47 47s47 -21 47 -47s-21 -48 -47 -48s-47 22 -47 48z
M599 129c-19 19 -19 48 0 67s48 19 67 0s19 -48 0 -67s-48 -19 -67 0zM727 353c-26 0 -47 21 -47 47s21 48 47 48s48 -22 48 -48s-22 -47 -48 -47zM666 604c-19 -19 -48 -19 -67 0s-19 48 0 67s48 19 67 0s19 -48 0 -67z" />
    <glyph glyph-name="tag_stroke" unicode="&#xe02b;" 
d="M293 575c0 -40 -33 -73 -73 -73s-74 33 -74 73s34 74 74 74s73 -34 73 -74zM15 780h315l445 -445h-315v-315l-445 445v315zM295 695h-195v-195c18 -18 187 -188 275 -276v196h196z" />
    <glyph glyph-name="target" unicode="&#xe02a;" 
d="M443 448v138c67 -17 121 -71 138 -138h-138zM443 352h138c-17 -67 -71 -121 -138 -138v138zM347 448h-138c17 67 71 121 138 138v-138zM347 352v-138c-67 17 -121 71 -138 138h138zM443 684v96c174 -22 310 -158 332 -332h-96c-20 121 -115 216 -236 236zM111 448h-96
c22 174 158 310 332 332v-96c-121 -20 -216 -115 -236 -236zM347 116v-96c-174 22 -310 158 -332 332h96c20 -121 115 -216 236 -236zM679 352h96c-22 -174 -158 -310 -332 -332v96c121 20 216 115 236 236z" />
    <glyph glyph-name="transfer" unicode="&#xe041;" horiz-adv-x="980" 
d="M965 162h-713v-118l-237 178l237 178v-119h713v-119zM15 519v119h712v118l238 -178l-238 -178v119h-712z" />
    <glyph glyph-name="trash_stroke" unicode="&#xe05a;" 
d="M775 685v-95h-95v-428c0 -79 -63 -142 -142 -142h-286c-79 0 -142 63 -142 142v428h-95v95h190c0 53 42 95 95 95h190c53 0 95 -42 95 -95h190zM585 162v428h-380v-428c0 -26 21 -47 47 -47h286c26 0 47 21 47 47zM252 258c0 32 16 47 48 47s48 -15 48 -47
s-16 -48 -48 -48s-48 16 -48 48zM252 448c0 32 16 47 48 47s48 -15 48 -47s-16 -48 -48 -48s-48 16 -48 48zM442 258c0 32 16 47 48 47s48 -15 48 -47s-16 -48 -48 -48s-48 16 -48 48zM442 448c0 32 16 47 48 47s48 -15 48 -47s-16 -48 -48 -48s-48 16 -48 48z" />
    <glyph glyph-name="umbrella" unicode="&#x2602;" 
d="M395 780c210 0 380 -170 380 -380h-95c0 20 -16 36 -36 36c-19 0 -35 -16 -35 -36h-95c0 20 -16 36 -36 36s-36 -16 -36 -36v-238c0 -79 -63 -142 -142 -142c-78 0 -142 63 -142 142h94c0 -26 22 -47 48 -47s48 21 48 47v238c0 20 -16 36 -36 36s-36 -16 -36 -36h-95
c0 20 -15 36 -35 36s-36 -16 -36 -36h-95c0 210 171 380 380 380z" />
    <glyph glyph-name="undo" unicode="&#xe02f;" horiz-adv-x="789" 
d="M683 692c59 -59 91 -138 91 -221s-32 -161 -91 -220l-71 -72l-67 68l71 71c41 41 64 95 64 153s-23 112 -64 153c-82 82 -224 83 -306 1l-129 -130h119v-95h-285v285h95v-126l133 133c118 118 322 118 440 0zM386 87l67 67l67 -67l-67 -67z" />
    <glyph glyph-name="unlock_stroke" unicode="&#xe076;" horiz-adv-x="600" 
d="M348 780c131 0 237 -107 237 -238v-380c0 -79 -64 -142 -143 -142h-285c-79 0 -142 63 -142 142v333h475v47c0 78 -63 143 -142 143s-143 -65 -143 -143h-95c0 131 107 238 238 238zM442 115c26 0 48 21 48 47v238h-380v-238c0 -26 21 -47 47 -47h285zM348 258
c0 -26 -22 -48 -48 -48s-48 22 -48 48s22 47 48 47s48 -21 48 -47z" />
    <glyph glyph-name="upload" unicode="&#xe043;" horiz-adv-x="600" 
d="M15 671v109h570v-109h-570zM205 454h-95l190 217l190 -217h-95v-434h-190v434z" />
    <glyph glyph-name="user" unicode="&#xe062;" horiz-adv-x="600" 
d="M300 400c157 0 285 -128 285 -285c0 -53 -42 -95 -95 -95h-380c-53 0 -95 42 -95 95c0 157 128 285 285 285zM158 638c0 95 47 142 142 142s142 -47 142 -142s-47 -143 -142 -143s-142 48 -142 143z" />
    <glyph glyph-name="volume" unicode="&#xe072;" horiz-adv-x="980" 
d="M252 162c-131 0 -237 107 -237 238s106 238 237 238v-476zM371 638l238 118v-712l-238 118v476zM846 400c0 62 -47 119 -118 119v118c19 0 39 -2 58 -7c106 -27 179 -121 179 -230s-74 -203 -179 -230c-20 -5 -39 -7 -58 -7v118c71 0 118 57 118 119z" />
    <glyph glyph-name="volume_mute" unicode="&#xe071;" horiz-adv-x="980" 
d="M252 162c-131 0 -237 107 -237 238s106 238 237 238v-476zM371 638l238 118v-712l-238 118v476zM965 341h-237v118h237v-118z" />
    <glyph glyph-name="wrench" unicode="&#xe078;" 
d="M766 646c6 -18 9 -36 9 -56c0 -105 -85 -190 -190 -190c-29 0 -56 7 -81 19l-381 -380c-11 -11 -27 -19 -45 -19c-35 0 -63 28 -63 63c0 18 8 33 19 45l380 381c-12 25 -19 52 -19 81c0 105 85 190 190 190c19 0 38 -4 55 -9l-118 -118v-126h124z" />
    <glyph glyph-name="x" unicode="&#x2713;" 
d="M775 172l-152 -152l-228 228l-228 -228l-152 152l228 228l-228 228l152 152l228 -228l228 228l152 -152l-228 -228z" />
    <glyph glyph-name="x_alt" unicode="&#x2714;" 
d="M395 780c210 0 380 -170 380 -380s-170 -380 -380 -380s-380 170 -380 380s170 380 380 380zM583 279l-121 121l121 121l-67 67l-121 -121l-121 121l-67 -67l121 -121l-121 -121l67 -67l121 121l121 -121z" />
  </font>
</defs>
</svg>
