<?xml version="1.0" encoding="iso-8859-1"?>
<!-- Generator: Adobe Illustrator 15.1.0, SVG Export Plug-In . SVG Version: 6.00 Build 0)  -->
<!DOCTYPE svg PUBLIC "-//W3C//DTD SVG 1.1//EN" "http://www.w3.org/Graphics/SVG/1.1/DTD/svg11.dtd">
<svg version="1.1" id="Layer_1" xmlns="http://www.w3.org/2000/svg" xmlns:xlink="http://www.w3.org/1999/xlink" x="0px" y="0px"
	 width="18.663px" height="43px" viewBox="0 0 18.663 43" style="enable-background:new 0 0 18.663 43;" xml:space="preserve">
<path style="fill:#4E4E50;" d="M9.433,35c-2.58,0-4.939-0.898-6.74-2.695c-3.59-3.594-3.59-9.445,0-13.035l8.336-7.938
	c0.461-0.465,0.727-1.102,0.727-1.785c0-0.68-0.266-1.32-0.742-1.805C10.021,6.75,8.181,6.754,7.181,7.746
	c-0.984,0.992-0.984,2.609,0.008,3.602L4.356,14.18c-2.551-2.555-2.551-6.707-0.004-9.262c2.562-2.559,6.934-2.555,9.488-0.004
	c1.242,1.238,1.922,2.887,1.922,4.637s-0.68,3.395-1.922,4.629l-8.336,7.934c-2.02,2.016-2.02,5.328,0.02,7.363
	c2.031,2.035,5.566,2.031,7.605,0c2.031-2.035,2.031-5.348,0-7.379l-1.422-1.414l4.354-4.348l2.602,2.828l-1.672,1.672
	c2.266,3.562,1.852,8.359-1.033,11.469C14.161,34.102,11.794,35,9.433,35L9.433,35z"/>
</svg>
