<?xml version="1.0" encoding="iso-8859-1"?>
<!-- Generator: Adobe Illustrator 15.1.0, SVG Export Plug-In . SVG Version: 6.00 Build 0)  -->
<!DOCTYPE svg PUBLIC "-//W3C//DTD SVG 1.1//EN" "http://www.w3.org/Graphics/SVG/1.1/DTD/svg11.dtd">
<svg version="1.1" id="Layer_1" xmlns="http://www.w3.org/2000/svg" xmlns:xlink="http://www.w3.org/1999/xlink" x="0px" y="0px"
	 width="32px" height="43px" viewBox="0 0 32 43" style="enable-background:new 0 0 32 43;" xml:space="preserve">
<g>
	<path style="fill:#4E4E50;" d="M30.309,11.973l-9.973,9.973h11.367C31.883,20.984,32,20.008,32,19
		C32,16.467,31.359,14.102,30.309,11.973z"/>
	<path style="fill:#4E4E50;" d="M21.055,18.24l8.203-8.199c-1.953-2.879-4.844-5.021-8.203-6.146V18.24z"/>
	<path style="fill:#4E4E50;" d="M16.748,24.055l8.205,8.207c2.883-1.949,5.027-4.844,6.152-8.207H16.748z"/>
	<path style="fill:#4E4E50;" d="M18.943,14.744V3.297C17.986,3.119,17.008,3,16,3c-2.555,0-4.938,0.654-7.08,1.721L18.943,14.744z"
		/>
	<path style="fill:#4E4E50;" d="M13.057,23.352v11.352C14.014,34.883,14.992,35,16,35c2.531,0,4.891-0.641,7.02-1.688L13.057,23.352
		z"/>
	<path style="fill:#4E4E50;" d="M10.943,19.773L2.75,27.965c1.949,2.875,4.838,5.016,8.193,6.141V19.773z"/>
	<path style="fill:#4E4E50;" d="M0.297,16.057C0.119,17.014,0,17.992,0,19c0,2.539,0.645,4.906,1.695,7.035l9.979-9.979H0.297z"/>
	<path style="fill:#4E4E50;" d="M6.996,5.781c-2.855,1.949-4.982,4.822-6.102,8.162h14.264L6.996,5.781z"/>
</g>
</svg>
