<?xml version="1.0" encoding="iso-8859-1"?>
<!-- Generator: Adobe Illustrator 15.1.0, SVG Export Plug-In . SVG Version: 6.00 Build 0)  -->
<!DOCTYPE svg PUBLIC "-//W3C//DTD SVG 1.1//EN" "http://www.w3.org/Graphics/SVG/1.1/DTD/svg11.dtd">
<svg version="1.1" id="Layer_1" xmlns="http://www.w3.org/2000/svg" xmlns:xlink="http://www.w3.org/1999/xlink" x="0px" y="0px"
	 width="32px" height="43px" viewBox="0 0 32 43" style="enable-background:new 0 0 32 43;" xml:space="preserve">
<g>
	<polygon style="fill:#4E4E50;" points="32,7 0,7 0,3 32,3 32,7 	"/>
	<polygon style="fill:#4E4E50;" points="20,15 0,15 0,11 20,11 20,15 	"/>
	<polygon style="fill:#4E4E50;" points="32,27 0,27 0,23 32,23 32,27 	"/>
	<polygon style="fill:#4E4E50;" points="24,35 0,35 0,31 24,31 24,35 	"/>
	<path style="fill:#4E4E50;" d="M32,33c0,1.105-0.898,2-2,2c-1.109,0-2.004-0.895-2.004-2s0.895-2,2.004-2
		C31.102,31,32,31.895,32,33z"/>
</g>
</svg>
