<?xml version="1.0" encoding="iso-8859-1"?>
<!-- Generator: Adobe Illustrator 15.1.0, SVG Export Plug-In . SVG Version: 6.00 Build 0)  -->
<!DOCTYPE svg PUBLIC "-//W3C//DTD SVG 1.1//EN" "http://www.w3.org/Graphics/SVG/1.1/DTD/svg11.dtd">
<svg version="1.1" id="Layer_1" xmlns="http://www.w3.org/2000/svg" xmlns:xlink="http://www.w3.org/1999/xlink" x="0px" y="0px"
	 width="16px" height="43px" viewBox="0 0 16 43" style="enable-background:new 0 0 16 43;" xml:space="preserve">
<g>
	<path style="fill:#4E4E50;" d="M8,23c-1.41,0-2.742-0.289-4-0.736V35l4-4l4,4V22.264C10.742,22.711,9.41,23,8,23z"/>
	<path style="fill:#4E4E50;" d="M8,3c-4.418,0-8,3.582-8,8s3.582,8,8,8s8-3.582,8-8S12.418,3,8,3z M8,15c-2.211,0-4-1.791-4-4
		s1.789-4,4-4s4,1.791,4,4S10.211,15,8,15z"/>
</g>
</svg>
