<?xml version="1.0" encoding="iso-8859-1"?>
<!-- Generator: Adobe Illustrator 15.1.0, SVG Export Plug-In . SVG Version: 6.00 Build 0)  -->
<!DOCTYPE svg PUBLIC "-//W3C//DTD SVG 1.1//EN" "http://www.w3.org/Graphics/SVG/1.1/DTD/svg11.dtd">
<svg version="1.1" id="Layer_1" xmlns="http://www.w3.org/2000/svg" xmlns:xlink="http://www.w3.org/1999/xlink" x="0px" y="0px"
	 width="32px" height="43px" viewBox="0 0 32 43" style="enable-background:new 0 0 32 43;" xml:space="preserve">
<path style="fill:#4E4E50;" d="M28,15v-2c0-1.1-0.898-2-2-2H2c-1.102,0-2,0.9-2,2v4.043h6.387c0.824-2.324,3.023-4,5.633-4V15h3.984
	v2H12.02v4h4.066v2H12.02v2.043c-2.609,0-4.809-1.676-5.633-4H0V25c0,1.102,0.898,2,2,2h24c1.102,0,2-0.898,2-2v-2h4v-8H28z"/>
</svg>
