<?xml version="1.0" encoding="iso-8859-1"?>
<!-- Generator: Adobe Illustrator 15.1.0, SVG Export Plug-In . SVG Version: 6.00 Build 0)  -->
<!DOCTYPE svg PUBLIC "-//W3C//DTD SVG 1.1//EN" "http://www.w3.org/Graphics/SVG/1.1/DTD/svg11.dtd">
<svg version="1.1" id="Layer_1" xmlns="http://www.w3.org/2000/svg" xmlns:xlink="http://www.w3.org/1999/xlink" x="0px" y="0px"
	 width="16px" height="43px" viewBox="0 0 16 43" style="enable-background:new 0 0 16 43;" xml:space="preserve">
<g>
	<circle style="fill:#4E4E50;" cx="9" cy="12" r="0.969"/>
	<path style="fill:#4E4E50;" d="M14,3H2C0.895,3,0,3.895,0,5v22c0,4.418,3.582,8,8,8s8-3.582,8-8V5C16,3.895,15.105,3,14,3z
		 M5.031,23c-0.535,0-0.969-0.434-0.969-0.969s0.434-0.969,0.969-0.969S6,21.496,6,22.031S5.566,23,5.031,23z M10,27
		c-1.105,0-2-0.895-2-2s0.895-2,2-2s2,0.895,2,2S11.105,27,10,27z M12,19h-1.945c-0.016-1.105-0.914-2-2.023-2s-2.008,0.895-2.023,2
		H4V7h8V19z"/>
</g>
</svg>
