<?xml version="1.0" encoding="iso-8859-1"?>
<!-- Generator: Adobe Illustrator 15.1.0, SVG Export Plug-In . SVG Version: 6.00 Build 0)  -->
<!DOCTYPE svg PUBLIC "-//W3C//DTD SVG 1.1//EN" "http://www.w3.org/Graphics/SVG/1.1/DTD/svg11.dtd">
<svg version="1.1" id="Layer_1" xmlns="http://www.w3.org/2000/svg" xmlns:xlink="http://www.w3.org/1999/xlink" x="0px" y="0px"
	 width="32px" height="43px" viewBox="0 0 32 43" style="enable-background:new 0 0 32 43;" xml:space="preserve">
<g>
	<path style="fill:#4E4E50;" d="M15.996,24.332c0-2.945-2.391-5.332-5.336-5.332s-5.332,2.387-5.332,5.332l0.004,0.004
		C5.328,28.281,3.184,31.723,0,33.566l0.016,0.02C1.582,34.484,3.395,35,5.332,35C11.223,35,16,30.223,16,24.332H15.996z"/>
	<g>
		<path style="fill:#4E4E50;" d="M30.828,4.172c-1.562-1.562-4.094-1.562-5.656,0L13.77,15.57c2.641,0.941,4.719,3.02,5.656,5.66
			L30.828,9.828C32.391,8.266,32.391,5.734,30.828,4.172z"/>
	</g>
</g>
</svg>
