<?xml version="1.0" encoding="iso-8859-1"?>
<!-- Generator: Adobe Illustrator 15.1.0, SVG Export Plug-In . SVG Version: 6.00 Build 0)  -->
<!DOCTYPE svg PUBLIC "-//W3C//DTD SVG 1.1//EN" "http://www.w3.org/Graphics/SVG/1.1/DTD/svg11.dtd">
<svg version="1.1" id="Layer_1" xmlns="http://www.w3.org/2000/svg" xmlns:xlink="http://www.w3.org/1999/xlink" x="0px" y="0px"
	 width="32px" height="43px" viewBox="0 0 32 43" style="enable-background:new 0 0 32 43;" xml:space="preserve">
<g>
	<path style="fill:#4E4E50;" d="M12,27c0-2.211-1.793-4-4-4c-2.211,0-4,1.789-4,4v0.008c0,2.957-1.609,5.535-4,6.918l0.016,0.012
		C1.188,34.613,2.547,35,4,35C8.418,35,12,31.418,12,27L12,27z"/>
	<path style="fill:#4E4E50;" d="M30.828,4.172c-1.562-1.562-4.094-1.562-5.656,0L10.047,19.297c2.758,0.738,4.922,2.898,5.656,5.66
		L30.828,9.828C32.391,8.266,32.391,5.734,30.828,4.172z"/>
</g>
</svg>
