<?xml version="1.0" encoding="iso-8859-1"?>
<!-- Generator: Adobe Illustrator 15.1.0, SVG Export Plug-In . SVG Version: 6.00 Build 0)  -->
<!DOCTYPE svg PUBLIC "-//W3C//DTD SVG 1.1//EN" "http://www.w3.org/Graphics/SVG/1.1/DTD/svg11.dtd">
<svg version="1.1" id="Layer_1" xmlns="http://www.w3.org/2000/svg" xmlns:xlink="http://www.w3.org/1999/xlink" x="0px" y="0px"
	 width="32px" height="43px" viewBox="0 0 32 43" style="enable-background:new 0 0 32 43;" xml:space="preserve">
<g>
	<path style="fill:#4E4E50;" d="M26,7v2.047c0,2.211-1.789,4-4,4s-4-1.789-4-4V7h-4v2.047c0,2.211-1.789,4-4,4s-4-1.789-4-4V7H0v28
		h32V7H26z M10,31H6v-4h4V31z M10,23H6v-4h4V23z M18,31h-4v-4h4V31z M18,23.008h-4v-4h4V23.008z M22,31v-4h4L22,31z M26,23h-4v-4h4
		V23z"/>
	<path style="fill:#4E4E50;" d="M8,9V5c0-1.105,0.895-2,2-2s2,0.895,2,2v4c0,1.105-0.895,2-2,2S8,10.105,8,9z"/>
	<path style="fill:#4E4E50;" d="M20,9V5c0-1.105,0.895-2,2-2s2,0.895,2,2v4c0,1.105-0.895,2-2,2S20,10.105,20,9z"/>
</g>
</svg>
