<?xml version="1.0" encoding="iso-8859-1"?>
<!-- Generator: Adobe Illustrator 15.1.0, SVG Export Plug-In . SVG Version: 6.00 Build 0)  -->
<!DOCTYPE svg PUBLIC "-//W3C//DTD SVG 1.1//EN" "http://www.w3.org/Graphics/SVG/1.1/DTD/svg11.dtd">
<svg version="1.1" id="Layer_1" xmlns="http://www.w3.org/2000/svg" xmlns:xlink="http://www.w3.org/1999/xlink" x="0px" y="0px"
	 width="32px" height="43px" viewBox="0 0 32 43" style="enable-background:new 0 0 32 43;" xml:space="preserve">
<g>
	<polygon style="fill:#4E4E50;" points="32,35 0,35 0,7 4,7 4,31 28,31 28,7 32,7 32,35 	"/>
	<rect x="6" y="15" style="fill:#4E4E50;" width="4" height="4"/>
	<rect x="14" y="15.008" style="fill:#4E4E50;" width="4" height="4"/>
	<rect x="22" y="15" style="fill:#4E4E50;" width="4" height="4"/>
	<rect x="6" y="23" style="fill:#4E4E50;" width="4" height="4"/>
	<rect x="14" y="23" style="fill:#4E4E50;" width="4" height="4"/>
	<polygon style="fill:#4E4E50;" points="22,27 22,23 26,23 	"/>
	<path style="fill:#4E4E50;" d="M8,9V5c0-1.105,0.895-2,2-2s2,0.895,2,2v4c0,1.105-0.895,2-2,2S8,10.105,8,9z"/>
	<path style="fill:#4E4E50;" d="M20,9V5c0-1.105,0.895-2,2-2s2,0.895,2,2v4c0,1.105-0.895,2-2,2S20,10.105,20,9z"/>
</g>
</svg>
