<?xml version="1.0" encoding="iso-8859-1"?>
<!-- Generator: Adobe Illustrator 15.1.0, SVG Export Plug-In . SVG Version: 6.00 Build 0)  -->
<!DOCTYPE svg PUBLIC "-//W3C//DTD SVG 1.1//EN" "http://www.w3.org/Graphics/SVG/1.1/DTD/svg11.dtd">
<svg version="1.1" id="Layer_1" xmlns="http://www.w3.org/2000/svg" xmlns:xlink="http://www.w3.org/1999/xlink" x="0px" y="0px"
	 width="32px" height="43px" viewBox="0 0 32 43" style="enable-background:new 0 0 32 43;" xml:space="preserve">
<g>
	<circle style="fill:#4E4E50;" cx="20" cy="23" r="4"/>
	<path style="fill:#4E4E50;" d="M28,11l-3.289-6.643C24.441,3.568,23.695,3,22.812,3H17.32c-0.893,0-1.646,0.582-1.904,1.385
		L12.004,11H4c-2.209,0-4,1.791-4,4v20h32V15C32,12.791,30.211,11,28,11z M6,19c-1.105,0-2-0.895-2-2s0.895-2,2-2s2,0.895,2,2
		S7.105,19,6,19z M20,31c-4.418,0-8-3.582-8-8s3.582-8,8-8s8,3.582,8,8S24.418,31,20,31z"/>
</g>
</svg>
