<?xml version="1.0" encoding="iso-8859-1"?>
<!-- Generator: Adobe Illustrator 15.1.0, SVG Export Plug-In . SVG Version: 6.00 Build 0)  -->
<!DOCTYPE svg PUBLIC "-//W3C//DTD SVG 1.1//EN" "http://www.w3.org/Graphics/SVG/1.1/DTD/svg11.dtd">
<svg version="1.1" id="Layer_1" xmlns="http://www.w3.org/2000/svg" xmlns:xlink="http://www.w3.org/1999/xlink" x="0px" y="0px"
	 width="32px" height="43px" viewBox="0 0 32 43" style="enable-background:new 0 0 32 43;" xml:space="preserve">
<g>
	<g>
		<path style="fill:#4E4E50;" d="M23.996,15c0,4.418-3.578,8-7.996,8c0-2.207-1.793-4-4-4H7.996C4,19,0,16.75,0,11
			c0-5.875,4-8,7.996-8H16c4,0,7.996,2.479,7.996,8V15z"/>
	</g>
	<path style="fill:#4E4E50;" d="M12,15"/>
	<path style="fill:#4E4E50;" d="M12,15"/>
	<g>
		<g>
			<path style="fill:#4E4E50;" d="M25.98,15.213C25.863,20.625,21.438,25,16,25h-2v-2c0-1.104-0.898-2-2-2H8.199
				c-0.125,0.619-0.203,1.281-0.203,2v4c0,4.418,3.586,8,8.004,8c0-2.211,1.793-4,4-4h3.996C28,31,32,28.75,32,23
				C32,18.107,29.215,15.84,25.98,15.213z"/>
		</g>
	</g>
</g>
</svg>
