<?xml version="1.0" encoding="iso-8859-1"?>
<!-- Generator: Adobe Illustrator 15.1.0, SVG Export Plug-In . SVG Version: 6.00 Build 0)  -->
<!DOCTYPE svg PUBLIC "-//W3C//DTD SVG 1.1//EN" "http://www.w3.org/Graphics/SVG/1.1/DTD/svg11.dtd">
<svg version="1.1" id="Layer_1" xmlns="http://www.w3.org/2000/svg" xmlns:xlink="http://www.w3.org/1999/xlink" x="0px" y="0px"
	 width="32px" height="43px" viewBox="0 0 32 43" style="enable-background:new 0 0 32 43;" xml:space="preserve">
<g>
	<g>
		<path style="fill:#4E4E50;" d="M25.977,15.213c-0.027,1.387-0.336,2.695-0.883,3.889C27.977,19.582,28,21.93,28,23
			c0,0.992,0,4-3.996,4H20c-2.605,0-4.938,1.258-6.398,3.203C12.633,29.469,12,28.305,12,27v-4c0-0.791,0.141-1.414,0.359-1.928
			C12.242,21.051,12.125,21,12,21H8.203c-0.129,0.619-0.199,1.281-0.199,2v4c0,4.418,3.578,8,7.996,8c0-2.211,1.789-4,4-4h4.004
			C28,31,32,28.75,32,23C32,18.107,29.219,15.84,25.977,15.213z"/>
	</g>
	<path style="fill:#4E4E50;" d="M16,7c1.492,0,4,0.52,4,4v4c0,1.309-0.633,2.471-1.602,3.201C16.938,16.26,14.609,15,12,15H8.004
		C4,15,4,11.99,4,11c0-1.195,0-4,4.004-4H16 M16,3H8.004C4,3,0,5.125,0,11c0,5.75,4,8,8.004,8H12c2.211,0,4,1.793,4,4
		c4.418,0,8.004-3.582,8.004-8v-4C24.004,5.479,20,3,16,3L16,3z"/>
</g>
</svg>
