<?xml version="1.0" encoding="iso-8859-1"?>
<!-- Generator: Adobe Illustrator 15.1.0, SVG Export Plug-In . SVG Version: 6.00 Build 0)  -->
<!DOCTYPE svg PUBLIC "-//W3C//DTD SVG 1.1//EN" "http://www.w3.org/Graphics/SVG/1.1/DTD/svg11.dtd">
<svg version="1.1" id="Layer_1" xmlns="http://www.w3.org/2000/svg" xmlns:xlink="http://www.w3.org/1999/xlink" x="0px" y="0px"
	 width="32px" height="43px" viewBox="0 0 32 43" style="enable-background:new 0 0 32 43;" xml:space="preserve">
<path style="fill:#4E4E50;" d="M23.996,15v-4C23.996,5.477,20,3,16,3H7.996C4,3,0,5.125,0,11c0,5.75,4,8,7.996,8h0.93
	c-0.566,1.1-0.93,2.406-0.93,4v4c0,4.418,3.586,8,8.004,8c0-2.211,1.793-4,4-4h3.996C28,31,32,28.75,32,23
	C32,17.125,28,15,23.996,15z M7.996,15C4,15,4,11.988,4,11c0-1.199,0-4,3.996-4H16c1.496,0,4,0.52,4,4v4
	c0,1.307-0.629,2.471-1.609,3.201C16.93,16.258,14.609,15,12,15H7.996z M23.996,27H20c-2.613,0-4.938,1.258-6.398,3.199
	C12.629,29.469,12,28.305,12,27v-4c0-1.83,0.91-2.941,1.816-3.512C15.098,20.156,16,21.457,16,23c2.957,0,5.508-1.621,6.895-4.004
	c-0.004,0.002-0.004,0.002-0.004,0.002L23.996,19C28,19,28,21.803,28,23C28,23.992,28,27,23.996,27z M23.719,16.994
	c-0.027,0.092-0.059,0.182-0.086,0.271C23.66,17.176,23.695,17.086,23.719,16.994z"/>
</svg>
