<?xml version="1.0" encoding="iso-8859-1"?>
<!-- Generator: Adobe Illustrator 15.1.0, SVG Export Plug-In . SVG Version: 6.00 Build 0)  -->
<!DOCTYPE svg PUBLIC "-//W3C//DTD SVG 1.1//EN" "http://www.w3.org/Graphics/SVG/1.1/DTD/svg11.dtd">
<svg version="1.1" id="Layer_1" xmlns="http://www.w3.org/2000/svg" xmlns:xlink="http://www.w3.org/1999/xlink" x="0px" y="0px"
	 width="32px" height="43px" viewBox="0 0 32 43" style="enable-background:new 0 0 32 43;" xml:space="preserve">
<g>
	<path style="fill:#4E4E50;" d="M16,7c6.617,0,12,5.383,12,12s-5.383,12-12,12S4,25.617,4,19S9.383,7,16,7 M16,3
		C7.164,3,0,10.164,0,19s7.164,16,16,16s16-7.164,16-16S24.836,3,16,3L16,3z"/>
	<path style="fill:#4E4E50;" d="M21.422,21.578L18,18.152V11h-4.023v7.992c0,0.602,0.277,1.121,0.695,1.492l3.922,3.922
		L21.422,21.578z"/>
</g>
</svg>
