<?xml version="1.0" encoding="iso-8859-1"?>
<!-- Generator: Adobe Illustrator 15.1.0, SVG Export Plug-In . SVG Version: 6.00 Build 0)  -->
<!DOCTYPE svg PUBLIC "-//W3C//DTD SVG 1.1//EN" "http://www.w3.org/Graphics/SVG/1.1/DTD/svg11.dtd">
<svg version="1.1" id="Layer_1" xmlns="http://www.w3.org/2000/svg" xmlns:xlink="http://www.w3.org/1999/xlink" x="0px" y="0px"
	 width="32px" height="43px" viewBox="0 0 32 43" style="enable-background:new 0 0 32 43;" xml:space="preserve">
<g>
	<path style="fill:#4E4E50;" d="M24,7c-0.375,0-0.738,0.062-1.102,0.109C21.504,4.648,18.926,3,16,3
		c-2.988,0-5.568,1.664-6.941,4.102C8.707,7.055,8.357,7,8,7c-4.412,0-8,3.586-8,8s3.588,8,8,8h16c4.414,0,8-3.586,8-8
		S28.414,7,24,7z M24,19H8c-2.205,0-4-1.797-4-4c0-2.195,1.943-3.883,4.004-3.945c0.008,0.945,0.172,1.867,0.5,2.742l3.746-1.398
		C12.084,11.953,12,11.484,12,11c0-2.203,1.795-4,4-4c1.295,0,2.463,0.641,3.201,1.641C17.27,10.102,16,12.395,16,15h4
		c0-2.203,1.797-4,4-4s4,1.797,4,4S26.203,19,24,19z"/>
	<g>
		<polygon style="fill:#4E4E50;" points="18.002,29 22,29 16.004,23 10.002,29 14.002,29 14.002,35 18.002,35 		"/>
	</g>
</g>
</svg>
