<?xml version="1.0" encoding="iso-8859-1"?>
<!-- Generator: Adobe Illustrator 15.1.0, SVG Export Plug-In . SVG Version: 6.00 Build 0)  -->
<!DOCTYPE svg PUBLIC "-//W3C//DTD SVG 1.1//EN" "http://www.w3.org/Graphics/SVG/1.1/DTD/svg11.dtd">
<svg version="1.1" id="Layer_1" xmlns="http://www.w3.org/2000/svg" xmlns:xlink="http://www.w3.org/1999/xlink" x="0px" y="0px"
	 width="32px" height="43px" viewBox="0 0 32 43" style="enable-background:new 0 0 32 43;" xml:space="preserve">
<path style="fill:#4E4E50;" d="M24,13c-0.379,0-0.738,0.061-1.102,0.111C21.504,10.646,18.926,9,16,9
	c-2.988,0-5.566,1.666-6.941,4.1C8.707,13.053,8.355,13,8,13c-4.41,0-8,3.588-8,8c0,4.414,3.59,8,8,8h16c4.41,0,8-3.586,8-8
	C32,16.588,28.41,13,24,13z M24,25H8c-2.207,0-4-1.795-4-4c0-2.193,1.941-3.885,4.004-3.945c0.008,0.943,0.172,1.869,0.5,2.744
	l3.746-1.402C12.082,17.953,12,17.482,12,17c0-2.205,1.793-4,4-4c1.293,0,2.465,0.641,3.199,1.639C17.27,16.1,16,18.395,16,21h4
	c0-2.205,1.793-4,4-4s4,1.795,4,4S26.207,25,24,25z"/>
</svg>
