<?xml version="1.0" encoding="iso-8859-1"?>
<!-- Generator: Adobe Illustrator 15.1.0, SVG Export Plug-In . SVG Version: 6.00 Build 0)  -->
<!DOCTYPE svg PUBLIC "-//W3C//DTD SVG 1.1//EN" "http://www.w3.org/Graphics/SVG/1.1/DTD/svg11.dtd">
<svg version="1.1" id="Layer_1" xmlns="http://www.w3.org/2000/svg" xmlns:xlink="http://www.w3.org/1999/xlink" x="0px" y="0px"
	 width="28px" height="43px" viewBox="0 0 28 43" style="enable-background:new 0 0 28 43;" xml:space="preserve">
<path style="fill:#4E4E50;" d="M14,7c5.516,0,10,4.484,10,10s-4.484,10-10,10c-0.707,0-1.473-0.105-2.34-0.316l-1.703-0.422
	L8.496,27.23l-0.457,0.301l0.004-0.684l0.008-1.652l-1.16-1.176C5.027,22.129,4,19.637,4,17C4,11.484,8.484,7,14,7 M14,3
	C6.27,3,0,9.27,0,17c0,3.832,1.547,7.297,4.043,9.828L4,35l6.703-4.434C11.766,30.828,12.859,31,14,31c7.73,0,14-6.27,14-14
	S21.73,3,14,3L14,3z"/>
</svg>
