<?xml version="1.0" encoding="iso-8859-1"?>
<!-- Generator: Adobe Illustrator 15.1.0, SVG Export Plug-In . SVG Version: 6.00 Build 0)  -->
<!DOCTYPE svg PUBLIC "-//W3C//DTD SVG 1.1//EN" "http://www.w3.org/Graphics/SVG/1.1/DTD/svg11.dtd">
<svg version="1.1" id="Layer_1" xmlns="http://www.w3.org/2000/svg" xmlns:xlink="http://www.w3.org/1999/xlink" x="0px" y="0px"
	 width="32.002px" height="43px" viewBox="0 0 32.002 43" style="enable-background:new 0 0 32.002 43;" xml:space="preserve">
<g>
	<path style="fill:#4E4E50;" d="M16.002,11c11.07,0,12,4.129,12,8c0,1.344-0.359,2.805-0.75,4H14.004c-4.703,0-6.738,0.195-9,1.758
		c-0.938-2.57-1.54-6.047-0.379-8.84C5.977,12.656,9.805,11,16.002,11 M16.002,7C-6.368,7,0.011,27,4.008,31c4-4,4-4,9.996-4h15.936
		c0,0,2.062-4,2.062-8C32.002,9,24.002,7,16.002,7L16.002,7z"/>
</g>
</svg>
