<?xml version="1.0" encoding="iso-8859-1"?>
<!-- Generator: Adobe Illustrator 15.1.0, SVG Export Plug-In . SVG Version: 6.00 Build 0)  -->
<!DOCTYPE svg PUBLIC "-//W3C//DTD SVG 1.1//EN" "http://www.w3.org/Graphics/SVG/1.1/DTD/svg11.dtd">
<svg version="1.1" id="Layer_1" xmlns="http://www.w3.org/2000/svg" xmlns:xlink="http://www.w3.org/1999/xlink" x="0px" y="0px"
	 width="32px" height="43px" viewBox="0 0 32 43" style="enable-background:new 0 0 32 43;" xml:space="preserve">
<g>
	<path style="fill:#4E4E50;" d="M16,7c6.617,0,12,5.383,12,12s-5.383,12-12,12S4,25.617,4,19S9.383,7,16,7 M16,3
		C7.164,3,0,10.164,0,19s7.164,16,16,16s16-7.164,16-16S24.836,3,16,3L16,3z"/>
	<g>
		<path style="fill:#4E4E50;" d="M18.125,16.879c0.797,0.799,1.008,1.93,0.719,2.943L24,11l-8.703,5.139
			C16.281,15.896,17.355,16.109,18.125,16.879z"/>
		<path style="fill:#4E4E50;" d="M13.883,21.121c-0.773-0.771-0.984-1.85-0.742-2.836L8,27l8.832-5.16
			C15.816,22.133,14.684,21.922,13.883,21.121z"/>
	</g>
</g>
</svg>
