<?xml version="1.0" encoding="iso-8859-1"?>
<!-- Generator: Adobe Illustrator 15.1.0, SVG Export Plug-In . SVG Version: 6.00 Build 0)  -->
<!DOCTYPE svg PUBLIC "-//W3C//DTD SVG 1.1//EN" "http://www.w3.org/Graphics/SVG/1.1/DTD/svg11.dtd">
<svg version="1.1" id="Layer_1" xmlns="http://www.w3.org/2000/svg" xmlns:xlink="http://www.w3.org/1999/xlink" x="0px" y="0px"
	 width="32px" height="43px" viewBox="0 0 32 43" style="enable-background:new 0 0 32 43;" xml:space="preserve">
<path style="fill:#4E4E50;" d="M16,3C7.164,3,0,10.164,0,19s7.164,16,16,16s16-7.164,16-16S24.836,3,16,3z M16,7
	c2.59,0,4.973,0.844,6.934,2.242L6.238,25.93C4.84,23.969,4,21.586,4,19C4,12.383,9.383,7,16,7z M16,31
	c-2.59,0-4.973-0.844-6.934-2.242L25.762,12.07C27.16,14.031,28,16.414,28,19C28,25.617,22.617,31,16,31z"/>
</svg>
