<?xml version="1.0" encoding="iso-8859-1"?>
<!-- Generator: Adobe Illustrator 15.1.0, SVG Export Plug-In . SVG Version: 6.00 Build 0)  -->
<!DOCTYPE svg PUBLIC "-//W3C//DTD SVG 1.1//EN" "http://www.w3.org/Graphics/SVG/1.1/DTD/svg11.dtd">
<svg version="1.1" id="Layer_1" xmlns="http://www.w3.org/2000/svg" xmlns:xlink="http://www.w3.org/1999/xlink" x="0px" y="0px"
	 width="28px" height="43px" viewBox="0 0 28 43" style="enable-background:new 0 0 28 43;" xml:space="preserve">
<g>
	<path style="fill:#4E4E50;" d="M20,3v3.875c0,1.602-0.625,3.109-1.754,4.238L6.93,22.367C5.141,24.152,4.156,26.496,4.047,29H0l6,6
		l6-6H8.043c0.105-1.438,0.684-2.773,1.711-3.805l11.316-11.25C22.961,12.055,24,9.547,24,6.875V3H20z"/>
	<path style="fill:#4E4E50;" d="M23.953,29c-0.109-2.504-1.098-4.848-2.887-6.641l-2.23-2.215L16,22.965l2.242,2.23
		c1.031,1.027,1.609,2.367,1.715,3.805H16l6,6l6-6H23.953z"/>
</g>
</svg>
