<?xml version="1.0" encoding="iso-8859-1"?>
<!-- Generator: Adobe Illustrator 15.1.0, SVG Export Plug-In . SVG Version: 6.00 Build 0)  -->
<!DOCTYPE svg PUBLIC "-//W3C//DTD SVG 1.1//EN" "http://www.w3.org/Graphics/SVG/1.1/DTD/svg11.dtd">
<svg version="1.1" id="Layer_1" xmlns="http://www.w3.org/2000/svg" xmlns:xlink="http://www.w3.org/1999/xlink" x="0px" y="0px"
	 width="32px" height="43px" viewBox="0 0 32 43" style="enable-background:new 0 0 32 43;" xml:space="preserve">
<g>
	<polygon style="fill:#4E4E50;" points="29.414,29.586 22.828,23 20,25.828 26.586,32.414 24,35 32,35 32,27 	"/>
	<polygon style="fill:#4E4E50;" points="2.586,8.414 9.172,15 12,12.172 5.414,5.586 8,3 0,3 0,11 	"/>
	<polygon style="fill:#4E4E50;" points="26.586,5.586 20,12.172 22.828,15 29.414,8.414 32,11 32,3 24,3 	"/>
	<polygon style="fill:#4E4E50;" points="12,25.828 9.172,23 2.586,29.586 0,27 0,35 8,35 5.414,32.414 	"/>
</g>
</svg>
