<?xml version="1.0" encoding="iso-8859-1"?>
<!-- Generator: Adobe Illustrator 15.1.0, SVG Export Plug-In . SVG Version: 6.00 Build 0)  -->
<!DOCTYPE svg PUBLIC "-//W3C//DTD SVG 1.1//EN" "http://www.w3.org/Graphics/SVG/1.1/DTD/svg11.dtd">
<svg version="1.1" id="Layer_1" xmlns="http://www.w3.org/2000/svg" xmlns:xlink="http://www.w3.org/1999/xlink" x="0px" y="0px"
	 width="32px" height="43px" viewBox="0 0 32 43" style="enable-background:new 0 0 32 43;" xml:space="preserve">
<g>
	<polygon style="fill:#4E4E50;" points="24.586,30.414 29.172,35 32,32.172 27.414,27.586 32,23 20,23 20,35 	"/>
	<polygon style="fill:#4E4E50;" points="0,15 12,15 12,3 7.414,7.586 2.875,3.043 0.047,5.871 4.586,10.414 	"/>
	<polygon style="fill:#4E4E50;" points="0,32.172 2.828,35 7.414,30.414 12,35 12,23 0,23 4.586,27.586 	"/>
	<polygon style="fill:#4E4E50;" points="20,15 32,15 27.414,10.414 31.961,5.871 29.133,3.043 24.586,7.586 20,3 	"/>
</g>
</svg>
