<?xml version="1.0" encoding="iso-8859-1"?>
<!-- Generator: Adobe Illustrator 15.1.0, SVG Export Plug-In . SVG Version: 6.00 Build 0)  -->
<!DOCTYPE svg PUBLIC "-//W3C//DTD SVG 1.1//EN" "http://www.w3.org/Graphics/SVG/1.1/DTD/svg11.dtd">
<svg version="1.1" id="Layer_1" xmlns="http://www.w3.org/2000/svg" xmlns:xlink="http://www.w3.org/1999/xlink" x="0px" y="0px"
	 width="32px" height="43px" viewBox="0 0 32 43" style="enable-background:new 0 0 32 43;" xml:space="preserve">
<g>
	<polygon style="fill:#4E4E50;" points="22.586,28.414 29.172,35 32,32.172 25.414,25.586 28,23 20,23 20,31 	"/>
	<polygon style="fill:#4E4E50;" points="6.547,12.371 4,15 11.961,14.957 12,7 9.375,9.543 2.828,3 0,5.828 	"/>
	<polygon style="fill:#4E4E50;" points="0,32.172 2.828,35 9.414,28.414 12,31 12,23 4,23 6.586,25.586 	"/>
	<polygon style="fill:#4E4E50;" points="28.031,15 25.438,12.404 32,5.838 29.164,3 22.598,9.566 20,6.971 20,15 	"/>
</g>
</svg>
