<?xml version="1.0" encoding="iso-8859-1"?>
<!-- Generator: Adobe Illustrator 15.1.0, SVG Export Plug-In . SVG Version: 6.00 Build 0)  -->
<!DOCTYPE svg PUBLIC "-//W3C//DTD SVG 1.1//EN" "http://www.w3.org/Graphics/SVG/1.1/DTD/svg11.dtd">
<svg version="1.1" id="Layer_1" xmlns="http://www.w3.org/2000/svg" xmlns:xlink="http://www.w3.org/1999/xlink" x="0px" y="0px"
	 width="32px" height="43px" viewBox="0 0 32 43" style="enable-background:new 0 0 32 43;" xml:space="preserve">
<g>
	<path style="fill:#4E4E50;" d="M23.113,9c2.457,0,4.492,1.82,4.836,4.188L16.004,26.906L4.051,13.188C4.395,10.82,6.43,9,8.887,9
		c2.016,0,3.855,2.164,3.855,2.164L16,14.625l3.258-3.461C19.258,11.164,21.098,9,23.113,9 M23.113,5
		c-2.984,0-5.5,1.578-7.113,3.844C14.387,6.578,11.871,5,8.887,5C3.984,5,0,8.992,0,13.891v0.734L16.008,33L32,14.625v-0.734
		C32,8.992,28.016,5,23.113,5L23.113,5z"/>
</g>
</svg>
