<?xml version="1.0" encoding="iso-8859-1"?>
<!-- Generator: Adobe Illustrator 15.1.0, SVG Export Plug-In . SVG Version: 6.00 Build 0)  -->
<!DOCTYPE svg PUBLIC "-//W3C//DTD SVG 1.1//EN" "http://www.w3.org/Graphics/SVG/1.1/DTD/svg11.dtd">
<svg version="1.1" id="Layer_1" xmlns="http://www.w3.org/2000/svg" xmlns:xlink="http://www.w3.org/1999/xlink" x="0px" y="0px"
	 width="24px" height="43px" viewBox="0 0 24 43" style="enable-background:new 0 0 24 43;" xml:space="preserve">
<path style="fill:#4E4E50;" d="M16,3H8c-4.418,0-8,3.582-8,8v16c0,4.418,3.582,8,8,8h8c4.418,0,8-3.582,8-8V11
	C24,6.582,20.418,3,16,3z M12,33.062c-1.139,0-2.062-0.922-2.062-2.062s0.924-2.062,2.062-2.062s2.062,0.922,2.062,2.062
	S13.139,33.062,12,33.062z M20,27H4V11c0-2.203,1.795-4,4-4h8c2.203,0,4,1.797,4,4V27z"/>
</svg>
