<?xml version="1.0" encoding="iso-8859-1"?>
<!-- Generator: Adobe Illustrator 15.1.0, SVG Export Plug-In . SVG Version: 6.00 Build 0)  -->
<!DOCTYPE svg PUBLIC "-//W3C//DTD SVG 1.1//EN" "http://www.w3.org/Graphics/SVG/1.1/DTD/svg11.dtd">
<svg version="1.1" id="Layer_1" xmlns="http://www.w3.org/2000/svg" xmlns:xlink="http://www.w3.org/1999/xlink" x="0px" y="0px"
	 width="32px" height="43px" viewBox="0 0 32 43" style="enable-background:new 0 0 32 43;" xml:space="preserve">
<g>
	<g>
		<path style="fill:#4E4E50;" d="M22,3c-5.523,0-10,4.477-10,10c0,0.625,0.074,1.227,0.184,1.816L0,27v8h12v-4h4v-4h4v-4
			l0.184-0.184C20.773,22.926,21.375,23,22,23c5.523,0,10-4.477,10-10S27.523,3,22,3z M22.008,15c-1.105,0-2-0.895-2-2s0.895-2,2-2
			s2,0.895,2,2S23.113,15,22.008,15z"/>
	</g>
</g>
</svg>
