<?xml version="1.0" encoding="iso-8859-1"?>
<!-- Generator: Adobe Illustrator 15.1.0, SVG Export Plug-In . SVG Version: 6.00 Build 0)  -->
<!DOCTYPE svg PUBLIC "-//W3C//DTD SVG 1.1//EN" "http://www.w3.org/Graphics/SVG/1.1/DTD/svg11.dtd">
<svg version="1.1" id="Layer_1" xmlns="http://www.w3.org/2000/svg" xmlns:xlink="http://www.w3.org/1999/xlink" x="0px" y="0px"
	 width="32px" height="43px" viewBox="0 0 32 43" style="enable-background:new 0 0 32 43;" xml:space="preserve">
<g>
	<path style="fill:#4E4E50;" d="M22,7c3.309,0,6,2.691,6,6s-2.691,6-6,6c-0.312,0-0.656-0.039-1.086-0.117l-2.07-0.383l-1.488,1.488
		l-0.184,0.184L16,21.344V23h-4v4H8v4H4v-2.344l11.012-11.012l1.488-1.488l-0.383-2.07C16.037,13.656,16,13.312,16,13
		C16,9.691,18.691,7,22,7 M22,3c-5.523,0-10,4.477-10,10c0,0.625,0.074,1.227,0.184,1.816L0,27v8h12v-4h4v-4h4v-4l0.184-0.184
		C20.773,22.926,21.375,23,22,23c5.523,0,10-4.477,10-10S27.523,3,22,3L22,3z"/>
	<circle style="fill:#4E4E50;" cx="22.008" cy="13" r="2"/>
</g>
</svg>
