<?xml version="1.0" encoding="iso-8859-1"?>
<!-- Generator: Adobe Illustrator 15.1.0, SVG Export Plug-In . SVG Version: 6.00 Build 0)  -->
<!DOCTYPE svg PUBLIC "-//W3C//DTD SVG 1.1//EN" "http://www.w3.org/Graphics/SVG/1.1/DTD/svg11.dtd">
<svg version="1.1" id="Layer_1" xmlns="http://www.w3.org/2000/svg" xmlns:xlink="http://www.w3.org/1999/xlink" x="0px" y="0px"
	 width="20px" height="43px" viewBox="0 0 20 43" style="enable-background:new 0 0 20 43;" xml:space="preserve">
<g>
	<path style="fill:#4E4E50;" d="M10,7.008c3.311,0,6,2.699,6,6.016c0,1.895-0.863,3.637-2.373,4.773
		c-2.258,1.707-3.17,3.594-3.484,5.18H9.857c-0.312-1.586-1.227-3.473-3.484-5.18c-1.508-1.137-2.375-2.879-2.375-4.773
		C3.998,9.707,6.689,7.008,10,7.008 M10,3C4.477,3,0,7.488,0,13.023C0,16.305,1.545,19.172,3.969,21
		c1.115,0.844,2.035,1.93,2.035,3.43v2.555h7.994V24.43c0-1.5,0.92-2.586,2.033-3.43C18.457,19.172,20,16.305,20,13.023
		C20,7.488,15.523,3,10,3L10,3z"/>
	<rect x="6.004" y="30.992" style="fill:#4E4E50;" width="7.994" height="4.008"/>
</g>
</svg>
