<?xml version="1.0" encoding="iso-8859-1"?>
<!-- Generator: Adobe Illustrator 15.1.0, SVG Export Plug-In . SVG Version: 6.00 Build 0)  -->
<!DOCTYPE svg PUBLIC "-//W3C//DTD SVG 1.1//EN" "http://www.w3.org/Graphics/SVG/1.1/DTD/svg11.dtd">
<svg version="1.1" id="Layer_1" xmlns="http://www.w3.org/2000/svg" xmlns:xlink="http://www.w3.org/1999/xlink" x="0px" y="0px"
	 width="32px" height="43px" viewBox="0 0 32 43" style="enable-background:new 0 0 32 43;" xml:space="preserve">
<g>
	<path style="fill:#4E4E50;" d="M31.414,3.586c-0.781-0.781-2.059-0.781-2.84,0l-4.07,4.074C22.836,6.551,20.922,6,19,6
		c-2.559,0-5.201,0.977-7.07,2.93l-6,6c-3.422,3.418-3.844,8.703-1.273,12.582l-4.07,4.074c-0.781,0.781-0.781,2.047,0,2.828
		C0.977,34.805,1.488,35,2,35s1.023-0.195,1.414-0.586l4.07-4.074C9.152,31.449,11.078,32,13,32c2.475,0,5.117-0.977,7.07-2.93
		l5.988-6c3.422-3.418,3.844-8.703,1.273-12.582l4.082-4.074C32.195,5.633,32.195,4.367,31.414,3.586z M24.988,16
		c0,1.602-0.625,3.109-1.758,4.242l-5.988,6C16.105,27.375,14.518,28,13,28c-0.906,0-1.773-0.223-2.57-0.602l2.9-2.984
		c0.781-0.781,0.781-2.047,0-2.828c-0.697-0.781-1.963-0.781-2.744,0L7.602,24.57C7.219,23.777,7,22.91,7,22
		c0-1.602,0.625-3.109,1.758-4.242l5.916-6C15.807,10.625,17.398,10,19,10c0.906,0,1.77,0.223,2.566,0.602l-3.043,3.047
		c-0.781,0.781-0.781,2.047,0,2.828c0.391,0.391,0.902,0.586,1.414,0.586c0.508,0,1.02-0.195,1.41-0.586l3.039-3.047
		C24.77,14.223,24.988,15.09,24.988,16z"/>
</g>
</svg>
