<?xml version="1.0" encoding="iso-8859-1"?>
<!-- Generator: Adobe Illustrator 15.1.0, SVG Export Plug-In . SVG Version: 6.00 Build 0)  -->
<!DOCTYPE svg PUBLIC "-//W3C//DTD SVG 1.1//EN" "http://www.w3.org/Graphics/SVG/1.1/DTD/svg11.dtd">
<svg version="1.1" id="Layer_1" xmlns="http://www.w3.org/2000/svg" xmlns:xlink="http://www.w3.org/1999/xlink" x="0px" y="0px"
	 width="24px" height="43px" viewBox="0 0 24 43" style="enable-background:new 0 0 24 43;" xml:space="preserve">
<path style="fill:#4E4E50;" d="M14,3C8.492,3,4.004,7.484,4.004,13v2H0v14c0,3.309,2.691,6,6,6h12c3.309,0,6-2.691,6-6V13
	C24,7.484,19.512,3,14,3z M11.996,27C10.895,27,10,26.105,10,25s0.895-2,1.996-2c1.105,0,2,0.895,2,2S13.102,27,11.996,27z M20,15
	H8.004v-2c0-3.309,2.691-6,5.996-6c3.309,0,6,2.691,6,6V15z"/>
</svg>
