<?xml version="1.0" encoding="iso-8859-1"?>
<!-- Generator: Adobe Illustrator 15.1.0, SVG Export Plug-In . SVG Version: 6.00 Build 0)  -->
<!DOCTYPE svg PUBLIC "-//W3C//DTD SVG 1.1//EN" "http://www.w3.org/Graphics/SVG/1.1/DTD/svg11.dtd">
<svg version="1.1" id="Layer_1" xmlns="http://www.w3.org/2000/svg" xmlns:xlink="http://www.w3.org/1999/xlink" x="0px" y="0px"
	 width="24px" height="43px" viewBox="0 0 24 43" style="enable-background:new 0 0 24 43;" xml:space="preserve">
<g>
	<path style="fill:#4E4E50;" d="M14.004,3c-5.51,0-9.998,4.484-9.998,10v2H0v14c0,3.305,2.695,6,5.998,6H18c3.312,0,6-2.695,6-6V13
		C24,7.484,19.516,3,14.004,3z M8.006,13c0-3.312,2.693-6,5.998-6C17.312,7,20,9.688,20,13v2H8.006V13z M18,31H5.998
		c-1.102,0-2-0.898-2-2V19H20v10C20,30.102,19.109,31,18,31z"/>
	<path style="fill:#4E4E50;" d="M14.004,25c0,1.102-0.898,2-2,2c-1.109,0-2-0.898-2-2c0-1.109,0.891-2,2-2
		C13.105,23,14.004,23.891,14.004,25z"/>
</g>
</svg>
