<?xml version="1.0" encoding="iso-8859-1"?>
<!-- Generator: Adobe Illustrator 15.1.0, SVG Export Plug-In . SVG Version: 6.00 Build 0)  -->
<!DOCTYPE svg PUBLIC "-//W3C//DTD SVG 1.1//EN" "http://www.w3.org/Graphics/SVG/1.1/DTD/svg11.dtd">
<svg version="1.1" id="Layer_1" xmlns="http://www.w3.org/2000/svg" xmlns:xlink="http://www.w3.org/1999/xlink" x="0px" y="0px"
	 width="32px" height="43px" viewBox="0 0 32 43" style="enable-background:new 0 0 32 43;" xml:space="preserve">
<g>
	<path style="fill:#4E4E50;" d="M26,19l-6,6h4c0,1.102-0.898,2-2,2H10c-1.102,0-2-0.898-2-2v-2H4v2c0,3.309,2.691,6,6,6h12
		c3.309,0,6-2.691,6-6h4L26,19z"/>
	<path style="fill:#4E4E50;" d="M22,7H10c-3.309,0-6,2.691-6,6v0.062H0L6,19l6-5.938H8V13c0-1.102,0.898-2,2-2h12
		c1.102,0,2,0.898,2,2v2h4v-2C28,9.691,25.309,7,22,7z"/>
</g>
</svg>
