<?xml version="1.0" encoding="iso-8859-1"?>
<!-- Generator: Adobe Illustrator 15.1.0, SVG Export Plug-In . SVG Version: 6.00 Build 0)  -->
<!DOCTYPE svg PUBLIC "-//W3C//DTD SVG 1.1//EN" "http://www.w3.org/Graphics/SVG/1.1/DTD/svg11.dtd">
<svg version="1.1" id="Layer_1" xmlns="http://www.w3.org/2000/svg" xmlns:xlink="http://www.w3.org/1999/xlink" x="0px" y="0px"
	 width="32px" height="43px" viewBox="0 0 32 43" style="enable-background:new 0 0 32 43;" xml:space="preserve">
<g>
	<path style="fill:#4E4E50;" d="M9.805,6.677L4,12.479V6.841H0V18.84h12v-4H7.299l5.334-5.334c3.389-3.392,9.309-3.392,12.703,0
		l2.828-2.829C23.262,1.771,14.707,1.778,9.805,6.677z"/>
	<path style="fill:#4E4E50;" d="M20,19.035v4h4.703l-5.336,5.34c-3.389,3.391-9.309,3.391-12.701,0l-2.83,2.82
		C6.287,33.648,9.551,35,13.02,35c3.471,0,6.727-1.352,9.176-3.805L28,25.395v5.637h4V19.035H20z"/>
</g>
</svg>
