<?xml version="1.0" encoding="iso-8859-1"?>
<!-- Generator: Adobe Illustrator 15.1.0, SVG Export Plug-In . SVG Version: 6.00 Build 0)  -->
<!DOCTYPE svg PUBLIC "-//W3C//DTD SVG 1.1//EN" "http://www.w3.org/Graphics/SVG/1.1/DTD/svg11.dtd">
<svg version="1.1" id="Layer_1" xmlns="http://www.w3.org/2000/svg" xmlns:xlink="http://www.w3.org/1999/xlink" x="0px" y="0px"
	 width="32px" height="43px" viewBox="0 0 32 43" style="enable-background:new 0 0 32 43;" xml:space="preserve">
<g>
	<path style="fill:#4E4E50;" d="M11.336,22.738c-1.855,1.852-4.414,4.418-5.688,5.688c0.43,0.43,0.488,0.484,0.922,0.922
		c1.27-1.273,3.832-3.836,5.684-5.688C11.934,23.371,11.629,23.066,11.336,22.738z"/>
	<path style="fill:#4E4E50;" d="M20.133,3C13.594,3,8.273,8.32,8.273,14.863c0,1.566,0.32,3.051,0.871,4.418L0,28.426L6.57,35
		l9.148-9.152c1.367,0.555,2.852,0.875,4.414,0.875c6.543,0,11.867-5.32,11.867-11.859C32,8.32,26.676,3,20.133,3z M20.133,22.727
		c-4.332,0-7.863-3.531-7.863-7.863c0-4.336,3.531-7.867,7.863-7.867c4.34,0,7.871,3.531,7.871,7.867
		C28.004,19.195,24.473,22.727,20.133,22.727z"/>
</g>
</svg>
