<?xml version="1.0" encoding="iso-8859-1"?>
<!-- Generator: Adobe Illustrator 15.1.0, SVG Export Plug-In . SVG Version: 6.00 Build 0)  -->
<!DOCTYPE svg PUBLIC "-//W3C//DTD SVG 1.1//EN" "http://www.w3.org/Graphics/SVG/1.1/DTD/svg11.dtd">
<svg version="1.1" id="Layer_1" xmlns="http://www.w3.org/2000/svg" xmlns:xlink="http://www.w3.org/1999/xlink" x="0px" y="0px"
	 width="20px" height="43px" viewBox="0 0 20 43" style="enable-background:new 0 0 20 43;" xml:space="preserve">
<g>
	<path style="fill:#4E4E50;" d="M9.996,7c1.605,0,3.113,0.625,4.246,1.76C15.375,9.891,16,11.398,16,13s-0.625,3.109-1.73,4.213
		c-0.168,0.166-2.238,2.225-4.273,5.441c-2.02-3.211-4.082-5.262-4.238-5.414C4.625,16.109,4,14.602,4,13s0.625-3.109,1.758-4.242
		S8.314,7,9.996,7 M9.996,3C7.441,3,4.883,3.977,2.93,5.93c-3.906,3.904-3.906,10.236,0,14.141c0,0,7.066,6.93,7.066,14.93
		c0-8,7.074-14.93,7.074-14.93c3.906-3.904,3.906-10.236,0-14.141C15.117,3.977,12.559,3,9.996,3L9.996,3z"/>
	<path style="fill:#4E4E50;" d="M12,13c0,1.105-0.895,2-2.004,2C8.811,15,8,14.105,8,13s0.811-2,1.996-2C11.105,11,12,11.895,12,13z
		"/>
</g>
</svg>
