<?xml version="1.0" encoding="iso-8859-1"?>
<!-- Generator: Adobe Illustrator 15.1.0, SVG Export Plug-In . SVG Version: 6.00 Build 0)  -->
<!DOCTYPE svg PUBLIC "-//W3C//DTD SVG 1.1//EN" "http://www.w3.org/Graphics/SVG/1.1/DTD/svg11.dtd">
<svg version="1.1" id="Layer_1" xmlns="http://www.w3.org/2000/svg" xmlns:xlink="http://www.w3.org/1999/xlink" x="0px" y="0px"
	 width="24px" height="43px" viewBox="0 0 24 43" style="enable-background:new 0 0 24 43;" xml:space="preserve">
<g id="mic_x5F_6x8_1_">
	<g>
		<path style="fill:#4E4E50;" d="M12,19c2.211,0,4-1.791,4-4V7c0-2.209-1.789-4-4-4S8,4.791,8,7v8C8,17.209,9.789,19,12,19z"/>
	</g>
	<path style="fill:#4E4E50;" d="M16,31h-2v-4.203C19.664,25.84,24,20.932,24,15v-1.938c0-1.105-0.895-2-2-2s-2,0.895-2,2V15
		c0,4.412-3.586,8-8,8s-8-3.588-8-8v-1.938c0-1.105-0.895-2-2-2s-2,0.895-2,2V15c0,5.932,4.336,10.84,10,11.797V31H8
		c-2.211,0-4,1.789-4,4h16C20,32.789,18.211,31,16,31z"/>
</g>
</svg>
