<?xml version="1.0" encoding="iso-8859-1"?>
<!-- Generator: Adobe Illustrator 15.1.0, SVG Export Plug-In . SVG Version: 6.00 Build 0)  -->
<!DOCTYPE svg PUBLIC "-//W3C//DTD SVG 1.1//EN" "http://www.w3.org/Graphics/SVG/1.1/DTD/svg11.dtd">
<svg version="1.1" id="Layer_1" xmlns="http://www.w3.org/2000/svg" xmlns:xlink="http://www.w3.org/1999/xlink" x="0px" y="0px"
	 width="32px" height="43px" viewBox="0 0 32 43" style="enable-background:new 0 0 32 43;" xml:space="preserve">
<path style="fill:#4E4E50;" d="M5.895,12.148c0.848,8.959,8,16.109,16.957,16.953c-1.91,1.211-4.152,1.898-6.5,1.898
	C9.539,31,4,25.461,4,18.646C4,16.299,4.688,14.059,5.895,12.148 M11.844,3C5.02,4.969,0,11.189,0,18.646C0,27.68,7.32,35,16.352,35
	c7.457,0,13.68-5.023,15.648-11.844c-2.18,1.258-4.672,2.031-7.367,2.031c-8.188,0-14.82-6.639-14.82-14.822
	C9.812,7.67,10.586,5.178,11.844,3L11.844,3z"/>
</svg>
