<?xml version="1.0" encoding="iso-8859-1"?>
<!-- Generator: Adobe Illustrator 15.1.0, SVG Export Plug-In . SVG Version: 6.00 Build 0)  -->
<!DOCTYPE svg PUBLIC "-//W3C//DTD SVG 1.1//EN" "http://www.w3.org/Graphics/SVG/1.1/DTD/svg11.dtd">
<svg version="1.1" id="Layer_1" xmlns="http://www.w3.org/2000/svg" xmlns:xlink="http://www.w3.org/1999/xlink" x="0px" y="0px"
	 width="32px" height="43px" viewBox="0 0 32 43" style="enable-background:new 0 0 32 43;" xml:space="preserve">
<g>
	<polygon style="fill:#4E4E50;" points="18,23 18,29 22,29 16,35 10,29 14,29 14,23 	"/>
	<polygon style="fill:#4E4E50;" points="14,15 14,9 10,9 16,3 22,9 18,9 18,15 	"/>
	<polygon style="fill:#4E4E50;" points="12,21 6,21 6,25 0,19 6,13 6,17 12,17 	"/>
	<polygon style="fill:#4E4E50;" points="20,17 26,17 26,13 32,19 26,25 26,21 20,21 	"/>
</g>
</svg>
