<?xml version="1.0" encoding="iso-8859-1"?>
<!-- Generator: Adobe Illustrator 15.1.0, SVG Export Plug-In . SVG Version: 6.00 Build 0)  -->
<!DOCTYPE svg PUBLIC "-//W3C//DTD SVG 1.1//EN" "http://www.w3.org/Graphics/SVG/1.1/DTD/svg11.dtd">
<svg version="1.1" id="Layer_1" xmlns="http://www.w3.org/2000/svg" xmlns:xlink="http://www.w3.org/1999/xlink" x="0px" y="0px"
	 width="27.994px" height="43px" viewBox="0 0 27.994 43" style="enable-background:new 0 0 27.994 43;" xml:space="preserve">
<path style="fill:#4E4E50;" d="M11,34.961c-2.939,0-5.701-1.148-7.777-3.227C1.145,29.656,0,26.898,0,23.957
	c0.002-2.938,1.145-5.699,3.223-7.775L14.359,5.287c2.994-2.994,8.277-3.006,11.297,0.016c3.117,3.121,3.117,8.195,0,11.312
	l-10.02,9.775c-1.93,1.93-5.102,1.934-7.051-0.016c-1.949-1.953-1.949-5.123,0-7.072l3.879-3.879l2.828,2.828l-3.879,3.879
	c-0.256,0.256-0.293,0.553-0.293,0.707s0.037,0.451,0.293,0.709c0.512,0.508,0.902,0.508,1.414,0l10.016-9.777
	c1.543-1.541,1.543-4.078-0.016-5.639c-1.512-1.512-4.145-1.512-5.656,0L6.035,19.025C4.729,20.332,4,22.088,4,23.957
	c0,1.871,0.729,3.629,2.051,4.949c2.645,2.648,7.254,2.648,9.898,0l5-5l2.828,2.828l-5,5C16.699,33.812,13.938,34.961,11,34.961z"/>
</svg>
