<?xml version="1.0" encoding="iso-8859-1"?>
<!-- Generator: Adobe Illustrator 15.1.0, SVG Export Plug-In . SVG Version: 6.00 Build 0)  -->
<!DOCTYPE svg PUBLIC "-//W3C//DTD SVG 1.1//EN" "http://www.w3.org/Graphics/SVG/1.1/DTD/svg11.dtd">
<svg version="1.1" id="Layer_1" xmlns="http://www.w3.org/2000/svg" xmlns:xlink="http://www.w3.org/1999/xlink" x="0px" y="0px"
	 width="32px" height="43px" viewBox="0 0 32 43" style="enable-background:new 0 0 32 43;" xml:space="preserve">
<path style="fill:#4E4E50;" d="M32,11c0-4.416-3.586-8-8-8c-2.984,0-5.562,1.658-6.938,4.086c0-0.002,0.004-0.004,0.004-0.006
	c-0.367-0.035-0.723-0.111-1.098-0.111c-6.629,0-12,5.371-12,12c0,2.527,0.789,4.867,2.121,6.797L0,35l9.289-6.062
	c1.91,1.281,4.207,2.031,6.68,2.031c6.629,0,12-5.371,12-12c0-0.346-0.07-0.67-0.102-1.008C30.32,16.594,32,14.006,32,11z
	 M15.969,26.969c-4.414,0-8-3.586-8-8c0-4.412,3.586-8,8-8c0.012,0,0.023,0.004,0.031,0.004c0-0.008,0.004-0.014,0.004-0.02
	C16.004,10.969,16,10.984,16,11c0,0.695,0.117,1.355,0.281,1.998l-3.172,3.174c-1.562,1.562-1.562,4.094,0,5.656
	s4.094,1.562,5.656,0l3.141-3.141c0.66,0.18,1.344,0.305,2.059,0.309C23.949,23.398,20.371,26.969,15.969,26.969z M24,15
	c-2.203,0-4-1.795-4-4s1.797-4,4-4s4,1.795,4,4S26.203,15,24,15z"/>
</svg>
