<?xml version="1.0" encoding="iso-8859-1"?>
<!-- Generator: Adobe Illustrator 15.1.0, SVG Export Plug-In . SVG Version: 6.00 Build 0)  -->
<!DOCTYPE svg PUBLIC "-//W3C//DTD SVG 1.1//EN" "http://www.w3.org/Graphics/SVG/1.1/DTD/svg11.dtd">
<svg version="1.1" id="Layer_1" xmlns="http://www.w3.org/2000/svg" xmlns:xlink="http://www.w3.org/1999/xlink" x="0px" y="0px"
	 width="32px" height="43px" viewBox="0 0 32 43" style="enable-background:new 0 0 32 43;" xml:space="preserve">
<g>
	<path style="fill:#4E4E50;" d="M24,9c-0.379,0-0.738,0.061-1.102,0.111C21.504,6.646,18.926,5,16,5c-2.988,0-5.566,1.666-6.941,4.1
		C8.707,9.053,8.355,9,8,9c-4.41,0-8,3.588-8,8s3.59,8,8,8h16c4.41,0,8-3.588,8-8S28.41,9,24,9z M24,21H8c-2.207,0-4-1.795-4-4
		c0-2.193,1.941-3.885,4.004-3.945c0.008,0.943,0.172,1.869,0.5,2.744l3.746-1.402C12.082,13.953,12,13.482,12,13
		c0-2.205,1.793-4,4-4c1.293,0,2.465,0.641,3.199,1.639C17.27,12.1,16,14.395,16,17h4c0-2.205,1.793-4,4-4s4,1.795,4,4
		S26.207,21,24,21z"/>
	<path style="fill:#4E4E50;" d="M3.281,32.438c-0.75,0.75-1.969,0.75-2.719,0s-0.75-1.969,0-2.719S6,27,6,27
		S4.031,31.688,3.281,32.438z"/>
	<path style="fill:#4E4E50;" d="M11.285,32.438c-0.75,0.75-1.965,0.75-2.719,0c-0.75-0.75-0.75-1.969,0-2.719
		C9.32,28.969,14.004,27,14.004,27S12.039,31.688,11.285,32.438z"/>
	<path style="fill:#4E4E50;" d="M19.281,32.438c-0.75,0.75-1.969,0.75-2.719,0s-0.75-1.969,0-2.719S22,27,22,27
		S20.031,31.688,19.281,32.438z"/>
</g>
</svg>
