<?xml version="1.0" encoding="iso-8859-1"?>
<!-- Generator: Adobe Illustrator 15.1.0, SVG Export Plug-In . SVG Version: 6.00 Build 0)  -->
<!DOCTYPE svg PUBLIC "-//W3C//DTD SVG 1.1//EN" "http://www.w3.org/Graphics/SVG/1.1/DTD/svg11.dtd">
<svg version="1.1" id="Layer_1" xmlns="http://www.w3.org/2000/svg" xmlns:xlink="http://www.w3.org/1999/xlink" x="0px" y="0px"
	 width="32px" height="43px" viewBox="0 0 32 43" style="enable-background:new 0 0 32 43;" xml:space="preserve">
<g>
	<polygon style="fill:#4E4E50;" points="32,7 0,7 0,3 32,3 32,7 	"/>
	<polygon style="fill:#4E4E50;" points="20,15 0,15 0,11 20,11 20,15 	"/>
	<polygon style="fill:#4E4E50;" points="32,23.086 0,23.086 0,19.086 32,19.086 32,23.086 	"/>
	<circle style="fill:#4E4E50;" cx="2" cy="33" r="2"/>
	<path style="fill:#4E4E50;" d="M12,33c0,1.105-0.898,2-2,2c-1.109,0-2.004-0.895-2.004-2S8.891,31,10,31C11.102,31,12,31.895,12,33
		z"/>
	<circle style="fill:#4E4E50;" cx="18" cy="33" r="2"/>
</g>
</svg>
