<?xml version="1.0" encoding="iso-8859-1"?>
<!-- Generator: Adobe Illustrator 15.1.0, SVG Export Plug-In . SVG Version: 6.00 Build 0)  -->
<!DOCTYPE svg PUBLIC "-//W3C//DTD SVG 1.1//EN" "http://www.w3.org/Graphics/SVG/1.1/DTD/svg11.dtd">
<svg version="1.1" id="Layer_1" xmlns="http://www.w3.org/2000/svg" xmlns:xlink="http://www.w3.org/1999/xlink" x="0px" y="0px"
	 width="32px" height="43px" viewBox="0 0 32 43" style="enable-background:new 0 0 32 43;" xml:space="preserve">
<g>
	<path style="fill:#4E4E50;" d="M32,35h-4.57C27.43,19.875,15.125,7.572,0,7.572V3C17.641,3,32,17.355,32,35L32,35z"/>
	<path style="fill:#4E4E50;" d="M22.855,35h-4.57c0-10.082-8.207-18.285-18.285-18.285v-4.572
		C12.602,12.143,22.855,22.398,22.855,35L22.855,35z"/>
	<path style="fill:#4E4E50;" d="M13.715,35H9.141c0-5.043-4.098-9.141-9.141-9.141v-4.574C7.562,21.285,13.715,27.438,13.715,35
		L13.715,35z"/>
	<path style="fill:#4E4E50;" d="M4.57,35c0-2.523-2.043-4.57-4.57-4.57V35H4.57z"/>
</g>
</svg>
