<?xml version="1.0" encoding="iso-8859-1"?>
<!-- Generator: Adobe Illustrator 15.1.0, SVG Export Plug-In . SVG Version: 6.00 Build 0)  -->
<!DOCTYPE svg PUBLIC "-//W3C//DTD SVG 1.1//EN" "http://www.w3.org/Graphics/SVG/1.1/DTD/svg11.dtd">
<svg version="1.1" id="Layer_1" xmlns="http://www.w3.org/2000/svg" xmlns:xlink="http://www.w3.org/1999/xlink" x="0px" y="0px"
	 width="32px" height="43px" viewBox="0 0 32 43" style="enable-background:new 0 0 32 43;" xml:space="preserve">
<path style="fill:#4E4E50;" d="M28,27c-0.973,0-1.832,0.391-2.523,0.965l-6.098-4.352C19.766,22.816,20,21.941,20,21
	c0-1.293-0.422-2.488-1.117-3.465l7.133-7.137C26.609,10.746,27.262,11,28,11c2.211,0,4-1.789,4-4s-1.789-4-4-4s-4,1.789-4,4
	c0,0.738,0.254,1.391,0.602,1.984l-7.133,7.137C16.484,15.418,15.297,15,14,15c-2.289,0-4.258,1.301-5.27,3.191l-4.816-1.609
	C3.719,15.684,2.957,15,2,15c-1.105,0-2,0.895-2,2s0.895,2,2,2c0.504,0,0.953-0.203,1.305-0.512l4.789,1.598
	C8.047,20.387,8,20.688,8,21c0,3.312,2.688,6,6,6c1.648,0,3.145-0.668,4.23-1.746l6.059,4.324C24.117,30.023,24,30.496,24,31
	c0,2.207,1.789,4,4,4s4-1.793,4-4S30.211,27,28,27z"/>
</svg>
