<?xml version="1.0" encoding="iso-8859-1"?>
<!-- Generator: Adobe Illustrator 15.1.0, SVG Export Plug-In . SVG Version: 6.00 Build 0)  -->
<!DOCTYPE svg PUBLIC "-//W3C//DTD SVG 1.1//EN" "http://www.w3.org/Graphics/SVG/1.1/DTD/svg11.dtd">
<svg version="1.1" id="Layer_1" xmlns="http://www.w3.org/2000/svg" xmlns:xlink="http://www.w3.org/1999/xlink" x="0px" y="0px"
	 width="28px" height="43px" viewBox="0 0 28 43" style="enable-background:new 0 0 28 43;" xml:space="preserve">
<g>
	<path style="fill:#4E4E50;" d="M23.883,9.086l-2.82,2.832C22.953,13.809,24,16.324,24,19c0,5.516-4.484,10-10,10v-2l-4,4l4,4v-2
		c7.719,0,14-6.281,14-14C28,15.254,26.539,11.734,23.883,9.086z"/>
	<path style="fill:#4E4E50;" d="M18,7l-4-4v2C6.281,5,0,11.281,0,19c0,3.746,1.461,7.266,4.117,9.914l2.82-2.832
		C5.047,24.191,4,21.676,4,19C4,13.484,8.484,9,14,9v2L18,7z"/>
</g>
</svg>
