<?xml version="1.0" encoding="iso-8859-1"?>
<!-- Generator: Adobe Illustrator 15.1.0, SVG Export Plug-In . SVG Version: 6.00 Build 0)  -->
<!DOCTYPE svg PUBLIC "-//W3C//DTD SVG 1.1//EN" "http://www.w3.org/Graphics/SVG/1.1/DTD/svg11.dtd">
<svg version="1.1" id="Layer_1" xmlns="http://www.w3.org/2000/svg" xmlns:xlink="http://www.w3.org/1999/xlink" x="0px" y="0px"
	 width="32px" height="43px" viewBox="0 0 32 43" style="enable-background:new 0 0 32 43;" xml:space="preserve">
<g>
	<path style="fill:#4E4E50;" d="M4.691,30.32C1.664,27.297,0,23.281,0,19C0,10.18,7.176,3,16,3l2,2l-2,2C9.383,7,4,12.383,4,19
		c0,3.211,1.25,6.227,3.52,8.492l-2.457,0.32L4.691,30.32L4.691,30.32z"/>
	<path style="fill:#4E4E50;" d="M16,35l-2-1.992L16,31c6.617,0,12-5.383,12-12c0-3.203-1.25-6.219-3.523-8.488l2.461-0.324
		l0.367-2.504C30.332,10.707,32,14.727,32,19C32,27.82,24.82,35,16,35L16,35z"/>
</g>
</svg>
