<?xml version="1.0" encoding="iso-8859-1"?>
<!-- Generator: Adobe Illustrator 15.1.0, SVG Export Plug-In . SVG Version: 6.00 Build 0)  -->
<!DOCTYPE svg PUBLIC "-//W3C//DTD SVG 1.1//EN" "http://www.w3.org/Graphics/SVG/1.1/DTD/svg11.dtd">
<svg version="1.1" id="Layer_1" xmlns="http://www.w3.org/2000/svg" xmlns:xlink="http://www.w3.org/1999/xlink" x="0px" y="0px"
	 width="32px" height="43px" viewBox="0 0 32 43" style="enable-background:new 0 0 32 43;" xml:space="preserve">
<g>
	<path style="fill:#4E4E50;" d="M16,15c2.203,0,4,1.795,4,4s-1.797,4-4,4s-4-1.795-4-4S13.797,15,16,15 M16,11c-4.418,0-8,3.582-8,8
		s3.582,8,8,8s8-3.582,8-8S20.418,11,16,11L16,11z"/>
	<circle style="fill:#4E4E50;" cx="16" cy="5" r="2"/>
	<circle style="fill:#4E4E50;" cx="6" cy="9" r="2"/>
	<path style="fill:#4E4E50;" d="M2,16.998c1.105,0,2,0.895,2,2c0,1.107-0.895,2-2,2s-2-0.893-2-2C0,17.893,0.895,16.998,2,16.998z"
		/>
	<circle style="fill:#4E4E50;" cx="6" cy="29" r="2"/>
	<path style="fill:#4E4E50;" d="M14,33c0-1.109,0.895-2,2-2c1.109,0,2,0.891,2,2c0,1.102-0.891,2-2,2C14.895,35,14,34.102,14,33z"/>
	<path style="fill:#4E4E50;" d="M24.594,30.414c-0.781-0.781-0.781-2.047,0-2.828c0.785-0.781,2.047-0.781,2.828,0
		s0.785,2.047,0,2.828C26.641,31.195,25.375,31.195,24.594,30.414z"/>
	<path style="fill:#4E4E50;" d="M29.996,20.998C28.895,20.998,28,20.104,28,19c0-1.109,0.891-2,2-2c1.102,0,2,0.893,2,1.998
		C32,20.105,31.102,21,29.996,20.998z"/>
	<path style="fill:#4E4E50;" d="M27.422,10.416c-0.781,0.779-2.047,0.779-2.828,0c-0.781-0.785-0.781-2.047,0-2.83
		c0.781-0.779,2.047-0.781,2.828,0.002C28.203,8.369,28.203,9.637,27.422,10.416z"/>
</g>
</svg>
