<?xml version="1.0" encoding="iso-8859-1"?>
<!-- Generator: Adobe Illustrator 15.1.0, SVG Export Plug-In . SVG Version: 6.00 Build 0)  -->
<!DOCTYPE svg PUBLIC "-//W3C//DTD SVG 1.1//EN" "http://www.w3.org/Graphics/SVG/1.1/DTD/svg11.dtd">
<svg version="1.1" id="Layer_1" xmlns="http://www.w3.org/2000/svg" xmlns:xlink="http://www.w3.org/1999/xlink" x="0px" y="0px"
	 width="31.996px" height="43px" viewBox="0 0 31.996 43" style="enable-background:new 0 0 31.996 43;" xml:space="preserve">
<g>
	<path style="fill:#4E4E50;" d="M16,11c-4.422,0-8,3.582-8,8s3.578,8,8,8c4.414,0,8-3.582,8-8S20.414,11,16,11L16,11z"/>
	<path style="fill:#4E4E50;" d="M18,5c0,1.105-0.898,2-2,2c-1.109,0-2-0.895-2-2s0.891-2,2-2C17.102,3,18,3.895,18,5z"/>
	<circle style="fill:#4E4E50;" cx="6" cy="9" r="2"/>
	<path style="fill:#4E4E50;" d="M2,16.998c1.102,0,2,0.895,2,2c0,1.107-0.898,2-2,2c-1.109,0-2-0.893-2-2
		C0,17.893,0.891,16.998,2,16.998z"/>
	<circle style="fill:#4E4E50;" cx="6" cy="29" r="2"/>
	<path style="fill:#4E4E50;" d="M14,33c0-1.109,0.891-2,2-2s2,0.891,2,2c0,1.105-0.891,2-2,2S14,34.105,14,33z"/>
	<path style="fill:#4E4E50;" d="M24.594,30.414c-0.781-0.781-0.781-2.047,0-2.828s2.047-0.781,2.828,0
		c0.789,0.781,0.789,2.047,0,2.828C26.641,31.195,25.375,31.195,24.594,30.414z"/>
	<path style="fill:#4E4E50;" d="M29.996,20.998C28.898,20.998,28,20.104,28,19c0-1.109,0.898-2,2.008-2c1.098,0,2,0.893,1.988,1.998
		C32.008,20.105,31.105,21,29.996,20.998z"/>
	<path style="fill:#4E4E50;" d="M27.422,10.416c-0.781,0.779-2.047,0.779-2.828,0c-0.781-0.785-0.781-2.047,0-2.83
		c0.781-0.779,2.047-0.781,2.828,0.002C28.211,8.369,28.211,9.637,27.422,10.416z"/>
</g>
</svg>
