<?xml version="1.0" encoding="iso-8859-1"?>
<!-- Generator: Adobe Illustrator 15.1.0, SVG Export Plug-In . SVG Version: 6.00 Build 0)  -->
<!DOCTYPE svg PUBLIC "-//W3C//DTD SVG 1.1//EN" "http://www.w3.org/Graphics/SVG/1.1/DTD/svg11.dtd">
<svg version="1.1" id="Layer_1" xmlns="http://www.w3.org/2000/svg" xmlns:xlink="http://www.w3.org/1999/xlink" x="0px" y="0px"
	 width="32px" height="43px" viewBox="0 0 32 43" style="enable-background:new 0 0 32 43;" xml:space="preserve">
<path style="fill:#4E4E50;" d="M28,7h-4c0-2.211-1.789-4-4-4h-8C9.789,3,8,4.789,8,7H4H0v4h4v18c0,3.312,2.688,6,6,6h12
	c3.312,0,6-2.688,6-6V11h4V7H28z M12,27c-1.105,0-2-0.895-2-2s0.895-2,2-2s2,0.895,2,2S13.105,27,12,27z M12,19
	c-1.105,0-2-0.895-2-2s0.895-2,2-2s2,0.895,2,2S13.105,19,12,19z M20,27c-1.105,0-2-0.895-2-2s0.895-2,2-2s2,0.895,2,2
	S21.105,27,20,27z M20,19c-1.105,0-2-0.895-2-2s0.895-2,2-2s2,0.895,2,2S21.105,19,20,19z"/>
</svg>
