<?xml version="1.0" encoding="iso-8859-1"?>
<!-- Generator: Adobe Illustrator 15.1.0, SVG Export Plug-In . SVG Version: 6.00 Build 0)  -->
<!DOCTYPE svg PUBLIC "-//W3C//DTD SVG 1.1//EN" "http://www.w3.org/Graphics/SVG/1.1/DTD/svg11.dtd">
<svg version="1.1" id="Layer_1" xmlns="http://www.w3.org/2000/svg" xmlns:xlink="http://www.w3.org/1999/xlink" x="0px" y="0px"
	 width="32px" height="43px" viewBox="0 0 32 43" style="enable-background:new 0 0 32 43;" xml:space="preserve">
<path style="fill:#4E4E50;" d="M16,3C7.18,3,0,10.178,0,19h4c0-0.826,0.676-1.5,1.5-1.5C6.328,17.5,7,18.174,7,19h4
	c0-0.826,0.676-1.5,1.5-1.5c0.828,0,1.5,0.674,1.5,1.5v10c0,1.102-0.895,2-2,2c-1.102,0-2-0.898-2-2H6c0,3.309,2.695,6,6,6
	c3.312,0,6-2.691,6-6V19c0-0.826,0.676-1.5,1.5-1.5c0.828,0,1.5,0.674,1.5,1.5h4c0-0.826,0.676-1.5,1.5-1.5
	c0.828,0,1.5,0.674,1.5,1.5h4C32,10.178,24.824,3,16,3z"/>
</svg>
