<?xml version="1.0" encoding="iso-8859-1"?>
<!-- Generator: Adobe Illustrator 15.1.0, SVG Export Plug-In . SVG Version: 6.00 Build 0)  -->
<!DOCTYPE svg PUBLIC "-//W3C//DTD SVG 1.1//EN" "http://www.w3.org/Graphics/SVG/1.1/DTD/svg11.dtd">
<svg version="1.1" id="Layer_1" xmlns="http://www.w3.org/2000/svg" xmlns:xlink="http://www.w3.org/1999/xlink" x="0px" y="0px"
	 width="32px" height="43px" viewBox="0 0 32 43" style="enable-background:new 0 0 32 43;" xml:space="preserve">
<g>
	<path style="fill:#4E4E50;" d="M28.156,6.718c-4.957-4.957-13.605-4.961-18.559,0L4,12.319V7H0v12.007h12v-3.92H6.977L12.43,9.55
		c3.445-3.449,9.453-3.449,12.898,0.004C27.051,11.276,28,13.565,28,16.087c0,2.357-0.949,4.646-2.672,6.373l-3.016,3.014
		l2.828,2.828l3.016-3.008C30.633,22.808,32,19.511,32,16.087C32,12.495,30.633,9.198,28.156,6.718z"/>
	<polygon style="fill:#4E4E50;" points="18.449,35.001 15.621,32.165 18.449,29.337 21.277,32.165 	"/>
</g>
</svg>
