<?xml version="1.0" encoding="iso-8859-1"?>
<!-- Generator: Adobe Illustrator 15.1.0, SVG Export Plug-In . SVG Version: 6.00 Build 0)  -->
<!DOCTYPE svg PUBLIC "-//W3C//DTD SVG 1.1//EN" "http://www.w3.org/Graphics/SVG/1.1/DTD/svg11.dtd">
<svg version="1.1" id="Layer_1" xmlns="http://www.w3.org/2000/svg" xmlns:xlink="http://www.w3.org/1999/xlink" x="0px" y="0px"
	 width="24px" height="43px" viewBox="0 0 24 43" style="enable-background:new 0 0 24 43;" xml:space="preserve">
<g>
	<path style="fill:#4E4E50;" d="M14.004,3C8.49,3,4.006,7.488,4.006,13h4c0-3.305,2.689-6,5.998-6S20,9.695,20,13v2H0v14
		c0,3.312,2.691,6,5.998,6H18c3.309,0,6-2.688,6-6V13C24,7.488,19.516,3,14.004,3z M18,31H5.998c-1.102,0-2-0.895-2-2V19H20v10
		C20,30.105,19.102,31,18,31z"/>
	<path style="fill:#4E4E50;" d="M14,25c0,1.109-0.895,2-2,2s-2-0.891-2-2c0-1.102,0.895-2,2-2S14,23.898,14,25z"/>
</g>
</svg>
