<?xml version="1.0" encoding="iso-8859-1"?>
<!-- Generator: Adobe Illustrator 15.1.0, SVG Export Plug-In . SVG Version: 6.00 Build 0)  -->
<!DOCTYPE svg PUBLIC "-//W3C//DTD SVG 1.1//EN" "http://www.w3.org/Graphics/SVG/1.1/DTD/svg11.dtd">
<svg version="1.1" id="Layer_1" xmlns="http://www.w3.org/2000/svg" xmlns:xlink="http://www.w3.org/1999/xlink" x="0px" y="0px"
	 width="32px" height="43px" viewBox="0 0 32 43" style="enable-background:new 0 0 32 43;" xml:space="preserve">
<g>
	<g>
		<path style="fill:#4E4E50;" d="M8,27c-4.418,0-8-3.582-8-8s3.582-8,8-8V27z"/>
	</g>
	<g>
		<polygon style="fill:#4E4E50;" points="12,11 20,7 20,31 12,27 		"/>
	</g>
	<path style="fill:#4E4E50;" d="M24.004,26.996v-4c0.332,0,0.668-0.043,1.004-0.125C26.762,22.426,28,20.832,28,19
		s-1.238-3.422-3.012-3.871c-0.316-0.078-0.652-0.121-0.984-0.121v-4c0.656,0,1.312,0.082,1.957,0.238C29.52,12.152,32,15.336,32,19
		c0,3.668-2.48,6.855-6.027,7.754C25.309,26.914,24.652,26.996,24.004,26.996L24.004,26.996z"/>
</g>
</svg>
