<?xml version="1.0" encoding="iso-8859-1"?>
<!-- Generator: Adobe Illustrator 15.1.0, SVG Export Plug-In . SVG Version: 6.00 Build 0)  -->
<!DOCTYPE svg PUBLIC "-//W3C//DTD SVG 1.1//EN" "http://www.w3.org/Graphics/SVG/1.1/DTD/svg11.dtd">
<svg version="1.1" id="Layer_1" xmlns="http://www.w3.org/2000/svg" xmlns:xlink="http://www.w3.org/1999/xlink" x="0px" y="0px"
	 width="32px" height="43px" viewBox="0 0 32 43" style="enable-background:new 0 0 32 43;" xml:space="preserve">
<path style="fill:#4E4E50;" d="M31.605,8.643l-5.023,5.023h-5.25V8.334l4.961-4.959C25.562,3.154,24.801,3,24,3
	c-4.418,0-8,3.584-8,8c0,1.232,0.301,2.385,0.801,3.43L0.781,30.445C0.301,30.93,0,31.594,0,32.336C0,33.805,1.191,35,2.668,35
	c0.738,0,1.406-0.297,1.883-0.781l16.023-16.018C21.613,18.697,22.77,19,24,19c4.418,0,8-3.584,8-8
	C32,10.174,31.84,9.393,31.605,8.643z"/>
</svg>
