<!DOCTYPE svg  PUBLIC '-//W3C//DTD SVG 1.1//EN'  'http://www.w3.org/Graphics/SVG/1.1/DTD/svg11.dtd'>
<svg style="enable-background:new 0 0 18.663 32" xmlns="http://www.w3.org/2000/svg" xml:space="preserve" height="32px" width="19px" version="1.1" y="0px" x="0px" xmlns:xlink="http://www.w3.org/1999/xlink" viewBox="0 0 18.663 32">
	<path d="m9.2 32c-2.4 0-4.7-0.9-6.5-2.7-3.6-3.6-3.6-9.4 0-13l8.1-7.9c0.46-0.46 0.73-1.1 0.73-1.8 0-0.68-0.27-1.3-0.74-1.8-1.2-0.7-2.8-0.7-3.8 0.2-1 1-1 2.7 0 3.6l-2.8 2.7c-2.6-2.4-2.6-6.5 0-9.1s6.7-2.6 9.3-0.004c1.2 1.2 1.9 2.9 1.9 4.6 0 1.8-0.68 3.4-1.9 4.6l-8.1 7.9c-2 2-2 5.3 0.02 7.4 2 2 5.3 2 7.4 0 2-2 2-5.3 0-7.4l-1.4-1.4 4.4-4.3 2.8 2.8-1.7 1.7c2.3 3.6 1.9 8.4-1.3 11-2 1-4 2-6.8 2z" fill="#010101"/>
</svg>
