<!DOCTYPE svg  PUBLIC '-//W3C//DTD SVG 1.1//EN'  'http://www.w3.org/Graphics/SVG/1.1/DTD/svg11.dtd'>
<svg style="enable-background:new 0 0 32 32" xmlns="http://www.w3.org/2000/svg" xml:space="preserve" height="32px" width="32px" version="1.1" y="0px" x="0px" xmlns:xlink="http://www.w3.org/1999/xlink" viewBox="0 0 32 32">
	<g fill="#010101">
		<path d="m30 9l-10 10h11c1-1 1-2 1-3 0-3-1-5-2-7z"/>
		<path d="m21 15l8.2-8.2c-2-2.9-4.8-5-8.2-6.1v14z"/>
		<path d="m17 21l8.2 8.2c2.9-1.9 5-4.8 6.2-8.2h-14z"/>
		<path d="m19 12v-12c-1 0.12-2 0-3 0-2.6 0-4.9 0.65-7.1 1.7l10 10z"/>
		<path d="m13 20v11c1 1 2 1 3 1 2.5 0 4.9-0.64 7-1.7l-10-10z"/>
		<path d="m11 17l-8.2 8c1.9 2.9 4.8 5 8.2 6.1v-14z"/>
		<path d="m0.3 13c-0.18 1-0.3 2-0.3 3 0 2.5 0.64 4.9 1.7 7l10-10h-12z"/>
		<path d="m7 2.8c-2.9 1.9-5 4.8-6.1 8.2h14l-8-8.2z"/>
	</g>
</svg>
