<!DOCTYPE svg  PUBLIC '-//W3C//DTD SVG 1.1//EN'  'http://www.w3.org/Graphics/SVG/1.1/DTD/svg11.dtd'>
<svg style="enable-background:new 0 0 32 32" xmlns="http://www.w3.org/2000/svg" xml:space="preserve" height="32px" width="32px" version="1.1" y="0px" x="0px" xmlns:xlink="http://www.w3.org/1999/xlink" viewBox="0 0 32 32">
	<path d="m30 24c1-2 2-5 2-8 0-8.8-7.2-16-16-16s-16 7.2-16 16 7.2 16 16 16c4.4 0 8.4-1.8 11-4.7l-3-3c-2 3-5 4-8 4-6.6 0-12-5-12-12s5.4-12 12-12 12 5.4 12 12c0 1.4-0.27 2.8-0.73 4h-3v-12h-8c-4.4 0-8 3.6-8 8s3.6 8 8 8c1.8 0 3.5-0.64 4.9-1.7 1 1 2 2 3 2h6zm-10-10v2c0 2.2-1.8 4-4 4s-4-1.8-4-4 1.8-4 4-4h4v2z" fill="#010101"/>
</svg>
