<!DOCTYPE svg  PUBLIC '-//W3C//DTD SVG 1.1//EN'  'http://www.w3.org/Graphics/SVG/1.1/DTD/svg11.dtd'>
<svg style="enable-background:new 0 0 16 32" xmlns="http://www.w3.org/2000/svg" xml:space="preserve" height="32px" width="16px" version="1.1" y="0px" x="0px" xmlns:xlink="http://www.w3.org/1999/xlink" viewBox="0 0 16 32">
	<g fill="#010101">
		<path d="m8 20c-1.4 0-2.7-0.29-4-0.73v13l4-4 4 4v-13c-1 1-2.6 1-4 1z"/>
		<path d="m8 0c-4.4 0-8 3.6-8 8s3.6 8 8 8 8-3.6 8-8-4-8-8-8zm0 12c-2.2 0-4-1.8-4-4s1.8-4 4-4 4 1.8 4 4-2 4-4 4z"/>
	</g>
</svg>
