<!DOCTYPE svg  PUBLIC '-//W3C//DTD SVG 1.1//EN'  'http://www.w3.org/Graphics/SVG/1.1/DTD/svg11.dtd'>
<svg style="enable-background:new 0 0 32 16" xmlns="http://www.w3.org/2000/svg" xml:space="preserve" height="16px" width="32px" version="1.1" y="0px" x="0px" xmlns:xlink="http://www.w3.org/1999/xlink" viewBox="0 0 32 16">
	<path d="m28 4v-2c0-1.1-0.9-2-2-2h-24c-1.1 0-2 0.9-2 2v4h6.4c0.82-2.3 3-4 5.6-4v2h4v2h-4v4h4.1v2h-4v2c-2.6 0-4.8-1.7-5.6-4h-6.4v4c0 1.1 0.9 2 2 2h24c1.1 0 2-0.9 2-2v-2h4v-8h-4z" fill="#010101"/>
</svg>
