<!DOCTYPE svg  PUBLIC '-//W3C//DTD SVG 1.1//EN'  'http://www.w3.org/Graphics/SVG/1.1/DTD/svg11.dtd'>
<svg style="enable-background:new 0 0 32 28" xmlns="http://www.w3.org/2000/svg" xml:space="preserve" height="28px" width="32px" version="1.1" y="0px" x="0px" xmlns:xlink="http://www.w3.org/1999/xlink" viewBox="0 0 32 28">
	<path d="m16 4s-4-4-16-4v24c12 0 16 4 16 4s3.9-4 16-4v-24c-12 0-16 4-16 4zm-12 0c5.1 0.43 8.2 1.6 10 2.6v16c-1.8-0.95-4.9-2.1-10-2.6v-16zm24 16c-5.1 0.43-8.2 1.6-10 2.6v-16c2-1.4 5-2.6 10-3v16z" fill="#010101"/>
</svg>
