<!DOCTYPE svg  PUBLIC '-//W3C//DTD SVG 1.1//EN'  'http://www.w3.org/Graphics/SVG/1.1/DTD/svg11.dtd'>
<svg style="enable-background:new 0 0 31.998 32" xmlns="http://www.w3.org/2000/svg" xml:space="preserve" height="32px" width="32px" version="1.1" y="0px" x="0px" xmlns:xlink="http://www.w3.org/1999/xlink" viewBox="0 0 31.998 32">
		<path d="m16 21c0-2.9-2.4-5.3-5.3-5.3s-5.3 2.4-5.3 5.3l0.004 0.004c-0.4 4-2.5 8-5.7 10l0.016 0.02c1.6 0 3.4 1 5.3 1 5.7 0 11-5 11-11z" fill="#010101"/>
			<path d="m31 1.2c-1.6-1.6-4.1-1.6-5.7 0l-11 12c2.6 0.94 4.7 3 5.7 5.7l11-11c1-2.7 1-5.3 0-6.8z" fill="#010101"/>
</svg>
