<!DOCTYPE svg  PUBLIC '-//W3C//DTD SVG 1.1//EN'  'http://www.w3.org/Graphics/SVG/1.1/DTD/svg11.dtd'>
<svg style="enable-background:new 0 0 32 32" xmlns="http://www.w3.org/2000/svg" xml:space="preserve" height="32px" width="32px" version="1.1" y="0px" x="0px" xmlns:xlink="http://www.w3.org/1999/xlink" viewBox="0 0 32 32">
	<g fill="#010101">
		<path d="m26 4v2c0 2.2-1.8 4-4 4s-4-1.8-4-4v-2h-4v2c0 2.2-1.8 4-4 4s-4-1.8-4-4v-2h-6v28h32v-28h-6zm-16 24h-4v-4h4v4zm0-8h-4v-4h4v4zm8 8h-4v-4h4v4zm0-8h-4v-4h4v4zm4 8v-4h4l-4 4zm4-8h-4v-4h4v4z"/>
		<path d="m8 6v-4c0-1.1 0.9-2 2-2s2 0.9 2 2v4c0 1.1-0.9 2-2 2s-2-0.9-2-2z"/>
		<path d="m20 6v-4c0-1.1 0.9-2 2-2s2 0.9 2 2v4c0 1.1-0.9 2-2 2s-2-0.9-2-2z"/>
	</g>
</svg>
