<!DOCTYPE svg  PUBLIC '-//W3C//DTD SVG 1.1//EN'  'http://www.w3.org/Graphics/SVG/1.1/DTD/svg11.dtd'>
<svg style="enable-background:new 0 0 32 32" xmlns="http://www.w3.org/2000/svg" xml:space="preserve" height="32px" width="32px" version="1.1" y="0px" x="0px" xmlns:xlink="http://www.w3.org/1999/xlink" viewBox="0 0 32 32">
	<g fill="#010101">
		<polygon points="32 32 0 32 0 4 4 4 4 28 28 28 28 4 32 4"/>
		<rect height="4" width="4" y="12" x="6"/>
		<rect height="4" width="4" y="12" x="14"/>
		<rect height="4" width="4" y="12" x="22"/>
		<rect height="4" width="4" y="20" x="6"/>
		<rect height="4" width="4" y="20" x="14"/>
		<polygon points="22 24 22 20 26 20"/>
		<path d="m8 6v-4c0-1.1 0.9-2 2-2s2 0.9 2 2v4c0 1.1-0.9 2-2 2s-2-0.9-2-2z"/>
		<path d="m20 6v-4c0-1.1 0.9-2 2-2s2 0.9 2 2v4c0 1.1-0.9 2-2 2s-2-0.9-2-2z"/>
	</g>
</svg>
