<!DOCTYPE svg  PUBLIC '-//W3C//DTD SVG 1.1//EN'  'http://www.w3.org/Graphics/SVG/1.1/DTD/svg11.dtd'>
<svg style="enable-background:new 0 0 32 32" xmlns="http://www.w3.org/2000/svg" xml:space="preserve" height="32px" width="32px" version="1.1" y="0px" x="0px" xmlns:xlink="http://www.w3.org/1999/xlink" viewBox="0 0 32 32">
	<g fill="#010101">
		<circle cx="20" r="4" cy="20"/>
		<path d="m28 8l-3.3-6.6c-1-0.83-1-1.4-2-1.4h-6c-0.89 0-1.6 0.58-1.9 1.4l-3 6.6h-8c-2.2 0-4 1.8-4 4v20h32v-20c0-2.2-2-4-4-4zm-22 8c-1.1 0-2-0.9-2-2s0.9-2 2-2 2 0.9 2 2-0.9 2-2 2zm14 12c-4.4 0-8-3.6-8-8s3.6-8 8-8 8 3.6 8 8-4 8-8 8z"/>
	</g>
</svg>
