<!DOCTYPE svg  PUBLIC '-//W3C//DTD SVG 1.1//EN'  'http://www.w3.org/Graphics/SVG/1.1/DTD/svg11.dtd'>
<svg style="enable-background:new 0 0 32 32" xmlns="http://www.w3.org/2000/svg" xml:space="preserve" height="32px" width="32px" version="1.1" y="0px" x="0px" xmlns:xlink="http://www.w3.org/1999/xlink" viewBox="0 0 32 32">
			<path d="m26 12c-0.027 1.4-0.34 2.7-0.88 3.9 3 1 3 3 3 4 0 0.99 0 4-4 4h-4c-2.6 0-4.9 1.3-6.4 3.2-1-1-2-2-2-3v-4c0-0.79 0.14-1.4 0.36-1.9h-3.8c-0.13 0.62-0.2 1.3-0.2 2v4c0 4.4 3.6 8 8 8 0-2.2 1.8-4 4-4h4c4 0 8-2 8-8 0-5-3-7-6-8z" fill="#010101"/>
		<path d="m16 4c1.5 0 4 0.52 4 4v4c0 1.3-0.63 2.5-1.6 3.2-1-2-3-3-6-3h-4c-4 0-4-3-4-4 0-1.2 0-4 4-4h8m0-4h-8c-4 0-8 2.1-8 8 0 5.8 4 8 8 8h4c2.2 0 4 1.8 4 4 4.4 0 8-3.6 8-8v-4c0-5.5-4-8-8-8z" fill="#010101"/>
</svg>
