<!DOCTYPE svg  PUBLIC '-//W3C//DTD SVG 1.1//EN'  'http://www.w3.org/Graphics/SVG/1.1/DTD/svg11.dtd'>
<svg style="enable-background:new 0 0 32 32" xmlns="http://www.w3.org/2000/svg" xml:space="preserve" height="32px" width="32px" version="1.1" y="0px" x="0px" xmlns:xlink="http://www.w3.org/1999/xlink" viewBox="0 0 32 32">
			<path d="m24 12c0 4.4-3.6 8-8 8 0-2.2-1.8-4-4-4h-4c-4 0-8-2-8-8 0-5.9 4-8 8-8h8c4 0 8 2.5 8 8v4z" fill="#010101"/>
		<path d="m12 12" fill="#010101"/>
		<path d="m12 12" fill="#010101"/>
				<path d="m26 12c0 6-5 10-10 10h-2v-2c0-1.1-0.9-2-2-2h-3.8c-0.12 0.62-0.2 1.3-0.2 2v4c0 4.4 3.6 8 8 8 0-2.2 1.8-4 4-4h4c4 0 8-2 8-8 0-5-3-7-6-8z" fill="#010101"/>
</svg>
