<!DOCTYPE svg  PUBLIC '-//W3C//DTD SVG 1.1//EN'  'http://www.w3.org/Graphics/SVG/1.1/DTD/svg11.dtd'>
<svg style="enable-background:new 0 0 32 32" xmlns="http://www.w3.org/2000/svg" xml:space="preserve" height="32px" width="32px" version="1.1" y="0px" x="0px" xmlns:xlink="http://www.w3.org/1999/xlink" viewBox="0 0 32 32">
	<path d="m24 12v-4c0-5.5-4-8-8-8h-8c-4 0-8 2.1-8 8 0 5.8 4 8 8 8h0.93c-0.57 1.1-0.93 2.4-0.93 4v4c0 4.4 3.6 8 8 8 0-2.2 1.8-4 4-4h4c4 0 8-2 8-8s-4-8-8-8zm-16 0c-4 0-4-3-4-4 0-1.2 0-4 4-4h8c1.5 0 4 0.52 4 4v4c0 1.3-0.63 2.5-1.6 3.2-1-2-3-3-6-3h-4zm16 12h-4c-2.6 0-4.9 1.3-6.4 3.2-1-1-2-2-2-3v-4c0-1.8 0.91-2.9 1.8-3.5 1 1 2 2 2 4 3 0 5.5-1.6 6.9-4l-0.004 0.002h1c4 0 4 3 4 4s0 4-4 4zm0-10c-0.027 0.092-0.059 0.18-0.086 0.27z" fill="#010101"/>
</svg>
