<!DOCTYPE svg  PUBLIC '-//W3C//DTD SVG 1.1//EN'  'http://www.w3.org/Graphics/SVG/1.1/DTD/svg11.dtd'>
<svg style="enable-background:new 0 0 32 24" xmlns="http://www.w3.org/2000/svg" xml:space="preserve" height="24px" width="32px" version="1.1" y="0px" x="0px" xmlns:xlink="http://www.w3.org/1999/xlink" viewBox="0 0 32 24">
		<path d="m16 4c11 0 12 4.1 12 8 0 1.3-0.36 2.8-0.75 4h-13c-4.7 0-6.7 0.2-9 1.8-0.94-2.6-1.5-6-0.38-8.8 1.4-3.5 5.2-5.2 11-5.2m0-4c-22 0-16 20-12 24 4-4 4-4 10-4h16s2.1-4 2.1-8c0-10-8-12-16-12z" fill="#010101"/>
</svg>
