<!DOCTYPE svg  PUBLIC '-//W3C//DTD SVG 1.1//EN'  'http://www.w3.org/Graphics/SVG/1.1/DTD/svg11.dtd'>
<svg style="enable-background:new 0 0 28 32" xmlns="http://www.w3.org/2000/svg" xml:space="preserve" height="32px" width="28px" version="1.1" y="0px" x="0px" xmlns:xlink="http://www.w3.org/1999/xlink" viewBox="0 0 28 32">
	<path d="m14 4c5.5 0 10 4.5 10 10s-4.5 10-10 10c-0.71 0-1.5-0.1-2.3-0.32l-1.7-0.42h-1.5l-0.46 0.3 0.004-0.68 0.008-1.7-1.2-1.2c-1.8-1-2.8-3-2.8-6 0-5.5 4.5-10 10-10m0-4c-7.7 0-14 6.3-14 14 0 3.8 1.5 7.3 4 9.8v8l6.7-4.4h3c7.7 0 14-6.3 14-14s-6-14-14-14z" fill="#010101"/>
</svg>
