<!DOCTYPE svg  PUBLIC '-//W3C//DTD SVG 1.1//EN'  'http://www.w3.org/Graphics/SVG/1.1/DTD/svg11.dtd'>
<svg style="enable-background:new 0 0 32 28" xmlns="http://www.w3.org/2000/svg" xml:space="preserve" height="28px" width="32px" version="1.1" y="0px" x="0px" xmlns:xlink="http://www.w3.org/1999/xlink" viewBox="0 0 32 28">
	<path d="m20 4c4.4 0 8 3.6 8 8s-3.6 8-8 8h-8c-2.6 0-4.9 1.3-6.4 3.2-1-1-1.6-2-1.6-3v-10c0-3.3 2.7-6 6-6h10m0-4h-10c-5.5 0-10 4.5-10 10v10c0 4.4 3.6 8 8 8 0-2.2 1.8-4 4-4h8c6.6 0 12-5.4 12-12s-5-12-12-12z" fill="#010101"/>
</svg>
