<!DOCTYPE svg  PUBLIC '-//W3C//DTD SVG 1.1//EN'  'http://www.w3.org/Graphics/SVG/1.1/DTD/svg11.dtd'>
<svg style="enable-background:new 0 0 32 31.828" xmlns="http://www.w3.org/2000/svg" xml:space="preserve" height="32px" width="32px" version="1.1" y="0px" x="0px" xmlns:xlink="http://www.w3.org/1999/xlink" viewBox="0 0 32 31.828">
	<g fill="#010101">
		<circle cx="16" r="4" cy="16"/>
		<path d="m29 6c-0.34 0.28-0.76 0.47-1.2 0.47-1.1 0-2-0.89-2-2 0-0.48 0.2-0.91 0.48-1.3-2.2-1.7-4.9-2.9-7.8-3.2 0 1-1 1.8-2 1.8s-2-0.8-2-1.8c-3 0.38-5.7 1.6-7.9 3.3 0.25 0.34 0.43 0.73 0.43 1.2 0 1.1-0.89 2-2 2-0.44 0-0.84-0.17-1.2-0.42-2 2.7-3.3 5.9-3.3 9.9 0 8.8 7.2 16 16 16s16-7.2 16-16c0-4-1-7.3-3-10zm-13 18c-4.4 0-8-3.6-8-8 0-2.2 0.9-4.2 2.3-5.7l6-5.5 5.6 5.6c1 2 2 4 2 6 0 4-4 8-8 8z"/>
	</g>
</svg>
