<!DOCTYPE svg  PUBLIC '-//W3C//DTD SVG 1.1//EN'  'http://www.w3.org/Graphics/SVG/1.1/DTD/svg11.dtd'>
<svg style="enable-background:new 0 0 31.996 32" xmlns="http://www.w3.org/2000/svg" xml:space="preserve" height="32px" width="32px" version="1.1" y="0px" x="0px" xmlns:xlink="http://www.w3.org/1999/xlink" viewBox="0 0 31.996 32">
	<path d="m30 14c3.1-3.1 3.1-8.2 0-11-1.6-1.6-3.6-2.3-5.6-2.3s-4.1 0.78-5.6 2.3l-0.59 0.59-2-3.6-2.8 2.8 3 3-15 15v7.2l3.9 4h7.4l15-15 2.9 2.9 2.8-2.8-2.9-2.9h1zm-20 13c0.047-1.5-0.48-3-1.6-4.2-1.1-1.1-2.4-1.6-3.8-1.6l13-12 5.6 5.6-14 12z" fill="#010101"/>
</svg>
