<!DOCTYPE svg  PUBLIC '-//W3C//DTD SVG 1.1//EN'  'http://www.w3.org/Graphics/SVG/1.1/DTD/svg11.dtd'>
<svg style="enable-background:new 0 0 32 32" xmlns="http://www.w3.org/2000/svg" xml:space="preserve" height="32px" width="32px" version="1.1" y="0px" x="0px" xmlns:xlink="http://www.w3.org/1999/xlink" viewBox="0 0 32 32">
	<g fill="#010101">
		<polygon points="23 25 29 32 32 29 25 23 28 20 20 20 20 28"/>
		<polygon points="6.5 9.4 4 12 12 12 12 4 9.4 6.5 2.8 0 0 2.8"/>
		<polygon points="0 29 2.8 32 9.4 25 12 28 12 20 4 20 6.6 23"/>
		<polygon points="28 12 25 9.4 32 2.8 29 0 23 6.6 20 4 20 12"/>
	</g>
</svg>
