<!DOCTYPE svg  PUBLIC '-//W3C//DTD SVG 1.1//EN'  'http://www.w3.org/Graphics/SVG/1.1/DTD/svg11.dtd'>
<svg style="enable-background:new 0 0 32 32" xmlns="http://www.w3.org/2000/svg" xml:space="preserve" height="32px" width="32px" version="1.1" y="0px" x="0px" xmlns:xlink="http://www.w3.org/1999/xlink" viewBox="0 0 32 32">
	<g fill="#010101">
		<polygon points="27 25 23 20 20 23 25 27 20 32 32 32 32 20"/>
		<polygon points="12 0 0 0 0 12 4.6 7.4 9.1 12 12 9.1 7.4 4.6"/>
		<polygon points="12 23 9.2 20 4.6 25 0 20 0 32 12 32 7.4 27"/>
		<polygon points="32 0 20 0 25 4.6 20 9.1 23 12 27 7.4 32 12"/>
	</g>
</svg>
