<!DOCTYPE svg  PUBLIC '-//W3C//DTD SVG 1.1//EN'  'http://www.w3.org/Graphics/SVG/1.1/DTD/svg11.dtd'>
<svg style="enable-background:new 0 0 32 32" xmlns="http://www.w3.org/2000/svg" xml:space="preserve" height="32px" width="32px" version="1.1" y="0px" x="0px" xmlns:xlink="http://www.w3.org/1999/xlink" viewBox="0 0 32 32">
	<g fill="#010101">
		<polygon points="25 27 29 32 32 29 27 25 32 20 20 20 20 32"/>
		<polygon points="0 12 12 12 12 0 7.4 4.6 2.9 0.043 0.047 2.9 4.6 7.4"/>
		<polygon points="0 29 2.8 32 7.4 27 12 32 12 20 0 20 4.6 25"/>
		<polygon points="20 12 32 12 27 7.4 32 2.9 29 0.043 25 4.6 20 0"/>
	</g>
</svg>
