<!DOCTYPE svg  PUBLIC '-//W3C//DTD SVG 1.1//EN'  'http://www.w3.org/Graphics/SVG/1.1/DTD/svg11.dtd'>
<svg style="enable-background:new 0 0 32 32" xmlns="http://www.w3.org/2000/svg" xml:space="preserve" height="32px" width="32px" version="1.1" y="0px" x="0px" xmlns:xlink="http://www.w3.org/1999/xlink" viewBox="0 0 32 32">
	<g fill="#010101">
		<polygon points="29 27 23 20 20 23 27 29 24 32 32 32 32 24"/>
		<polygon points="2.6 5.4 9.2 12 12 9.2 5.4 2.6 8 0 0 0 0 8"/>
		<polygon points="27 2.6 20 9.2 23 12 29 5.4 32 8 32 0 24 0"/>
		<polygon points="12 23 9.2 20 2.6 27 0 24 0 32 8 32 5.4 29"/>
	</g>
</svg>
