<!DOCTYPE svg  PUBLIC '-//W3C//DTD SVG 1.1//EN'  'http://www.w3.org/Graphics/SVG/1.1/DTD/svg11.dtd'>
<svg style="enable-background:new 0 0 32 28" xmlns="http://www.w3.org/2000/svg" xml:space="preserve" height="28px" width="32px" version="1.1" y="0px" x="0px" xmlns:xlink="http://www.w3.org/1999/xlink" viewBox="0 0 32 28">
	<path d="m30 16h-2v-4c0-6.6-5.4-12-12-12s-12 5.4-12 12v4h-2c-1.1 0-2 0.9-2 2v8c0 1.1 0.9 2 2 2h6v-16c0-4.4 3.6-8 8-8s8 3.6 8 8v16h6c1.1 0 2-0.9 2-2v-8c0-1-1-2-2-2z" fill="#010101"/>
</svg>
