<!DOCTYPE svg  PUBLIC '-//W3C//DTD SVG 1.1//EN'  'http://www.w3.org/Graphics/SVG/1.1/DTD/svg11.dtd'>
<svg style="enable-background:new 0 0 32 28" xmlns="http://www.w3.org/2000/svg" xml:space="preserve" height="28px" width="32px" version="1.1" y="0px" x="0px" xmlns:xlink="http://www.w3.org/1999/xlink" viewBox="0 0 32 28">
		<path d="m23 4c2.5 0 4.5 1.8 4.8 4.2l-12 14-12-14c0.4-2.2 2.4-4 4.9-4 2 0 3.9 2.2 3.9 2.2l3 3.4 3.3-3.5c0 0.1 2-2.1 4-2.1m0-4c-3 0-5.5 1.6-7.1 3.8-2-2.2-4-3.8-7.1-3.8-4.9 0-8.9 4-8.9 8.9v0.73l16 18 16-18v-1.1c0-4.9-4-8.9-9-8.9z" fill="#010101"/>
</svg>
