<!DOCTYPE svg  PUBLIC '-//W3C//DTD SVG 1.1//EN'  'http://www.w3.org/Graphics/SVG/1.1/DTD/svg11.dtd'>
<svg style="enable-background:new 0 0 24 32" xmlns="http://www.w3.org/2000/svg" xml:space="preserve" height="32px" width="24px" version="1.1" y="0px" x="0px" xmlns:xlink="http://www.w3.org/1999/xlink" viewBox="0 0 24 32">
	<path d="m16 0h-8c-4.4 0-8 3.6-8 8v16c0 4.4 3.6 8 8 8h8c4.4 0 8-3.6 8-8v-16c0-4.4-4-8-8-8zm-4 30c-1.1 0-2.1-0.92-2.1-2.1s0.92-2.1 2.1-2.1 2.1 0.92 2.1 2.1-1 2-2 2zm8-6h-16v-16c0-2.2 1.8-4 4-4h8c2.2 0 4 1.8 4 4v16z" fill="#010101"/>
</svg>
