<!DOCTYPE svg  PUBLIC '-//W3C//DTD SVG 1.1//EN'  'http://www.w3.org/Graphics/SVG/1.1/DTD/svg11.dtd'>
<svg style="enable-background:new 0 0 32 32" xmlns="http://www.w3.org/2000/svg" xml:space="preserve" height="32px" width="32px" version="1.1" y="0px" x="0px" xmlns:xlink="http://www.w3.org/1999/xlink" viewBox="0 0 32 32">
			<path d="m22 0c-5.5 0-10 4.5-10 10 0 0.62 0.074 1.2 0.18 1.8l-12 12v8h12v-4h4v-4h4v-4l0.18-0.18h2c5.5 0 10-4.5 10-10s-4-10-10-10zm0 12c-1.1 0-2-0.9-2-2s0.9-2 2-2 2 0.9 2 2-1 2-2 2z" fill="#010101"/>
</svg>
