<!DOCTYPE svg  PUBLIC '-//W3C//DTD SVG 1.1//EN'  'http://www.w3.org/Graphics/SVG/1.1/DTD/svg11.dtd'>
<svg style="enable-background:new 0 0 32 32" xmlns="http://www.w3.org/2000/svg" xml:space="preserve" height="32px" width="32px" version="1.1" y="0px" x="0px" xmlns:xlink="http://www.w3.org/1999/xlink" viewBox="0 0 32 32">
		<path d="m31 0.59c-0.78-0.78-2.1-0.78-2.8 0l-4.1 4.1c-1-1.1-3-1.7-5-1.7-2.6 0-5.1 0.98-7.1 2.9l-6 6c-3.4 3.4-3.8 8.7-1.3 13l-4.1 4.1c-0.78 0.78-0.78 2 0 2.8h1.4s1-0.2 1.4-0.59l4.1-4.1c1.7 1 3.5 2 5.5 2 2.6 0 5.1-0.98 7.1-2.9l6-6c3.4-3.4 3.8-8.7 1.3-13l4.1-4.1c1-0.3 1-1.5 0-2.3zm-6 12c0 1.6-0.62 3.1-1.8 4.2l-6 6c-1 1-2 2-4 2-0.91 0-1.8-0.22-2.6-0.6l3-3c0.78-0.78 0.78-2 0-2.8s-2-0.78-2.8 0l-2.4 4c-0.4-1-0.6-2-0.6-3 0-1.6 0.62-3.1 1.8-4.2l6-6c1-1.4 2-2 4-2 0.91 0 1.8 0.22 2.6 0.6l-3 3c-0.78 0.78-0.78 2 0 2.8 0.39 0.39 0.9 0.59 1.4 0.59 0.51 0 1-0.2 1.4-0.59l3-3c1 0 1 1 1 2z" fill="#010101"/>
</svg>
