<!DOCTYPE svg  PUBLIC '-//W3C//DTD SVG 1.1//EN'  'http://www.w3.org/Graphics/SVG/1.1/DTD/svg11.dtd'>
<svg style="enable-background:new 0 0 32 28" xmlns="http://www.w3.org/2000/svg" xml:space="preserve" height="28px" width="32px" version="1.1" y="0px" x="0px" xmlns:xlink="http://www.w3.org/1999/xlink" viewBox="0 0 32 28">
	<g fill="#010101">
		<path d="m20 20l6-8 6 8h-4v2c0 3.3-2.7 6-6 6h-12c-3.3 0-6-2.7-6-6v-2h4v2c0 1.1 0.9 2 2 2h12c1.1 0 2-0.9 2-2v-2h-4z"/>
		<path d="m12 8l-6 8-6-8h4v-2c0-3.3 2.7-6 6-6h12c3.3 0 6 2.7 6 6v2h-4v-2c0-1.1-0.9-2-2-2h-12c-1.1 0-2 0.9-2 2v2h4z"/>
	</g>
</svg>
