<!DOCTYPE svg  PUBLIC '-//W3C//DTD SVG 1.1//EN'  'http://www.w3.org/Graphics/SVG/1.1/DTD/svg11.dtd'>
<svg style="enable-background:new 0 0 32 32.001" xmlns="http://www.w3.org/2000/svg" xml:space="preserve" height="32px" width="32px" version="1.1" y="0px" x="0px" xmlns:xlink="http://www.w3.org/1999/xlink" viewBox="0 0 32 32.001">
	<g fill="#010101">
		<path d="m9.8 3.7l-5.8 5.8v-5.7h-4v12h12v-4h-4.7l5.3-5.3c3.4-3.4 9.3-3.4 13 0l2.8-2.8c-6-5.1-14-5.1-19-0.2z"/>
		<path d="m20 16v4h4.7l-5.3 5.3c-3.4 3.4-9.3 3.4-13 0l-2.8 2.8c2.5 2.5 5.7 3.8 9.2 3.8s6.7-1.4 9.2-3.8l6-6v5.6h4v-12h-12z"/>
	</g>
</svg>
