<!DOCTYPE svg  PUBLIC '-//W3C//DTD SVG 1.1//EN'  'http://www.w3.org/Graphics/SVG/1.1/DTD/svg11.dtd'>
<svg style="enable-background:new 0 0 32 24" xmlns="http://www.w3.org/2000/svg" xml:space="preserve" height="24px" width="32px" version="1.1" y="0px" x="0px" xmlns:xlink="http://www.w3.org/1999/xlink" viewBox="0 0 32 24">
	<g fill="#010101">
		<path d="m26 12l-6 6h4c0 1.1-0.9 2-2 2h-12c-1.1 0-2-0.9-2-2v-2h-4v2c0 3.3 2.7 6 6 6h12c3.3 0 6-2.7 6-6h4l-6-6z"/>
		<path d="m22 0h-12c-3.3 0-6 2.7-6 6v0.062h-4l6 5.9 6-5.9h-4v-0.1c0-1.1 0.9-2 2-2h12c1.1 0 2 0.9 2 2v2h4v-2c0-3.3-3-6-6-6z"/>
	</g>
</svg>
