<!DOCTYPE svg  PUBLIC '-//W3C//DTD SVG 1.1//EN'  'http://www.w3.org/Graphics/SVG/1.1/DTD/svg11.dtd'>
<svg style="enable-background:new 0 0 32 32" xmlns="http://www.w3.org/2000/svg" xml:space="preserve" height="32px" width="32px" version="1.1" y="0px" x="0px" xmlns:xlink="http://www.w3.org/1999/xlink" viewBox="0 0 32 32">
	<g fill="#010101">
		<path d="m11 20l-5.7 5.7c0.43 0.43 0.49 0.48 0.92 0.92l5.7-5.7c0-1 0-1-1-1z"/>
		<path d="m20 0c-6 0-12 5.3-12 12 0 1.6 0.32 3.1 0.87 4.4l-8.9 9 6.6 7 9.1-9.2c1.4 0.56 2.9 0.88 4.4 0.88 6.5 0 12-5.3 12-12s-5-12-12-12zm0 20c-4.3 0-7.9-3.5-7.9-7.9 0-4.3 3.5-7.9 7.9-7.9 4.3 0 7.9 3.5 7.9 7.9 0 4-4 8-8 8z"/>
	</g>
</svg>
