<!DOCTYPE svg  PUBLIC '-//W3C//DTD SVG 1.1//EN'  'http://www.w3.org/Graphics/SVG/1.1/DTD/svg11.dtd'>
<svg style="enable-background:new 0 0 20 32" xmlns="http://www.w3.org/2000/svg" xml:space="preserve" height="32px" width="20px" version="1.1" y="0px" x="0px" xmlns:xlink="http://www.w3.org/1999/xlink" viewBox="0 0 20 32">
	<g fill="#010101">
		<path d="m10 4c1.6 0 3.1 0.62 4.2 1.8 1 1.1 2 2.6 2 4.2s-0.62 3.1-1.7 4.2c-0.17 0.17-2.2 2.2-4.3 5.4-2-3.2-4.1-5.3-4.2-5.4-0.9-1-1.5-2-1.5-4s0.62-3.1 1.8-4.2 2.6-1.8 4.2-1.8m0-4c-2.6 0-5.1 0.98-7.1 2.9-3.9 3.9-3.9 10 0 14 0 0 7.1 7 7.1 15 0-8 7.1-15 7.1-15 3.9-3.9 3.9-10 0-14-2-2-4-3-7-3z"/>
		<circle cx="10" r="2" cy="10"/>
	</g>
</svg>
