<!DOCTYPE svg  PUBLIC '-//W3C//DTD SVG 1.1//EN'  'http://www.w3.org/Graphics/SVG/1.1/DTD/svg11.dtd'>
<svg style="enable-background:new 0 0 32 32" xmlns="http://www.w3.org/2000/svg" xml:space="preserve" height="32px" width="32px" version="1.1" y="0px" x="0px" xmlns:xlink="http://www.w3.org/1999/xlink" viewBox="0 0 32 32">
	<path d="m5.9 9.1c0.85 9 8 16 17 17-1.9 1.2-4.2 1.9-6.5 1.9-6.5 0-12-6-12-12 0-3 0.7-5 1.9-6.9m6.1-9.1c-7 2-12 8.2-12 16 0 9 7.3 16 16 16 7.5 0 14-5 16-12-2.2 1.3-4.7 2-7.4 2-8.2 0-15-6.6-15-15-0.2-2.3 1-4.8 2-7z" fill="#010101"/>
</svg>
