<!DOCTYPE svg  PUBLIC '-//W3C//DTD SVG 1.1//EN'  'http://www.w3.org/Graphics/SVG/1.1/DTD/svg11.dtd'>
<svg style="enable-background:new 0 0 27.994 31.922" xmlns="http://www.w3.org/2000/svg" xml:space="preserve" height="32px" width="28px" version="1.1" y="0px" x="0px" xmlns:xlink="http://www.w3.org/1999/xlink" viewBox="0 0 27.994 31.922">
	<path d="m11 32c-2.9 0-5.7-1.1-7.8-3.2-2.1-2-3.2-5-3.2-8 0.002-2.9 1.1-5.7 3.2-7.8l11-11c3-3 8.3-3 11 0.016 3.1 3.1 3.1 8.2 0 11l-10 9.8c-1.9 1.9-5.1 1.9-7.1-0.016-1.9-2-1.9-5.1 0-7.1l3.9-3.9 2.8 2.8-3.9 3.9c-0.26 0.26-0.29 0.55-0.29 0.71s0.037 0.45 0.29 0.71c0.51 0.51 0.9 0.51 1.4 0l10-9.8c1.5-1.5 1.5-4.1-0.016-5.6s-4.1-1.5-5.7 0l-10 11c-1.3 1-2 3-2 5 0 1.9 0.73 3.6 2.1 4.9 2.6 2.6 7.3 2.6 9.9 0l5-5 2.8 2.8-5 5c-2 2-5 3-8 3z" fill="#4E4E50"/>
</svg>
