<!DOCTYPE svg  PUBLIC '-//W3C//DTD SVG 1.1//EN'  'http://www.w3.org/Graphics/SVG/1.1/DTD/svg11.dtd'>
<svg style="enable-background:new 0 0 32 32" xmlns="http://www.w3.org/2000/svg" xml:space="preserve" height="32px" width="32px" version="1.1" y="0px" x="0px" xmlns:xlink="http://www.w3.org/1999/xlink" viewBox="0 0 32 32">
	<path d="m32 8c0-4.4-3.6-8-8-8-3 0-5.6 1.7-6.9 4.1 0-0.002 0.004-0.004 0.004-0.006-0.37-0.035-0.72-0.11-1.1-0.11-6.6 0-12 5.4-12 12 0 2.5 0.79 4.9 2.1 6.8l-6.1 9 9.3-6.1c1.9 1.3 4.2 2 6.7 2 6.6 0 12-5.4 12-12 0-0.35-0.07-0.67-0.1-1 2-1 4-4 4-7zm-16 16c-4.4 0-8-3.6-8-8s3.6-8 8-8c0.012 0 0.023 0.004 0.031 0.004 0-0.008 0.004-0.014 0.004-0.02 0 0.7 0.12 1.4 0.28 2l-3.2 3.2c-1.6 1.6-1.6 4.1 0 5.7s4.1 1.6 5.7 0l3.1-3.1c0.66 0.18 1.3 0.3 2.1 0.31 0 4-4 8-8 8zm8-12c-2.2 0-4-1.8-4-4s1.8-4 4-4 4 1.8 4 4-2 4-4 4z" fill="#010101"/>
</svg>
