<!DOCTYPE svg  PUBLIC '-//W3C//DTD SVG 1.1//EN'  'http://www.w3.org/Graphics/SVG/1.1/DTD/svg11.dtd'>
<svg style="enable-background:new 0 0 31.998 32" xmlns="http://www.w3.org/2000/svg" xml:space="preserve" height="32px" width="32px" version="1.1" y="0px" x="0px" xmlns:xlink="http://www.w3.org/1999/xlink" viewBox="0 0 31.998 32">
	<path d="m28 24c-0.97 0-1.8 0.39-2.5 0.96l-6.1-4.4v-3c0-1.3-0.42-2.5-1.1-3.5l7.1-7.1c1 0.8 1 1.1 2 1.1 2.2 0 4-1.8 4-4s-1.8-4-4-4-4 1.8-4 4c0 0.74 0.26 1.4 0.6 2l-7.1 7.1c-2-1-3-1-4-1-2.3 0-4.3 1.3-5.3 3.2l-4.8-1.6c-0.2 0-0.9-1-1.9-1-1.1 0-2 0.9-2 2s0.9 2 2 2c0.5 0 0.95-0.2 1.3-0.51l4.8 1.6c-0.1 0-0.1 1-0.1 1 0 3.3 2.7 6 6 6 1.6 0 3.1-0.67 4.2-1.7l6.1 4.3c-0.17 0.44-0.29 0.92-0.29 1.4 0 2.2 1.8 4 4 4s4-1.8 4-4-2-3-4-3z" fill="#010101"/>
</svg>
