<!DOCTYPE svg  PUBLIC '-//W3C//DTD SVG 1.1//EN'  'http://www.w3.org/Graphics/SVG/1.1/DTD/svg11.dtd'>
<svg style="enable-background:new 0 0 32 32" xmlns="http://www.w3.org/2000/svg" xml:space="preserve" height="32px" width="32px" version="1.1" y="0px" x="0px" xmlns:xlink="http://www.w3.org/1999/xlink" viewBox="0 0 32 32">
	<path d="m16 0c-8.8 0-16 7.2-16 16s7.2 16 16 16 16-7.2 16-16-7-16-16-16zm0 4c5.2 0 9.6 3.4 11 8h-22c1.4-4.6 6-8 11-8zm0 14c-1.1 0-2-0.9-2-2s0.9-2 2-2 2 0.9 2 2-1 2-2 2zm-12-2c5.5 0 9.9 5.3 10 12-5.7-1-10-6-10-12zm14 12c0-7 5-12 10-12 0 6-4 11-10 12z" fill="#010101"/>
</svg>
