<!DOCTYPE svg  PUBLIC '-//W3C//DTD SVG 1.1//EN'  'http://www.w3.org/Graphics/SVG/1.1/DTD/svg11.dtd'>
<svg style="enable-background:new 0 0 31.998 32" xmlns="http://www.w3.org/2000/svg" xml:space="preserve" height="32px" width="32px" version="1.1" y="0px" x="0px" xmlns:xlink="http://www.w3.org/1999/xlink" viewBox="0 0 31.998 32">
	<g fill="#010101">
		<path d="m16 12c2.2 0 4 1.8 4 4s-1.8 4-4 4-4-1.8-4-4 2-4 4-4m0-4c-4.4 0-8 3.6-8 8s3.6 8 8 8 8-3.6 8-8-4-8-8-8z"/>
		<circle cx="16" r="2" cy="2"/>
		<circle cx="6" r="2" cy="6"/>
		<path d="m2 14c1.1 0 2 0.9 2 2s-0.9 2-2 2-2-0.89-2-2c0-1 0.9-2 2-2z"/>
		<circle cx="6" r="2" cy="26"/>
		<path d="m14 30c0-1.1 0.9-2 2-2s2 0.89 2 2-0.89 2-2 2c-1 0-2-1-2-2z"/>
		<path d="m25 27c-0.78-0.78-0.78-2 0-2.8 0.79-0.78 2-0.78 2.8 0s0.79 2 0 2.8c-1 1-3 1-3 0z"/>
		<path d="m30 18c-1.1 0-2-0.9-2-2s0.89-2 2-2 2 0.89 2 2c0 1-1 2-2 2z"/>
		<path d="m27 7.4c-0.78 0.78-2 0.78-2.8 0-0.78-0.78-0.78-2 0-2.8 0.78-0.78 2-0.78 2.8 0.002 1 0.8 1 2 0 2.8z"/>
	</g>
</svg>
