<!DOCTYPE svg  PUBLIC '-//W3C//DTD SVG 1.1//EN'  'http://www.w3.org/Graphics/SVG/1.1/DTD/svg11.dtd'>
<svg style="enable-background:new 0 0 32 32" xmlns="http://www.w3.org/2000/svg" xml:space="preserve" height="32px" width="32px" version="1.1" y="0px" x="0px" xmlns:xlink="http://www.w3.org/1999/xlink" viewBox="0 0 32 32">
	<path d="m28 4h-4c0-2.2-1.8-4-4-4h-8c-2.2 0-4 1.8-4 4h-8v4h4v18c0 3.3 2.7 6 6 6h12c3.3 0 6-2.7 6-6v-18h4v-4h-4zm-16 20c-1.1 0-2-0.9-2-2s0.9-2 2-2 2 0.9 2 2-1 2-2 2zm0-8c-1.1 0-2-0.9-2-2s0.9-2 2-2 2 0.9 2 2-1 2-2 2zm8 8c-1.1 0-2-0.9-2-2s0.9-2 2-2 2 0.9 2 2-1 2-2 2zm0-8c-1.1 0-2-0.9-2-2s0.9-2 2-2 2 0.9 2 2-1 2-2 2z" fill="#010101"/>
</svg>
