<!DOCTYPE svg  PUBLIC '-//W3C//DTD SVG 1.1//EN'  'http://www.w3.org/Graphics/SVG/1.1/DTD/svg11.dtd'>
<svg style="enable-background:new 0 0 31.998 32" xmlns="http://www.w3.org/2000/svg" xml:space="preserve" height="32px" width="32px" version="1.1" y="0px" x="0px" xmlns:xlink="http://www.w3.org/1999/xlink" viewBox="0 0 31.998 32">
	<path d="m16 0c-8.8 0-16 7.2-16 16h4c0-0.83 0.68-1.5 1.5-1.5 0.8 0 1.5 1 1.5 2h4c0-0.83 0.68-1.5 1.5-1.5 0.83 0 1.5 0.67 1.5 1.5v10c0 1.1-0.9 2-2 2s-2-0.9-2-2h-4c0 3.3 2.7 6 6 6s6-2.7 6-6v-10c0-0.83 0.68-1.5 1.5-1.5 0.83 0 1.5 0.67 1.5 1.5h4c0-0.83 0.68-1.5 1.5-1.5 0.83 0 1.5 0.67 1.5 1.5h4c-2-8.8-9-16-18-16z" fill="#010101"/>
</svg>
