<!DOCTYPE svg  PUBLIC '-//W3C//DTD SVG 1.1//EN'  'http://www.w3.org/Graphics/SVG/1.1/DTD/svg11.dtd'>
<svg style="enable-background:new 0 0 32 24" xmlns="http://www.w3.org/2000/svg" xml:space="preserve" height="24px" width="32px" version="1.1" y="0px" x="0px" xmlns:xlink="http://www.w3.org/1999/xlink" viewBox="0 0 32 24">
			<path d="m8 20c-4.4 0-8-3.6-8-8s3.6-8 8-8v16z" fill="#010101"/>
			<polygon points="12 4 20 0 20 24 12 20" fill="#010101"/>
		<path d="m24 20v-4c0.33 0 0.67-0.043 1-0.12 2-1 3-2 3-4s-1.2-3.4-3-3.9c-0.32-0.078-0.65-0.12-0.98-0.12v-4c0.66 0 1.3 0.082 2 0.24 4 1 6 4.1 6 7.8s-2.5 6.9-6 7.8h-2z" fill="#010101"/>
</svg>
