<!DOCTYPE svg  PUBLIC '-//W3C//DTD SVG 1.1//EN'  'http://www.w3.org/Graphics/SVG/1.1/DTD/svg11.dtd'>
<svg style="enable-background:new 0 0 31.998 32" xmlns="http://www.w3.org/2000/svg" xml:space="preserve" height="32px" width="32px" version="1.1" y="0px" x="0px" xmlns:xlink="http://www.w3.org/1999/xlink" viewBox="0 0 31.998 32">
	<path d="m32 5.6l-5 5h-5.2v-5.7l5-5c-1-0.15-2-0.3-3-0.3-4 0-8 3.6-8 8 0 1.2 0.3 2.4 0.8 3.4l-16 16c-0.7 1-1 2-1 2 0 2 1.2 3 2.7 3 0.74 0 1.4-0.3 1.9-0.78l16-16c1 1 2 1 3 1 4.4 0 8-3.6 8-8v-2.4z" fill="#010101"/>
</svg>
