<?xml version="1.0" encoding="utf-8"?>
<!-- Generator: Adobe Illustrator 14.0.0, SVG Export Plug-In . SVG Version: 6.00 Build 43363)  -->
<!DOCTYPE svg PUBLIC "-//W3C//DTD SVG 1.1//EN" "http://www.w3.org/Graphics/SVG/1.1/DTD/svg11.dtd">
<svg version="1.1" id="Layer_1" xmlns="http://www.w3.org/2000/svg" xmlns:xlink="http://www.w3.org/1999/xlink" x="0px" y="0px"
	 width="18.664px" height="32px" viewBox="0 0 18.664 32" enable-background="new 0 0 18.664 32" xml:space="preserve">
<path fill="#231F20" d="M9.211,32c-2.359,0-4.719-0.896-6.516-2.69c-3.594-3.599-3.594-9.449,0-13.04l8.11-7.937
	c0.461-0.465,0.727-1.102,0.727-1.785c0-0.68-0.266-1.321-0.742-1.805C9.797,3.751,8.18,3.754,7.18,4.747
	c-0.984,0.992-0.984,2.61,0.008,3.602L4.359,11.18C1.805,8.626,1.805,4.473,4.352,1.918c2.562-2.56,6.71-2.554,9.266-0.003
	c1.241,1.238,1.922,2.886,1.922,4.637c0,1.75-0.681,3.396-1.922,4.629l-8.109,7.935c-2.023,2.018-2.023,5.33,0.016,7.365
	c2.031,2.035,5.344,2.031,7.383,0c2.031-2.035,2.031-5.35,0-7.382l-1.422-1.414l4.352-4.348l2.828,2.828l-1.672,1.671
	c2.266,3.564,1.852,8.359-1.258,11.473C13.938,31.103,11.57,32,9.211,32L9.211,32z"/>
</svg>
