<?xml version="1.0" encoding="utf-8"?>
<!-- Generator: Adobe Illustrator 14.0.0, SVG Export Plug-In . SVG Version: 6.00 Build 43363)  -->
<!DOCTYPE svg PUBLIC "-//W3C//DTD SVG 1.1//EN" "http://www.w3.org/Graphics/SVG/1.1/DTD/svg11.dtd">
<svg version="1.1" id="Layer_1" xmlns="http://www.w3.org/2000/svg" xmlns:xlink="http://www.w3.org/1999/xlink" x="0px" y="0px"
	 width="32px" height="32px" viewBox="0 0 32 32" enable-background="new 0 0 32 32" xml:space="preserve">
<g>
	<path d="M30.309,8.973l-9.971,9.973h11.365C31.881,17.984,32,17.008,32,16C32,13.466,31.357,11.102,30.309,8.973z"/>
	<path d="M21.057,15.24l8.199-8.198c-1.949-2.88-4.84-5.022-8.199-6.147V15.24z"/>
	<path d="M16.749,21.055l8.205,8.207c2.881-1.949,5.027-4.844,6.152-8.207H16.749z"/>
	<path d="M18.943,11.745V0.297C17.986,0.12,17.008,0,16,0c-2.555,0-4.938,0.654-7.08,1.721L18.943,11.745z"/>
	<path d="M13.056,20.352v11.352C14.014,31.883,14.992,32,16,32c2.531,0,4.893-0.641,7.02-1.688L13.056,20.352z"/>
	<path d="M10.944,16.773L2.75,24.965c1.949,2.875,4.837,5.016,8.194,6.141V16.773z"/>
	<path d="M0.297,13.057C0.119,14.013,0,14.992,0,16c0,2.539,0.645,4.906,1.695,7.035l9.978-9.978H0.297z"/>
	<path d="M6.996,2.781C4.141,4.73,2.014,7.604,0.895,10.943h14.263L6.996,2.781z"/>
</g>
</svg>
