<?xml version="1.0" encoding="iso-8859-1"?>
<!-- Generator: Adobe Illustrator 15.1.0, SVG Export Plug-In . SVG Version: 6.00 Build 0)  -->
<!DOCTYPE svg PUBLIC "-//W3C//DTD SVG 1.1//EN" "http://www.w3.org/Graphics/SVG/1.1/DTD/svg11.dtd">
<svg version="1.1" xmlns="http://www.w3.org/2000/svg" xmlns:xlink="http://www.w3.org/1999/xlink" x="0px" y="0px" width="32px"
	 height="16px" viewBox="0 0 32 16" style="enable-background:new 0 0 32 16;" xml:space="preserve">
<g id="Layer_1">
</g>
<g id="battery_x5F_charging">
	<path style="fill:#010101;" d="M28,4V2c0-1.1-0.898-2-2-2H2C0.898,0,0,0.9,0,2v4.043h6.387c0.824-2.324,3.023-4,5.633-4V4h3.984v2
		H12.02v4h4.066v2H12.02v2.043c-2.609,0-4.809-1.676-5.633-4H0V14c0,1.102,0.898,2,2,2h24c1.102,0,2-0.898,2-2v-2h4V4H28z"/>
</g>
</svg>
