<?xml version="1.0" encoding="iso-8859-1"?>
<!-- Generator: Adobe Illustrator 15.1.0, SVG Export Plug-In . SVG Version: 6.00 Build 0)  -->
<!DOCTYPE svg PUBLIC "-//W3C//DTD SVG 1.1//EN" "http://www.w3.org/Graphics/SVG/1.1/DTD/svg11.dtd">
<svg version="1.1" xmlns="http://www.w3.org/2000/svg" xmlns:xlink="http://www.w3.org/1999/xlink" x="0px" y="0px"
	 width="31.998px" height="32px" viewBox="0 0 31.998 32" style="enable-background:new 0 0 31.998 32;" xml:space="preserve">
<g id="Layer_1">
</g>
<g id="brush">
	<g>
		<path style="fill:#010101;" d="M15.996,21.332c0-2.945-2.391-5.332-5.336-5.332s-5.332,2.387-5.332,5.332l0.004,0.004
			C5.328,25.281,3.184,28.723,0,30.566l0.016,0.02C1.582,31.484,3.395,32,5.332,32C11.223,32,16,27.223,16,21.332H15.996z"/>
		<g>
			<path style="fill:#010101;" d="M30.826,1.172c-1.562-1.562-4.094-1.562-5.656,0L13.77,12.57c2.641,0.941,4.719,3.02,5.656,5.66
				l11.4-11.402C32.389,5.266,32.389,2.734,30.826,1.172z"/>
		</g>
	</g>
</g>
</svg>
