<?xml version="1.0" encoding="utf-8"?>
<!-- Generator: Adobe Illustrator 14.0.0, SVG Export Plug-In . SVG Version: 6.00 Build 43363)  -->
<!DOCTYPE svg PUBLIC "-//W3C//DTD SVG 1.1//EN" "http://www.w3.org/Graphics/SVG/1.1/DTD/svg11.dtd">
<svg version="1.1" id="Layer_1" xmlns="http://www.w3.org/2000/svg" xmlns:xlink="http://www.w3.org/1999/xlink" x="0px" y="0px"
	 width="32px" height="32px" viewBox="0 0 32 32" enable-background="new 0 0 32 32" xml:space="preserve">
<g>
	<path d="M15.996,21.331c0-2.945-2.391-5.331-5.34-5.331c-2.941,0-5.328,2.386-5.328,5.331c0,0.005,0,0.005,0,0.005
		c0,3.945-2.145,7.386-5.328,9.229l0.016,0.021C1.578,31.484,3.391,32,5.328,32C11.219,32,16,27.222,16,21.331H15.996z"/>
	<g>
		<path d="M30.828,1.172c-1.562-1.562-4.094-1.562-5.656,0L13.766,12.57c2.641,0.942,4.719,3.021,5.656,5.659L30.828,6.828
			C32.391,5.266,32.391,2.734,30.828,1.172z"/>
	</g>
</g>
</svg>
