<?xml version="1.0" encoding="iso-8859-1"?>
<!-- Generator: Adobe Illustrator 15.1.0, SVG Export Plug-In . SVG Version: 6.00 Build 0)  -->
<!DOCTYPE svg PUBLIC "-//W3C//DTD SVG 1.1//EN" "http://www.w3.org/Graphics/SVG/1.1/DTD/svg11.dtd">
<svg version="1.1" xmlns="http://www.w3.org/2000/svg" xmlns:xlink="http://www.w3.org/1999/xlink" x="0px" y="0px" width="32px"
	 height="32px" viewBox="0 0 32 32" style="enable-background:new 0 0 32 32;" xml:space="preserve">
<g id="Layer_1">
</g>
<g id="camera">
	<g>
		<circle style="fill:#010101;" cx="20" cy="20" r="4"/>
		<path style="fill:#010101;" d="M28,8l-3.289-6.643C24.441,0.568,23.695,0,22.812,0H17.32c-0.893,0-1.646,0.582-1.904,1.385
			L12.004,8H4c-2.209,0-4,1.791-4,4v20h32V12C32,9.791,30.211,8,28,8z M6,16c-1.105,0-2-0.895-2-2s0.895-2,2-2s2,0.895,2,2
			S7.105,16,6,16z M20,28c-4.418,0-8-3.582-8-8s3.582-8,8-8s8,3.582,8,8S24.418,28,20,28z"/>
	</g>
</g>
</svg>
