<?xml version="1.0" encoding="utf-8"?>
<!-- Generator: Adobe Illustrator 14.0.0, SVG Export Plug-In . SVG Version: 6.00 Build 43363)  -->
<!DOCTYPE svg PUBLIC "-//W3C//DTD SVG 1.1//EN" "http://www.w3.org/Graphics/SVG/1.1/DTD/svg11.dtd">
<svg version="1.1" id="Layer_1" xmlns="http://www.w3.org/2000/svg" xmlns:xlink="http://www.w3.org/1999/xlink" x="0px" y="0px"
	 width="32px" height="32px" viewBox="0 0 32 32" enable-background="new 0 0 32 32" xml:space="preserve">
<g>
	<circle cx="20" cy="20" r="4"/>
	<path d="M28,8l-3.293-6.643C24.441,0.568,23.695,0,22.812,0H17.32c-0.894,0-1.645,0.582-1.903,1.385L12.004,8H4
		c-2.208,0-4,1.792-4,4v20h32V12C32,9.792,30.207,8,28,8z M6,16c-1.105,0-2-0.895-2-2s0.895-2,2-2s2,0.895,2,2S7.105,16,6,16z
		 M20,28c-4.418,0-8-3.582-8-8s3.582-8,8-8s8,3.582,8,8S24.418,28,20,28z"/>
</g>
</svg>
