<?xml version="1.0" encoding="utf-8"?>
<!-- Generator: Adobe Illustrator 14.0.0, SVG Export Plug-In . SVG Version: 6.00 Build 43363)  -->
<!DOCTYPE svg PUBLIC "-//W3C//DTD SVG 1.1//EN" "http://www.w3.org/Graphics/SVG/1.1/DTD/svg11.dtd">
<svg version="1.1" id="Layer_1" xmlns="http://www.w3.org/2000/svg" xmlns:xlink="http://www.w3.org/1999/xlink" x="0px" y="0px"
	 width="32px" height="32px" viewBox="0 0 32 32" enable-background="new 0 0 32 32" xml:space="preserve">
<g>
	<path d="M24,4c-0.379,0-0.738,0.062-1.102,0.109C21.504,1.648,18.926,0,16,0c-2.988,0-5.567,1.664-6.941,4.102
		C8.707,4.055,8.356,4,8,4c-4.411,0-8,3.586-8,8s3.589,8,8,8h16c4.41,0,8-3.586,8-8S28.41,4,24,4z M24,16H8c-2.207,0-4-1.797-4-4
		c0-2.195,1.942-3.883,4.004-3.945C8.012,9,8.176,9.922,8.504,10.797l3.746-1.398C12.083,8.953,12,8.484,12,8c0-2.203,1.793-4,4-4
		c1.293,0,2.465,0.641,3.199,1.641C17.27,7.102,16,9.396,16,12h4c0-2.203,1.793-4,4-4s4,1.797,4,4S26.207,16,24,16z"/>
	<g>
		<polygon points="18.004,26 22.004,26 16.004,20 10.003,26 14.003,26 14.003,32 18.004,32 		"/>
	</g>
</g>
</svg>
