<?xml version="1.0" encoding="utf-8"?>
<!-- Generator: Adobe Illustrator 14.0.0, SVG Export Plug-In . SVG Version: 6.00 Build 43363)  -->
<!DOCTYPE svg PUBLIC "-//W3C//DTD SVG 1.1//EN" "http://www.w3.org/Graphics/SVG/1.1/DTD/svg11.dtd">
<svg version="1.1" id="Layer_1" xmlns="http://www.w3.org/2000/svg" xmlns:xlink="http://www.w3.org/1999/xlink" x="0px" y="0px"
	 width="32px" height="32px" viewBox="0 0 32 32" enable-background="new 0 0 32 32" xml:space="preserve">
<g>
	<path d="M24,4c-0.379,0-0.738,0.058-1.102,0.114C21.504,1.646,18.926,0,16,0c-2.988,0-5.567,1.667-6.941,4.099
		C8.707,4.052,8.356,4,8,4c-4.411,0-8,3.589-8,8s3.589,8,8,8h6v6h-4l5.997,6L22,26h-4v-6h6c4.41,0,8-3.589,8-8S28.41,4,24,4z M24,16
		H8c-2.207,0-4-1.792-4-4c0-2.192,1.942-3.886,4.004-3.945c0.008,0.94,0.172,1.872,0.5,2.747l3.746-1.406
		C12.083,8.953,12,8.479,12,8c0-2.208,1.793-4,4-4c1.293,0,2.465,0.641,3.199,1.636C17.27,7.099,16,9.396,16,12h4
		c0-2.208,1.793-4,4-4s4,1.792,4,4S26.207,16,24,16z"/>
</g>
</svg>
