<?xml version="1.0" encoding="utf-8"?>
<!-- Generator: Adobe Illustrator 14.0.0, SVG Export Plug-In . SVG Version: 6.00 Build 43363)  -->
<!DOCTYPE svg PUBLIC "-//W3C//DTD SVG 1.1//EN" "http://www.w3.org/Graphics/SVG/1.1/DTD/svg11.dtd">
<svg version="1.1" id="Layer_1" xmlns="http://www.w3.org/2000/svg" xmlns:xlink="http://www.w3.org/1999/xlink" x="0px" y="0px"
	 width="32px" height="32px" viewBox="0 0 32 32" enable-background="new 0 0 32 32" xml:space="preserve">
<g id="Layer_1_1_">
</g>
<g id="cog_x5F_alt_x5F_32x32">
	<path fill="#231F20" d="M32,17.969v-4l-4.781-1.992c-0.133-0.375-0.273-0.737-0.445-1.094l1.931-4.805L25.875,3.25l-4.764,1.961
		c-0.361-0.175-0.733-0.323-1.116-0.461L17.969,0h-4l-1.977,4.734c-0.398,0.141-0.781,0.289-1.161,0.469L6.078,3.294L3.25,6.122
		l1.938,4.711C5,11.219,4.847,11.614,4.703,12.021L0,14.031v4l4.706,1.961c0.146,0.406,0.302,0.802,0.489,1.188l-1.903,4.742
		L6.12,28.75l4.724-1.945c0.378,0.18,0.766,0.325,1.164,0.461L14.031,32h4l1.979-4.758c0.381-0.141,0.756-0.289,1.114-0.461
		l4.797,1.922l2.828-2.828l-1.97-4.773c0.168-0.358,0.306-0.722,0.438-1.094L32,17.969z M15.969,22c-3.312,0-6-2.688-6-6
		c0-3.312,2.688-6,6-6s6,2.688,6,6C21.969,19.312,19.281,22,15.969,22z"/>
</g>
</svg>
