<?xml version="1.0" encoding="iso-8859-1"?>
<!-- Generator: Adobe Illustrator 15.1.0, SVG Export Plug-In . SVG Version: 6.00 Build 0)  -->
<!DOCTYPE svg PUBLIC "-//W3C//DTD SVG 1.1//EN" "http://www.w3.org/Graphics/SVG/1.1/DTD/svg11.dtd">
<svg version="1.1" xmlns="http://www.w3.org/2000/svg" xmlns:xlink="http://www.w3.org/1999/xlink" x="0px" y="0px" width="32px"
	 height="24px" viewBox="0 0 32 24" style="enable-background:new 0 0 32 24;" xml:space="preserve">
<g id="Layer_1">
</g>
<g id="comment_x5F_alt1_x5F_stroke">
	<g>
		<path style="fill:#010101;" d="M16.003,4C27.074,4,28,8.129,28,12c0,1.344-0.355,2.805-0.746,4h-13.25
			c-4.703,0-6.738,0.195-9,1.758c-0.938-2.57-1.539-6.047-0.379-8.84C5.976,5.656,9.804,4,16.003,4 M16.003,0
			C-6.368,0,0.011,20,4.007,24c4-4,4-4,9.996-4h15.934c0,0,2.063-4,2.063-8C32,2,24.003,0,16.003,0L16.003,0z"/>
	</g>
</g>
</svg>
