<?xml version="1.0" encoding="utf-8"?>
<!-- Generator: Adobe Illustrator 14.0.0, SVG Export Plug-In . SVG Version: 6.00 Build 43363)  -->
<!DOCTYPE svg PUBLIC "-//W3C//DTD SVG 1.1//EN" "http://www.w3.org/Graphics/SVG/1.1/DTD/svg11.dtd">
<svg version="1.1" id="Layer_1" xmlns="http://www.w3.org/2000/svg" xmlns:xlink="http://www.w3.org/1999/xlink" x="0px" y="0px"
	 width="28px" height="32px" viewBox="0 0 28 32" enable-background="new 0 0 28 32" xml:space="preserve">
<path d="M14,4c5.516,0,10,4.484,10,10s-4.484,10-10,10c-0.708,0-1.474-0.104-2.336-0.317l-1.703-0.422l-1.466,0.969l-0.456,0.302
	l0.003-0.683l0.013-1.653l-1.164-1.175C5.026,19.13,4,16.636,4,14C4,8.484,8.484,4,14,4 M14,0C6.273,0,0,6.271,0,14
	c0,3.833,1.547,7.297,4.042,9.828L4,32l6.703-4.433C11.766,27.828,12.859,28,14,28c7.729,0,14-6.271,14-14S21.729,0,14,0L14,0z"/>
</svg>
