<?xml version="1.0" encoding="iso-8859-1"?>
<!-- Generator: Adobe Illustrator 15.1.0, SVG Export Plug-In . SVG Version: 6.00 Build 0)  -->
<!DOCTYPE svg PUBLIC "-//W3C//DTD SVG 1.1//EN" "http://www.w3.org/Graphics/SVG/1.1/DTD/svg11.dtd">
<svg version="1.1" xmlns="http://www.w3.org/2000/svg" xmlns:xlink="http://www.w3.org/1999/xlink" x="0px" y="0px" width="32px"
	 height="32px" viewBox="0 0 32 32" style="enable-background:new 0 0 32 32;" xml:space="preserve">
<g id="Layer_1">
</g>
<g id="compass">
	<g>
		<path style="fill:#010101;" d="M16,4c6.617,0,12,5.383,12,12s-5.383,12-12,12S4,22.617,4,16S9.383,4,16,4 M16,0
			C7.164,0,0,7.164,0,16s7.164,16,16,16s16-7.164,16-16S24.836,0,16,0L16,0z"/>
		<g>
			<path style="fill:#010101;" d="M18.125,13.879c0.797,0.799,1.008,1.93,0.719,2.943L24,8l-8.703,5.139
				C16.281,12.896,17.355,13.109,18.125,13.879z"/>
			<path style="fill:#010101;" d="M13.883,18.121c-0.773-0.771-0.984-1.85-0.742-2.836L8,24l8.832-5.16
				C15.816,19.133,14.684,18.922,13.883,18.121z"/>
		</g>
	</g>
</g>
</svg>
