<?xml version="1.0" encoding="iso-8859-1"?>
<!-- Generator: Adobe Illustrator 15.1.0, SVG Export Plug-In . SVG Version: 6.00 Build 0)  -->
<!DOCTYPE svg PUBLIC "-//W3C//DTD SVG 1.1//EN" "http://www.w3.org/Graphics/SVG/1.1/DTD/svg11.dtd">
<svg version="1.1" xmlns="http://www.w3.org/2000/svg" xmlns:xlink="http://www.w3.org/1999/xlink" x="0px" y="0px" width="28px"
	 height="32px" viewBox="0 0 28 32" style="enable-background:new 0 0 28 32;" xml:space="preserve">
<g id="Layer_1">
</g>
<g id="fork">
	<g>
		<path style="fill:#010101;" d="M20,0v3.875c0,1.602-0.625,3.109-1.754,4.238L6.93,19.367C5.141,21.152,4.156,23.496,4.047,26H0
			l6,6l6-6H8.043c0.105-1.438,0.684-2.773,1.711-3.805l11.316-11.25C22.961,9.055,24,6.547,24,3.875V0H20z"/>
		<path style="fill:#010101;" d="M23.953,26c-0.109-2.504-1.098-4.848-2.887-6.641l-2.23-2.215L16,19.965l2.242,2.23
			c1.031,1.027,1.609,2.367,1.715,3.805H16l6,6l6-6H23.953z"/>
	</g>
</g>
</svg>
