<?xml version="1.0" encoding="iso-8859-1"?>
<!-- Generator: Adobe Illustrator 15.1.0, SVG Export Plug-In . SVG Version: 6.00 Build 0)  -->
<!DOCTYPE svg PUBLIC "-//W3C//DTD SVG 1.1//EN" "http://www.w3.org/Graphics/SVG/1.1/DTD/svg11.dtd">
<svg version="1.1" xmlns="http://www.w3.org/2000/svg" xmlns:xlink="http://www.w3.org/1999/xlink" x="0px" y="0px" width="32px"
	 height="32px" viewBox="0 0 32 32" style="enable-background:new 0 0 32 32;" xml:space="preserve">
<g id="Layer_1">
</g>
<g id="key_x5F_stroke">
	<g>
		<path style="fill:#010101;" d="M22,4c3.309,0,6,2.691,6,6s-2.691,6-6,6c-0.312,0-0.656-0.039-1.086-0.117l-2.07-0.383
			l-1.488,1.488l-0.184,0.184L16,18.344V20h-4v4H8v4H4v-2.344l11.012-11.012l1.488-1.488l-0.383-2.07C16.037,10.656,16,10.312,16,10
			C16,6.691,18.691,4,22,4 M22,0c-5.523,0-10,4.477-10,10c0,0.625,0.074,1.227,0.184,1.816L0,24v8h12v-4h4v-4h4v-4l0.184-0.184
			C20.773,19.926,21.375,20,22,20c5.523,0,10-4.477,10-10S27.523,0,22,0L22,0z"/>
		<circle style="fill:#010101;" cx="22.008" cy="10" r="2"/>
	</g>
</g>
</svg>
