<?xml version="1.0" encoding="iso-8859-1"?>
<!-- Generator: Adobe Illustrator 15.1.0, SVG Export Plug-In . SVG Version: 6.00 Build 0)  -->
<!DOCTYPE svg PUBLIC "-//W3C//DTD SVG 1.1//EN" "http://www.w3.org/Graphics/SVG/1.1/DTD/svg11.dtd">
<svg version="1.1" xmlns="http://www.w3.org/2000/svg" xmlns:xlink="http://www.w3.org/1999/xlink" x="0px" y="0px" width="20px"
	 height="32px" viewBox="0 0 20 32" style="enable-background:new 0 0 20 32;" xml:space="preserve">
<g id="Layer_1">
</g>
<g id="lightbulb">
	<g>
		<path style="fill:#010101;" d="M10,4.008c3.311,0,6,2.699,6,6.016c0,1.895-0.863,3.637-2.373,4.773
			c-2.258,1.707-3.17,3.594-3.484,5.18H9.857c-0.312-1.586-1.227-3.473-3.484-5.18c-1.508-1.137-2.375-2.879-2.375-4.773
			C3.998,6.707,6.689,4.008,10,4.008 M10,0C4.477,0,0,4.488,0,10.023C0,13.305,1.545,16.172,3.969,18
			c1.115,0.844,2.035,1.93,2.035,3.43v2.555h7.994V21.43c0-1.5,0.92-2.586,2.033-3.43C18.457,16.172,20,13.305,20,10.023
			C20,4.488,15.523,0,10,0L10,0z"/>
		<rect x="6.004" y="27.992" style="fill:#010101;" width="7.994" height="4.008"/>
	</g>
</g>
</svg>
