<?xml version="1.0" encoding="iso-8859-1"?>
<!-- Generator: Adobe Illustrator 15.1.0, SVG Export Plug-In . SVG Version: 6.00 Build 0)  -->
<!DOCTYPE svg PUBLIC "-//W3C//DTD SVG 1.1//EN" "http://www.w3.org/Graphics/SVG/1.1/DTD/svg11.dtd">
<svg version="1.1" xmlns="http://www.w3.org/2000/svg" xmlns:xlink="http://www.w3.org/1999/xlink" x="0px" y="0px" width="24px"
	 height="32px" viewBox="0 0 24 32" style="enable-background:new 0 0 24 32;" xml:space="preserve">
<g id="Layer_1">
</g>
<g id="lock_x5F_fill">
	<path style="fill:#010101;" d="M14,0C8.492,0,4.004,4.484,4.004,10v2H0v14c0,3.309,2.691,6,6,6h12c3.309,0,6-2.691,6-6V10
		C24,4.484,19.512,0,14,0z M11.996,24C10.895,24,10,23.105,10,22s0.895-2,1.996-2c1.105,0,2,0.895,2,2S13.102,24,11.996,24z M20,12
		H8.004v-2c0-3.309,2.691-6,5.996-6c3.309,0,6,2.691,6,6V12z"/>
</g>
</svg>
