<?xml version="1.0" encoding="utf-8"?>
<!-- Generator: Adobe Illustrator 14.0.0, SVG Export Plug-In . SVG Version: 6.00 Build 43363)  -->
<!DOCTYPE svg PUBLIC "-//W3C//DTD SVG 1.1//EN" "http://www.w3.org/Graphics/SVG/1.1/DTD/svg11.dtd">
<svg version="1.1" id="Layer_1" xmlns="http://www.w3.org/2000/svg" xmlns:xlink="http://www.w3.org/1999/xlink" x="0px" y="0px"
	 width="32px" height="32px" viewBox="0 0 32 32" enable-background="new 0 0 32 32" xml:space="preserve">
<g>
	<path fill="#231F20" d="M9.804,3.677l-5.803,5.8V3.841H0v11.997h12.001v-4H7.298l5.335-5.333c3.387-3.391,9.307-3.391,12.701,0
		l2.828-2.828C23.261-1.229,14.708-1.222,9.804,3.677z"/>
	<path fill="#231F20" d="M20,16.033v4h4.703l-5.336,5.338c-3.39,3.395-9.308,3.395-12.702,0l-2.829,2.824
		C6.287,30.648,9.55,32,13.021,32c3.469,0,6.725-1.352,9.174-3.805L28,22.393v5.639h4V16.033H20z"/>
</g>
</svg>
