<?xml version="1.0" encoding="iso-8859-1"?>
<!-- Generator: Adobe Illustrator 15.1.0, SVG Export Plug-In . SVG Version: 6.00 Build 0)  -->
<!DOCTYPE svg PUBLIC "-//W3C//DTD SVG 1.1//EN" "http://www.w3.org/Graphics/SVG/1.1/DTD/svg11.dtd">
<svg version="1.1" xmlns="http://www.w3.org/2000/svg" xmlns:xlink="http://www.w3.org/1999/xlink" x="0px" y="0px" width="32px"
	 height="32.001px" viewBox="0 0 32 32.001" style="enable-background:new 0 0 32 32.001;" xml:space="preserve">
<g id="Layer_1">
</g>
<g id="loop">
	<g>
		<path style="fill:#010101;" d="M9.805,3.677L4,9.478V3.841H0v12h12v-4H7.299l5.334-5.336c3.389-3.391,9.309-3.391,12.703,0
			l2.828-2.828C23.262-1.229,14.707-1.222,9.805,3.677z"/>
		<path style="fill:#010101;" d="M20,16.036v4h4.703l-5.336,5.336c-3.389,3.395-9.309,3.395-12.701,0l-2.83,2.824
			c2.451,2.453,5.715,3.805,9.184,3.805c3.471,0,6.727-1.352,9.176-3.805L28,22.396v5.637h4V16.036H20z"/>
	</g>
</g>
</svg>
