<?xml version="1.0" encoding="utf-8"?>
<!-- Generator: Adobe Illustrator 14.0.0, SVG Export Plug-In . SVG Version: 6.00 Build 43363)  -->
<!DOCTYPE svg PUBLIC "-//W3C//DTD SVG 1.1//EN" "http://www.w3.org/Graphics/SVG/1.1/DTD/svg11.dtd">
<svg version="1.1" id="Layer_1" xmlns="http://www.w3.org/2000/svg" xmlns:xlink="http://www.w3.org/1999/xlink" x="0px" y="0px"
	 width="32px" height="32px" viewBox="0 0 32 32" enable-background="new 0 0 32 32" xml:space="preserve">
<path fill="#231F20" d="M20.135,0C13.594,0,8.273,5.32,8.273,11.864c0,1.565,0.32,3.05,0.867,4.422L0,25.43L6.572,32l9.146-9.148
	c1.367,0.556,2.854,0.875,4.416,0.875c6.537,0,11.865-5.319,11.865-11.861C32,5.32,26.672,0,20.135,0z M6.572,26.352
	C6.14,25.914,6.078,25.859,5.65,25.43c1.271-1.269,3.828-3.836,5.686-5.688c0.289,0.328,0.596,0.633,0.914,0.922
	C10.4,22.516,7.844,25.078,6.572,26.352z M20.135,19.729c-4.338,0-7.869-3.525-7.869-7.864c0-4.338,3.531-7.869,7.869-7.869
	c4.334,0,7.865,3.531,7.865,7.869C28,16.203,24.469,19.729,20.135,19.729z"/>
</svg>
