<?xml version="1.0" encoding="iso-8859-1"?>
<!-- Generator: Adobe Illustrator 15.1.0, SVG Export Plug-In . SVG Version: 6.00 Build 0)  -->
<!DOCTYPE svg PUBLIC "-//W3C//DTD SVG 1.1//EN" "http://www.w3.org/Graphics/SVG/1.1/DTD/svg11.dtd">
<svg version="1.1" xmlns="http://www.w3.org/2000/svg" xmlns:xlink="http://www.w3.org/1999/xlink" x="0px" y="0px" width="32px"
	 height="32px" viewBox="0 0 32 32" style="enable-background:new 0 0 32 32;" xml:space="preserve">
<g id="Layer_1">
</g>
<g id="moon_x5F_stroke">
	<path style="fill:#010101;" d="M5.895,9.148c0.848,8.959,8,16.109,16.957,16.953c-1.91,1.211-4.152,1.898-6.5,1.898
		C9.539,28,4,22.461,4,15.646C4,13.299,4.688,11.059,5.895,9.148 M11.844,0C5.02,1.969,0,8.189,0,15.646C0,24.68,7.32,32,16.352,32
		c7.457,0,13.68-5.023,15.648-11.844c-2.18,1.258-4.672,2.031-7.367,2.031c-8.188,0-14.82-6.639-14.82-14.822
		C9.812,4.67,10.586,2.178,11.844,0L11.844,0z"/>
</g>
</svg>
