<?xml version="1.0" encoding="utf-8"?>
<!-- Generator: Adobe Illustrator 14.0.0, SVG Export Plug-In . SVG Version: 6.00 Build 43363)  -->
<!DOCTYPE svg PUBLIC "-//W3C//DTD SVG 1.1//EN" "http://www.w3.org/Graphics/SVG/1.1/DTD/svg11.dtd">
<svg version="1.1" id="Layer_1" xmlns="http://www.w3.org/2000/svg" xmlns:xlink="http://www.w3.org/1999/xlink" x="0px" y="0px"
	 width="16px" height="32px" viewBox="0 0 16 32" enable-background="new 0 0 16 32" xml:space="preserve">
<g>
	<path d="M9.6,30c0,1.105-0.893,2-2.001,2c-1.105,0-2-0.895-2-2s0.895-2,2-2C8.707,28,9.6,28.894,9.6,30z"/>
	<path d="M7.676,25.976c-1.336,0-2.59-0.52-3.535-1.465s-1.465-2.199-1.465-3.535s0.52-2.59,1.465-3.535l6.688-6.688
		C11.586,9.999,12,8.995,12,7.925c0-1.067-0.414-2.072-1.172-2.828c-1.559-1.559-4.097-1.562-5.656,0C4.415,5.854,4,6.858,4,7.925H0
		c0-2.137,0.833-4.148,2.348-5.66c3.02-3.023,8.285-3.02,11.309,0.003C15.168,3.777,16,5.787,16,7.925
		c0,2.137-0.832,4.145-2.344,5.656l-6.688,6.688c-0.388,0.391-0.388,1.023,0,1.414c0.391,0.391,1.023,0.391,1.414,0
		c0.254-0.255,0.293-0.555,0.293-0.708h4c0,1.336-0.52,2.591-1.465,3.536S9.012,25.976,7.676,25.976L7.676,25.976z"/>
</g>
</svg>
