<?xml version="1.0" encoding="iso-8859-1"?>
<!-- Generator: Adobe Illustrator 15.1.0, SVG Export Plug-In . SVG Version: 6.00 Build 0)  -->
<!DOCTYPE svg PUBLIC "-//W3C//DTD SVG 1.1//EN" "http://www.w3.org/Graphics/SVG/1.1/DTD/svg11.dtd">
<svg version="1.1" xmlns="http://www.w3.org/2000/svg" xmlns:xlink="http://www.w3.org/1999/xlink" x="0px" y="0px" width="16px"
	 height="32px" viewBox="0 0 16 32" style="enable-background:new 0 0 16 32;" xml:space="preserve">
<g id="Layer_1">
</g>
<g id="question_x5F_mark">
	<g>
		<circle style="fill:#010101;" cx="7.6" cy="30" r="2"/>
		<path style="fill:#010101;" d="M7.676,25.977c-1.336,0-2.59-0.52-3.535-1.465s-1.465-2.199-1.465-3.535s0.52-2.59,1.465-3.535
			l6.688-6.688C11.586,9.998,12,8.994,12,7.926s-0.414-2.072-1.172-2.828c-1.559-1.56-4.096-1.563-5.654,0
			C4.416,5.854,4,6.857,4,7.926H0c0-2.137,0.834-4.147,2.348-5.659c3.02-3.023,8.285-3.021,11.309,0.002
			C15.168,3.778,16,5.787,16,7.926c0,2.137-0.832,4.145-2.344,5.656L6.969,20.27c-0.389,0.391-0.389,1.023,0,1.414
			c0.391,0.391,1.023,0.391,1.414,0c0.254-0.254,0.293-0.555,0.293-0.707h4c0,1.336-0.52,2.59-1.465,3.535
			S9.012,25.977,7.676,25.977L7.676,25.977z"/>
	</g>
</g>
</svg>
