<?xml version="1.0" encoding="iso-8859-1"?>
<!-- Generator: Adobe Illustrator 15.1.0, SVG Export Plug-In . SVG Version: 6.00 Build 0)  -->
<!DOCTYPE svg PUBLIC "-//W3C//DTD SVG 1.1//EN" "http://www.w3.org/Graphics/SVG/1.1/DTD/svg11.dtd">
<svg version="1.1" xmlns="http://www.w3.org/2000/svg" xmlns:xlink="http://www.w3.org/1999/xlink" x="0px" y="0px" width="32px"
	 height="32px" viewBox="0 0 32 32" style="enable-background:new 0 0 32 32;" xml:space="preserve">
<g id="Layer_1">
</g>
<g id="read_x5F_more">
	<g>
		<polygon style="fill:#010101;" points="32,4 0,4 0,0 32,0 32,4 		"/>
		<polygon style="fill:#010101;" points="20,12 0,12 0,8 20,8 20,12 		"/>
		<polygon style="fill:#010101;" points="32,20.086 0,20.086 0,16.086 32,16.086 32,20.086 		"/>
		<circle style="fill:#010101;" cx="2" cy="30" r="2"/>
		<path style="fill:#010101;" d="M12,30c0,1.105-0.898,2-2,2c-1.109,0-2.004-0.895-2.004-2S8.891,28,10,28
			C11.102,28,12,28.895,12,30z"/>
		<circle style="fill:#010101;" cx="18" cy="30" r="2"/>
	</g>
</g>
</svg>
