<?xml version="1.0" encoding="utf-8"?>
<!-- Generator: Adobe Illustrator 14.0.0, SVG Export Plug-In . SVG Version: 6.00 Build 43363)  -->
<!DOCTYPE svg PUBLIC "-//W3C//DTD SVG 1.1//EN" "http://www.w3.org/Graphics/SVG/1.1/DTD/svg11.dtd">
<svg version="1.1" id="Layer_1" xmlns="http://www.w3.org/2000/svg" xmlns:xlink="http://www.w3.org/1999/xlink" x="0px" y="0px"
	 width="32px" height="32px" viewBox="0 0 32 32" enable-background="new 0 0 32 32" xml:space="preserve">
<path d="M28,24c-0.974,0-1.833,0.391-2.523,0.964l-6.102-4.35C19.766,19.817,20,18.942,20,18c0-1.292-0.422-2.489-1.117-3.464
	l7.133-7.138C26.609,7.745,27.261,8,28,8c2.211,0,4-1.789,4-4s-1.789-4-4-4s-4,1.789-4,4c0,0.739,0.25,1.391,0.602,1.984
	l-7.133,7.136C16.484,12.417,15.297,12,14,12c-2.289,0-4.258,1.302-5.271,3.192l-4.815-1.609C3.719,12.683,2.953,12,2,12
	c-1.109,0-2,0.896-2,2s0.891,2,2,2c0.5,0,0.953-0.203,1.305-0.511l4.789,1.597C8.047,17.386,8,17.688,8,18c0,3.312,2.688,6,6,6
	c1.648,0,3.141-0.667,4.229-1.745l6.06,4.323C24.117,27.023,24,27.495,24,28c0,2.208,1.789,4,4,4s4-1.792,4-4S30.211,24,28,24z"/>
</svg>
