<?xml version="1.0" encoding="iso-8859-1"?>
<!-- Generator: Adobe Illustrator 15.1.0, SVG Export Plug-In . SVG Version: 6.00 Build 0)  -->
<!DOCTYPE svg PUBLIC "-//W3C//DTD SVG 1.1//EN" "http://www.w3.org/Graphics/SVG/1.1/DTD/svg11.dtd">
<svg version="1.1" xmlns="http://www.w3.org/2000/svg" xmlns:xlink="http://www.w3.org/1999/xlink" x="0px" y="0px" width="32px"
	 height="32px" viewBox="0 0 32 32" style="enable-background:new 0 0 32 32;" xml:space="preserve">
<g id="Layer_1">
</g>
<g id="steering_x5F_wheel">
	<path style="fill:#010101;" d="M16,0C7.164,0,0,7.164,0,16s7.164,16,16,16s16-7.164,16-16S24.836,0,16,0z M16,4
		c5.207,0,9.605,3.354,11.266,8H4.734C6.395,7.354,10.793,4,16,4z M16,18c-1.105,0-2-0.895-2-2s0.895-2,2-2s2,0.895,2,2
		S17.105,18,16,18z M4,16c5.465,0,9.891,5.266,9.984,11.797C8.328,26.828,4,21.926,4,16z M18.016,27.797
		C18.109,21.266,22.535,16,28,16C28,21.926,23.672,26.828,18.016,27.797z"/>
</g>
</svg>
