<?xml version="1.0" encoding="utf-8"?>
<!-- Generator: Adobe Illustrator 14.0.0, SVG Export Plug-In . SVG Version: 6.00 Build 43363)  -->
<!DOCTYPE svg PUBLIC "-//W3C//DTD SVG 1.1//EN" "http://www.w3.org/Graphics/SVG/1.1/DTD/svg11.dtd">
<svg version="1.1" id="Layer_1" xmlns="http://www.w3.org/2000/svg" xmlns:xlink="http://www.w3.org/1999/xlink" x="0px" y="0px"
	 width="32px" height="32px" viewBox="0 0 32 32" enable-background="new 0 0 32 32" xml:space="preserve">
<path d="M16,0C7.164,0,0,7.164,0,16s7.164,16,16,16s16-7.164,16-16S24.836,0,16,0z M16,4c5.203,0,9.604,3.352,11.266,8H4.734
	C6.391,7.352,10.792,4,16,4z M16,18c-1.109,0-2-0.895-2-2s0.891-2,2-2c1.104,0,2,0.895,2,2S17.104,18,16,18z M4,16
	c5.464,0,9.891,5.266,9.984,11.797C8.328,26.828,4,21.926,4,16z M18.016,27.797C18.109,21.266,22.531,16,28,16
	C28,21.926,23.672,26.828,18.016,27.797z"/>
</svg>
