<?xml version="1.0" encoding="utf-8"?>
<!-- Generator: Adobe Illustrator 14.0.0, SVG Export Plug-In . SVG Version: 6.00 Build 43363)  -->
<!DOCTYPE svg PUBLIC "-//W3C//DTD SVG 1.1//EN" "http://www.w3.org/Graphics/SVG/1.1/DTD/svg11.dtd">
<svg version="1.1" id="Layer_1" xmlns="http://www.w3.org/2000/svg" xmlns:xlink="http://www.w3.org/1999/xlink" x="0px" y="0px"
	 width="32px" height="32px" viewBox="0 0 32 32" enable-background="new 0 0 32 32" xml:space="preserve">
<g>
	<path d="M16,12c2.203,0,4,1.794,4,4c0,2.205-1.797,4-4,4s-4-1.795-4-4C12,13.794,13.797,12,16,12 M16,8c-4.422,0-8,3.582-8,8
		s3.578,8,8,8c4.417,0,8-3.582,8-8S20.417,8,16,8L16,8z"/>
	<path d="M18,2c0,1.105-0.896,2-2,2c-1.109,0-2-0.895-2-2s0.891-2,2-2C17.104,0,18,0.895,18,2z"/>
	<circle cx="6" cy="6" r="2"/>
	<path d="M2,13.998c1.104,0,2,0.896,2,2c0,1.108-0.896,2-2,2c-1.109,0-2-0.893-2-2C0,14.893,0.891,13.998,2,13.998z"/>
	<circle cx="6" cy="26" r="2"/>
	<path d="M14,29.998c0-1.105,0.891-2,2-2c1.109,0.002,2,0.895,2,2S17.109,32,16,32S14,31.104,14,29.998z"/>
	<circle cx="26.008" cy="26" r="2"/>
	<path d="M29.995,17.998C28.891,17.998,28,17.104,28,16c0-1.109,0.891-2,2-2c1.102,0,2,0.893,2,1.998
		C32,17.105,31.102,18,29.995,17.998z"/>
	<path d="M27.422,7.417c-0.781,0.779-2.047,0.779-2.828,0c-0.781-0.786-0.781-2.047,0-2.831c0.781-0.779,2.047-0.781,2.828,0.002
		C28.203,5.37,28.203,6.637,27.422,7.417z"/>
</g>
</svg>
