<?xml version="1.0" encoding="iso-8859-1"?>
<!-- Generator: Adobe Illustrator 15.1.0, SVG Export Plug-In . SVG Version: 6.00 Build 0)  -->
<!DOCTYPE svg PUBLIC "-//W3C//DTD SVG 1.1//EN" "http://www.w3.org/Graphics/SVG/1.1/DTD/svg11.dtd">
<svg version="1.1" xmlns="http://www.w3.org/2000/svg" xmlns:xlink="http://www.w3.org/1999/xlink" x="0px" y="0px"
	 width="31.998px" height="32px" viewBox="0 0 31.998 32" style="enable-background:new 0 0 31.998 32;" xml:space="preserve">
<g id="Layer_1">
</g>
<g id="sun_x5F_fill">
	<g>
		<path style="fill:#010101;" d="M16,8c-4.422,0-8,3.582-8,8s3.578,8,8,8c4.414,0,7.998-3.582,7.998-8S20.414,8,16,8L16,8z"/>
		<path style="fill:#010101;" d="M18,2c0,1.105-0.898,2-2,2c-1.109,0-2-0.895-2-2s0.891-2,2-2C17.102,0,18,0.895,18,2z"/>
		<circle style="fill:#010101;" cx="6" cy="6" r="2"/>
		<path style="fill:#010101;" d="M2,13.998c1.102,0,2,0.895,2,2c0,1.107-0.898,2-2,2c-1.109,0-2-0.893-2-2
			C0,14.893,0.891,13.998,2,13.998z"/>
		<circle style="fill:#010101;" cx="6" cy="26" r="2"/>
		<path style="fill:#010101;" d="M14,30c0-1.109,0.891-2,2-2s2,0.891,2,2c0,1.105-0.891,2-2,2S14,31.105,14,30z"/>
		<path style="fill:#010101;" d="M24.592,27.414c-0.781-0.781-0.781-2.047,0-2.828s2.047-0.781,2.828,0
			c0.789,0.781,0.789,2.047,0,2.828C26.639,28.195,25.373,28.195,24.592,27.414z"/>
		<path style="fill:#010101;" d="M29.998,17.998c-1.102,0-2-0.895-2-1.998c0-1.109,0.898-2,2.008-2c1.102,0,2,0.893,1.992,1.998
			C32.006,17.105,31.107,18,29.998,17.998z"/>
		<path style="fill:#010101;" d="M27.42,7.416c-0.781,0.779-2.047,0.779-2.828,0c-0.781-0.785-0.781-2.047,0-2.83
			c0.781-0.779,2.047-0.781,2.828,0.002C28.209,5.369,28.209,6.637,27.42,7.416z"/>
	</g>
</g>
</svg>
