<?xml version="1.0" encoding="utf-8"?>
<!-- Generator: Adobe Illustrator 14.0.0, SVG Export Plug-In . SVG Version: 6.00 Build 43363)  -->
<!DOCTYPE svg PUBLIC "-//W3C//DTD SVG 1.1//EN" "http://www.w3.org/Graphics/SVG/1.1/DTD/svg11.dtd">
<svg version="1.1" id="Layer_1" xmlns="http://www.w3.org/2000/svg" xmlns:xlink="http://www.w3.org/1999/xlink" x="0px" y="0px"
	 width="32px" height="32px" viewBox="0 0 32 32" enable-background="new 0 0 32 32" xml:space="preserve">
<g>
	<g>
		<g>
			<path d="M18.023,13.976h5.789c-0.734-2.836-2.953-5.058-5.789-5.789V13.976z"/>
		</g>
		<g>
			<path d="M18.023,18.023v5.789c2.836-0.73,5.055-2.953,5.789-5.789H18.023z"/>
		</g>
		<g>
			<path d="M13.972,13.976V8.187c-2.836,0.731-5.058,2.953-5.789,5.789H13.972z"/>
		</g>
		<g>
			<path d="M13.972,18.023H8.183c0.731,2.836,2.953,5.059,5.789,5.789V18.023z"/>
		</g>
	</g>
	<g>
		<path d="M18.023,4.054c5.073,0.859,9.062,4.845,9.922,9.922H32C31.073,6.664,25.336,0.922,18.023,0V4.054z"/>
		<path d="M4.05,13.976c0.859-5.077,4.849-9.062,9.922-9.922V0C6.664,0.922,0.922,6.664,0,13.976H4.05z"/>
		<path d="M13.972,27.945c-5.073-0.859-9.062-4.844-9.922-9.922H0C0.922,25.336,6.664,31.078,13.972,32V27.945z"/>
		<path d="M27.945,18.023c-0.859,5.078-4.849,9.062-9.922,9.922V32c7.312-0.922,13.05-6.664,13.977-13.977H27.945z"/>
	</g>
</g>
</svg>
