<?xml version="1.0" encoding="utf-8"?>
<!-- Generator: Adobe Illustrator 14.0.0, SVG Export Plug-In . SVG Version: 6.00 Build 43363)  -->
<!DOCTYPE svg PUBLIC "-//W3C//DTD SVG 1.1//EN" "http://www.w3.org/Graphics/SVG/1.1/DTD/svg11.dtd">
<svg version="1.1" id="Layer_1" xmlns="http://www.w3.org/2000/svg" xmlns:xlink="http://www.w3.org/1999/xlink" x="0px" y="0px"
	 width="32px" height="32px" viewBox="0 0 32 32" enable-background="new 0 0 32 32" xml:space="preserve">
<path fill="#010101" d="M16,0C7.179,0,0,7.177,0,16h4c0-0.826,0.679-1.5,1.5-1.5C6.328,14.5,7,15.174,7,16h4
	c0-0.826,0.679-1.5,1.5-1.5c0.828,0,1.5,0.674,1.5,1.5v10c0,1.104-0.895,2-2,2c-1.103,0-2-0.896-2-2H6c0,3.309,2.694,6,6,6
	c3.312,0,6-2.691,6-6V16c0-0.826,0.679-1.5,1.5-1.5c0.828,0,1.5,0.674,1.5,1.5h4c0-0.826,0.679-1.5,1.5-1.5
	c0.828,0,1.5,0.674,1.5,1.5h4C32,7.177,24.824,0,16,0z"/>
</svg>
