<?xml version="1.0" encoding="utf-8"?>
<!-- Generator: Adobe Illustrator 14.0.0, SVG Export Plug-In . SVG Version: 6.00 Build 43363)  -->
<!DOCTYPE svg PUBLIC "-//W3C//DTD SVG 1.1//EN" "http://www.w3.org/Graphics/SVG/1.1/DTD/svg11.dtd">
<svg version="1.1" id="Layer_1" xmlns="http://www.w3.org/2000/svg" xmlns:xlink="http://www.w3.org/1999/xlink" x="0px" y="0px"
	 width="32px" height="28px" viewBox="0 0 32 28" enable-background="new 0 0 32 28" xml:space="preserve">
<g>
	<path d="M24,4c-0.379,0-0.738,0.06-1.103,0.112C21.507,1.646,18.929,0,16,0c-2.988,0-5.566,1.667-6.941,4.099
		C8.71,4.052,8.355,4,8,4c-4.41,0-8,3.588-8,8c0,4.412,3.59,8,8,8h16c4.413,0,8-3.588,8-8C32,7.588,28.413,4,24,4z M24,16H8
		c-2.207,0-4-1.794-4-4c0-2.193,1.944-3.885,4.007-3.945c0.005,0.943,0.172,1.87,0.5,2.745l3.743-1.403C12.085,8.953,12,8.482,12,8
		c0-2.206,1.793-4,4-4c1.293,0,2.465,0.641,3.199,1.638C17.272,7.099,16,9.395,16,12h4c0-2.206,1.793-4,4-4c2.21,0,4,1.794,4,4
		S26.21,16,24,16z"/>
	<path d="M3.281,27.438c-0.75,0.75-1.969,0.75-2.719,0c-0.75-0.753-0.75-1.969,0-2.719C1.312,23.966,6,22,6,22
		S4.031,26.685,3.281,27.438z"/>
	<path d="M11.288,27.438c-0.75,0.75-1.969,0.75-2.719,0c-0.75-0.753-0.75-1.969,0-2.719C9.319,23.966,14.007,22,14.007,22
		S12.038,26.685,11.288,27.438z"/>
	<path d="M19.281,27.438c-0.75,0.75-1.969,0.75-2.719,0c-0.75-0.753-0.75-1.969,0-2.719C17.312,23.966,22,22,22,22
		S20.031,26.685,19.281,27.438z"/>
</g>
</svg>
