<?xml version="1.0" encoding="utf-8"?>
<!-- Generator: Adobe Illustrator 14.0.0, SVG Export Plug-In . SVG Version: 6.00 Build 43363)  -->
<!DOCTYPE svg PUBLIC "-//W3C//DTD SVG 1.1//EN" "http://www.w3.org/Graphics/SVG/1.1/DTD/svg11.dtd">
<svg version="1.1" id="Layer_1" xmlns="http://www.w3.org/2000/svg" xmlns:xlink="http://www.w3.org/1999/xlink" x="0px" y="0px"
	 width="32px" height="32px" viewBox="0 0 32 32" enable-background="new 0 0 32 32" xml:space="preserve">
<path fill="#231F20" d="M31.604,5.641l-5.026,5.023h-5.25V5.335l4.964-4.96C25.562,0.156,24.797,0,24,0c-4.422,0-8,3.585-8,8
	c0,1.234,0.297,2.383,0.797,3.43L0.781,27.446C0.297,27.929,0,28.594,0,29.335C0,30.805,1.188,32,2.667,32
	c0.739,0,1.406-0.298,1.88-0.782l16.026-16.016C21.609,15.696,22.766,16,24,16c4.417,0,8-3.585,8-8
	C32,7.172,31.839,6.391,31.604,5.641z"/>
</svg>
